<svg id="Click_here-pana" data-name="Click here-pana" xmlns="http://www.w3.org/2000/svg" width="290.476" height="305.528" viewBox="0 0 290.476 305.528">
  <g id="freepik--background-complete--inject-205">
    <path id="Path_781" data-name="Path 781" d="M429.267,156.54c-8.909,4.613-15.735,12.549-20.644,21.286s-8.074,18.334-11.2,27.85l-2.758,49.1c10.343-17.617,18.672-38.331,20.92-58.61l-6.9-.614c4.627-.69,8.509-4.054,10.977-8.026s3.737-8.543,4.978-13.053L416.27,175.7a31.2,31.2,0,0,0,13-19.162Z" transform="translate(-153.912 -78.451)" fill="#e0e0e0"/>
    <path id="Path_782" data-name="Path 782" d="M382.43,264.443s-22.492-26.891-22.23-52.583h9.081s-9.867-6.482-9.081-10.115,1.034-17.383,1.034-17.383l8.274,2.069s-6.206-3.11-7.006-8.04,1.813-27.76,1.813-27.76,10.122,10.639,13.239,21.534,11.287,23.609,8.888,56.81S382.43,264.443,382.43,264.443Z" transform="translate(-143.2 -76.616)" fill="#ebebeb"/>
    <path id="Path_783" data-name="Path 783" d="M409,280.179s24.361-16.224,29.774-36.931l-7.3-1.986s9.35-3.055,9.522-6.144,2.965-14.2,2.965-14.2l-7.13-.145s5.689-1.145,7.392-4.937,4.62-22.713,4.62-22.713-10.474,6.337-15.363,14.4-14.246,16.549-19.582,43.75S409,280.179,409,280.179Z" transform="translate(-158.361 -89.809)" fill="#ebebeb"/>
    <path id="Path_784" data-name="Path 784" d="M375.15,184.66a1.466,1.466,0,0,1,.076.283l.193.827c.165.745.407,1.82.69,3.193s.69,3.089,1.062,5.068.862,4.227,1.317,6.723c.958,4.992,1.972,10.957,3.02,17.59s2.02,13.956,2.924,21.651S386,255.054,386.5,261.749s.869,12.736,1.076,17.81c.131,2.537.186,4.827.255,6.854s.1,3.751.117,5.171.034,2.5.041,3.268V296a1.239,1.239,0,0,1,0-.29,8.441,8.441,0,0,0-.034-.855c0-.765-.062-1.862-.11-3.268s-.1-3.151-.186-5.165-.159-4.316-.3-6.847c-.234-5.075-.634-11.108-1.151-17.8s-1.241-14.046-2.124-21.741-1.9-15-2.9-21.644-2.013-12.6-2.937-17.59c-.441-2.5-.889-4.751-1.269-6.737s-.69-3.682-1-5.075-.49-2.455-.641-3.206c-.069-.352-.117-.627-.159-.834A1.558,1.558,0,0,1,375.15,184.66Z" transform="translate(-147.855 -87.182)" fill="#e0e0e0"/>
    <path id="Path_785" data-name="Path 785" d="M367.175,311.317s-20.575-23.334-26.967-37.441l4.827-2.069c-3.5.579-7.081-.924-9.791-3.206a36.043,36.043,0,0,1-6.633-8.233l6.351-1.069a23.616,23.616,0,0,1-13.88-10.75c7.5,1.234,14.28,5.351,19.872,10.495a97.769,97.769,0,0,1,12.039,13.942,47.577,47.577,0,0,1,4.682,7.688C361.107,287.818,367.223,302.747,367.175,311.317Z" transform="translate(-131.068 -107.018)" fill="#ebebeb"/>
    <path id="Path_786" data-name="Path 786" d="M436.629,212.82a1.221,1.221,0,0,1-.1.241c-.083.165-.186.393-.317.69-.3.607-.724,1.476-1.262,2.586s-1.22,2.489-1.986,4.1-1.648,3.413-2.579,5.44c-1.9,4.041-4.082,8.888-6.433,14.308s-4.827,11.425-7.268,17.776S412.027,270.416,410.1,276s-3.558,10.639-4.868,14.908c-.69,2.124-1.241,4.068-1.758,5.764s-.945,3.165-1.289,4.365-.621,2.11-.807,2.758l-.221.69a1.7,1.7,0,0,1-.09.241,1.3,1.3,0,0,1,.055-.255q.062-.269.186-.724c.172-.655.421-1.586.745-2.758s.731-2.675,1.227-4.378,1.041-3.654,1.7-5.785c1.282-4.275,2.91-9.343,4.827-14.942s4.137-11.722,6.564-18.066,4.958-12.356,7.3-17.776,4.578-10.253,6.509-14.28c.945-2.027,1.848-3.834,2.627-5.427s1.469-2.958,2.069-4.068l1.317-2.558q.228-.414.352-.69A1.948,1.948,0,0,1,436.629,212.82Z" transform="translate(-155.903 -95.925)" fill="#e0e0e0"/>
    <path id="Path_787" data-name="Path 787" d="M383.654,336.126a3.035,3.035,0,0,1-.09-.434c-.048-.317-.117-.731-.193-1.234s-.179-1.2-.317-1.958-.269-1.634-.476-2.586c-.365-1.91-.9-4.172-1.565-6.654s-1.551-5.171-2.593-7.95-2.2-5.364-3.317-7.681-2.234-4.351-3.22-6.026c-.476-.848-.952-1.586-1.379-2.248s-.758-1.227-1.062-1.682l-.69-1.055a1.766,1.766,0,0,1-.214-.386,2.282,2.282,0,0,1,.276.345l.724,1.02c.317.441.69.993,1.11,1.648s.91,1.379,1.379,2.227c1.021,1.669,2.144,3.7,3.3,6.013s2.3,4.916,3.358,7.7,1.889,5.516,2.572,7.992,1.158,4.765,1.5,6.688c.193.958.3,1.834.421,2.6s.207,1.427.262,1.972.1.924.124,1.248a1.779,1.779,0,0,1,.09.441Z" transform="translate(-145.803 -121.822)" fill="#e0e0e0"/>
    <rect id="Rectangle_253" data-name="Rectangle 253" width="45.04" height="9.184" transform="translate(219.965 208.816)" fill="#e0e0e0"/>
    <path id="Path_788" data-name="Path 788" d="M370.75,359.44l4.868,30.891h27.216l4.544-30.891Z" transform="translate(-146.489 -141.447)" fill="#e0e0e0"/>
    <path id="Path_789" data-name="Path 789" d="M408.7,359.359c0,.1-8.522.179-19.031.179s-19.031-.076-19.031-.179,8.522-.179,19.031-.179S408.7,359.263,408.7,359.359Z" transform="translate(-146.455 -141.366)" fill="#ebebeb"/>
    <path id="Path_790" data-name="Path 790" d="M322.006,89.738A19.8,19.8,0,0,1,319,96.165l2.958,2.758h0l12.618,11.391-.3.138s10.922-7.626,13.942-10.115c2.489-2.069,9.15-6.288,9.695-10.4a3.523,3.523,0,0,0-1.958-3.606,2.758,2.758,0,0,0-2.875.228s2.937-3.448.614-5.709-4.137-.49-4.137-.49,2.875-4.378.207-6.806a3.448,3.448,0,0,0-3.9-.207l1.083-1.158,5.578-6.006a3.744,3.744,0,0,0,0-5.171,3.641,3.641,0,0,0-5.22.041L331.618,77.479l.8-8.964c.2-2.324-2.937-4.006-4.33-3.151,0,0-2.144.834-2.758,4.468C324.923,72.576,322.006,89.738,322.006,89.738Z" transform="translate(-130.422 -48.457)" fill="#f5f5f5"/>
    <path id="Path_791" data-name="Path 791" d="M321.96,89.666a2.756,2.756,0,0,1,.055-.448c.055-.3.11-.738.2-1.3.186-1.158.455-2.841.807-5.013l1.31-7.943q.386-2.324.821-4.971a8.509,8.509,0,0,1,.807-2.662,4.675,4.675,0,0,1,2.034-2.138h0a2.386,2.386,0,0,1,1.793-.131,4.323,4.323,0,0,1,1.579.9,3.406,3.406,0,0,1,1.055,1.572c.048.159.062.324.1.483a2.391,2.391,0,0,1,0,.5l-.083.945q-.331,3.806-.69,7.971l-.29-.131,14.294-14.935c.324-.331.641-.69.965-1.007a7.15,7.15,0,0,1,1.048-.979,3.889,3.889,0,0,1,2.841-.614,3.786,3.786,0,0,1,3.061,4.509,4.136,4.136,0,0,1-.572,1.42,8.335,8.335,0,0,1-.979,1.117l-2.027,2.172-4.137,4.406-.241-.31a3.8,3.8,0,0,1,2.7-.434,3.682,3.682,0,0,1,1.1.434,1.669,1.669,0,0,1,.469.379,3.447,3.447,0,0,1,.386.455,3.75,3.75,0,0,1,.69,2.206,8.612,8.612,0,0,1-1.379,4.254l-.3-.248a2.827,2.827,0,0,1,2.806-.552,4.047,4.047,0,0,1,1.262.758,3.446,3.446,0,0,1,.51.5l.241.276.186.317a3.5,3.5,0,0,1,.145,2.758,7.819,7.819,0,0,1-1.331,2.406l-.255-.283a2.965,2.965,0,0,1,2.827-.345,3.7,3.7,0,0,1,2.331,3.358,5.151,5.151,0,0,1-.221,1.379,9,9,0,0,1-1.3,2.393c-2.213,2.834-5.089,4.827-7.674,6.792s-5.144,3.9-7.585,5.654l-7,4.93-.145-.248.3-.138-.034.241L321.849,98.927h.131l-.069.069-.069-.062L318.9,96.175l-.048-.048.041-.055a20.328,20.328,0,0,0,2.482-4.641c.214-.558.352-1,.441-1.3s.145-.441.145-.441a12.522,12.522,0,0,1-.51,1.765,19.562,19.562,0,0,1-2.434,4.709v-.1c.855.793,1.807,1.669,2.965,2.758h-.131l.062-.069.076.062,12.646,11.35.165.145-.2.09-.3.138-.179-.3,6.978-4.958c2.427-1.765,5-3.592,7.55-5.661s5.447-3.972,7.585-6.744A8.51,8.51,0,0,0,357.47,90.6a5.026,5.026,0,0,0,.207-1.269,3.448,3.448,0,0,0-.276-1.248,3.33,3.33,0,0,0-1.82-1.765,2.6,2.6,0,0,0-2.475.31l-1.055.779.841-1.048a7.253,7.253,0,0,0,1.248-2.275,3.089,3.089,0,0,0-.117-2.489,3.909,3.909,0,0,0-1.972-1.627,2.441,2.441,0,0,0-2.406.455l-.952.862.655-1.1a8.157,8.157,0,0,0,1.31-4.041,3,3,0,0,0-2.324-3.1,3.393,3.393,0,0,0-2.413.4l-1.1.607.855-.91,4.137-4.406q1.027-1.089,2.027-2.172a7.583,7.583,0,0,0,.9-1.1,3.773,3.773,0,0,0,.517-1.283,3.391,3.391,0,0,0-2.744-4.054,3.482,3.482,0,0,0-2.558.545,6.948,6.948,0,0,0-.993.931L346,62.616l-14.308,14.9-.324.317.048-.469c.248-2.758.49-5.433.724-7.964a4.889,4.889,0,0,0,0-1.82,3.131,3.131,0,0,0-.958-1.434,3.93,3.93,0,0,0-1.489-.827,2.117,2.117,0,0,0-1.572.09h0a4.434,4.434,0,0,0-1.9,2,8.156,8.156,0,0,0-.793,2.579c-.3,1.758-.593,3.448-.855,4.971-.538,3.089-1,5.751-1.379,7.93s-.69,3.848-.883,5c-.1.565-.179.993-.241,1.3S321.96,89.666,321.96,89.666Z" transform="translate(-130.375 -48.384)" fill="#e0e0e0"/>
    <path id="Path_792" data-name="Path 792" d="M2.924,0H3.13a2.93,2.93,0,0,1,2.93,2.93V24.209a2.924,2.924,0,0,1-2.924,2.924H2.93A2.93,2.93,0,0,1,0,24.2V2.93A2.924,2.924,0,0,1,2.924.007Z" transform="translate(182.474 49.96) rotate(-46.93)" fill="#f5f5f5"/>
    <path id="Path_793" data-name="Path 793" d="M328.259,130.717a3.884,3.884,0,0,0,.517.338,2.91,2.91,0,0,0,2.875,0,3.662,3.662,0,0,0,1.069-1.027,2.806,2.806,0,0,0-.152-3.337l-15.859-14.777a2.758,2.758,0,0,0-2.758-.6,3.137,3.137,0,0,0-1.9,1.986,2.758,2.758,0,0,0,.572,2.572c.655.655,1.379,1.3,2.034,1.924l7.1,6.7,4.758,4.53,1.283,1.248a3.654,3.654,0,0,1,.427.455,4.134,4.134,0,0,1-.483-.4l-1.331-1.193-4.827-4.441-7.15-6.626c-.69-.634-1.379-1.241-2.069-1.944a3.124,3.124,0,0,1-.69-2.924,3.551,3.551,0,0,1,2.158-2.255,3.151,3.151,0,0,1,3.11.69c6.206,5.8,11.791,11.032,15.8,14.894a3.048,3.048,0,0,1,.117,3.634,3.648,3.648,0,0,1-1.158,1.062,2.972,2.972,0,0,1-1.269.365,2.924,2.924,0,0,1-1.738-.448,1.953,1.953,0,0,1-.428-.421Z" transform="translate(-128.111 -64.247)" fill="#e0e0e0"/>
    <path id="Path_794" data-name="Path 794" d="M349.52,85.109a25.336,25.336,0,0,1,2.862-3.344,24.705,24.705,0,0,1,3.144-3.075,25.312,25.312,0,0,1-2.855,3.344,24.476,24.476,0,0,1-3.151,3.075Z" transform="translate(-139.898 -54.281)" fill="#e0e0e0"/>
    <path id="Path_795" data-name="Path 795" d="M358.14,93.158a8.88,8.88,0,0,1,1.641-2.069A9.246,9.246,0,0,1,361.7,89.31a8.676,8.676,0,0,1-1.641,2.069A8.859,8.859,0,0,1,358.14,93.158Z" transform="translate(-142.574 -57.578)" fill="#e0e0e0"/>
    <path id="Path_796" data-name="Path 796" d="M363.27,102.331a8.9,8.9,0,0,1,1.641-2.069,8.632,8.632,0,0,1,1.931-1.772,8.963,8.963,0,0,1-1.641,2.069,8.777,8.777,0,0,1-1.931,1.772Z" transform="translate(-144.167 -60.428)" fill="#e0e0e0"/>
    <path id="Path_797" data-name="Path 797" d="M360.947,52.021a26.086,26.086,0,0,1-1.738-4.22,26.586,26.586,0,0,1-1.379-4.351,26.5,26.5,0,0,1,1.738,4.22A26.591,26.591,0,0,1,360.947,52.021Z" transform="translate(-142.478 -43.34)" fill="#e0e0e0"/>
    <path id="Path_798" data-name="Path 798" d="M368.3,52.971a44.129,44.129,0,0,1,3.124-4.951,43.772,43.772,0,0,1,3.448-4.73,44.324,44.324,0,0,1-3.13,4.951,43.227,43.227,0,0,1-3.441,4.73Z" transform="translate(-145.728 -43.29)" fill="#e0e0e0"/>
    <path id="Path_799" data-name="Path 799" d="M372.63,61.535a29.8,29.8,0,0,1,4.606-1.172,29.152,29.152,0,0,1,4.682-.793,27.982,27.982,0,0,1-4.6,1.179,28.658,28.658,0,0,1-4.689.786Z" transform="translate(-147.073 -48.345)" fill="#e0e0e0"/>
    <path id="Path_800" data-name="Path 800" d="M75.961,274.4,53.82,363.921h5.826L82.332,274.4Z" transform="translate(-48.09 -115.044)" fill="#f5f5f5"/>
    <path id="Path_801" data-name="Path 801" d="M143.538,274.4l20.713,89.521h-5.826L137.16,274.4Z" transform="translate(-73.965 -115.044)" fill="#f5f5f5"/>
    <path id="Path_802" data-name="Path 802" d="M117.8,356.056h-6.785L110,253.31h6.785Z" transform="translate(-65.533 -108.496)" fill="#f5f5f5"/>
    <rect id="Rectangle_254" data-name="Rectangle 254" width="95.727" height="61.326" transform="translate(0 84.474)" fill="#ebebeb"/>
    <rect id="Rectangle_255" data-name="Rectangle 255" width="48.046" height="5.923" transform="translate(23.864 158.418)" fill="#f5f5f5"/>
    <path id="Path_803" data-name="Path 803" d="M54.624,220.894a5.846,5.846,0,0,1,.069,1.124h-.131c-.1-3-.172-12.935-.172-24.713,0-7.1.055-13.535.069-18.266,0-2.289.055-4.137.076-5.516,0-.614,0-1.11.041-1.51a2.84,2.84,0,0,1,.048-.524,1.841,1.841,0,0,1,.048.524c0,.4,0,.9.048,1.51,0,1.379.041,3.248.076,5.516,0,4.73.041,11.163.069,18.266,0,11.777-.076,21.713-.172,24.713h-.131A7.426,7.426,0,0,1,54.624,220.894Z" transform="translate(-48.267 -83.093)" fill="#f5f5f5"/>
    <path id="Path_804" data-name="Path 804" d="M64.971,220.894a7.426,7.426,0,0,1,.062,1.124h-.11c-.1-3-.172-12.935-.172-24.713,0-7.1.055-13.535.069-18.266.034-2.289.062-4.137.076-5.516a13.672,13.672,0,0,1,.048-1.51,1.841,1.841,0,0,1,.048-.524,2.585,2.585,0,0,1,.041.524c0,.4,0,.9.048,1.51,0,1.379.041,3.248.076,5.516,0,4.73.041,11.163.069,18.266,0,11.777-.076,21.713-.172,24.713h-.131a5.847,5.847,0,0,1,.048-1.124Z" transform="translate(-51.484 -83.093)" fill="#f5f5f5"/>
    <path id="Path_805" data-name="Path 805" d="M75.294,220.894a7.425,7.425,0,0,1,.062,1.124h-.131c-.1-3-.165-12.935-.165-24.713,0-7.1.048-13.535.069-18.266,0-2.289.055-4.137.076-5.516,0-.614,0-1.11.041-1.51a2.228,2.228,0,0,1,.048-.524,2.227,2.227,0,0,1,.048.524c0,.4,0,.9.041,1.51,0,1.379.048,3.248.076,5.516,0,4.73.041,11.163.069,18.266,0,11.777-.069,21.713-.172,24.713h-.131A6.7,6.7,0,0,1,75.294,220.894Z" transform="translate(-54.685 -83.093)" fill="#f5f5f5"/>
    <path id="Path_806" data-name="Path 806" d="M85.624,220.894a6.7,6.7,0,0,1,.069,1.124h-.131c-.1-3-.172-12.935-.172-24.713,0-7.1.048-13.535.069-18.266,0-2.289.055-4.137.076-5.516,0-.614.034-1.11.041-1.51a2.227,2.227,0,0,1,.048-.524,2.228,2.228,0,0,1,.048.524c0,.4,0,.9.041,1.51,0,1.379.048,3.248.076,5.516,0,4.73.041,11.163.069,18.266,0,11.777-.069,21.713-.165,24.713h-.131a7.428,7.428,0,0,1,.062-1.124Z" transform="translate(-57.892 -83.093)" fill="#f5f5f5"/>
    <path id="Path_807" data-name="Path 807" d="M95.964,220.894a5.847,5.847,0,0,1,.069,1.124h-.11c-.1-3-.172-12.935-.172-24.713,0-7.1.055-13.535.069-18.266.034-2.289.055-4.137.076-5.516,0-.614,0-1.11.041-1.51a2.84,2.84,0,0,1,.048-.524,1.841,1.841,0,0,1,.048.524c0,.4,0,.9.048,1.51,0,1.379.041,3.248.076,5.516,0,4.73.041,11.163.069,18.266,0,11.777-.076,21.713-.172,24.713h-.131a7.427,7.427,0,0,1,.041-1.124Z" transform="translate(-61.108 -83.093)" fill="#f5f5f5"/>
    <path id="Path_808" data-name="Path 808" d="M106.291,220.894a7.425,7.425,0,0,1,.062,1.124h-.131c-.1-3-.172-12.935-.172-24.713,0-7.1.055-13.535.069-18.266,0-2.289.062-4.137.076-5.516a13.675,13.675,0,0,1,.048-1.51,1.841,1.841,0,0,1,.048-.524,2.584,2.584,0,0,1,.041.524c0,.4,0,.9.048,1.51,0,1.379.041,3.248.076,5.516,0,4.73.041,11.163.069,18.266,0,11.777-.076,21.713-.172,24.713h-.131A5.847,5.847,0,0,1,106.291,220.894Z" transform="translate(-64.306 -83.093)" fill="#f5f5f5"/>
    <path id="Path_809" data-name="Path 809" d="M116.624,220.894a7.426,7.426,0,0,1,.062,1.124h-.131c-.1-3-.165-12.935-.165-24.713,0-7.1.048-13.535.069-18.266,0-2.289.055-4.137.076-5.516,0-.614,0-1.11.041-1.51a2.226,2.226,0,0,1,.048-.524,2.227,2.227,0,0,1,.048.524c0,.4,0,.9.041,1.51,0,1.379.048,3.248.076,5.516,0,4.73.041,11.163.069,18.266,0,11.777-.069,21.713-.172,24.713h-.131A6.7,6.7,0,0,1,116.624,220.894Z" transform="translate(-67.516 -83.093)" fill="#f5f5f5"/>
    <path id="Path_810" data-name="Path 810" d="M126.964,220.894a6.7,6.7,0,0,1,.069,1.124h-.11c-.1-3-.172-12.935-.172-24.713,0-7.1.048-13.535.069-18.266,0-2.289.055-4.137.076-5.516,0-.614,0-1.11.041-1.51a2.227,2.227,0,0,1,.048-.524,2.228,2.228,0,0,1,.048.524c0,.4,0,.9.041,1.51,0,1.379.048,3.248.076,5.516,0,4.73.041,11.163.069,18.266,0,11.777-.069,21.713-.165,24.713h-.131a7.424,7.424,0,0,1,.041-1.124Z" transform="translate(-70.733 -83.093)" fill="#f5f5f5"/>
    <path id="Path_811" data-name="Path 811" d="M137.284,220.894a5.847,5.847,0,0,1,.069,1.124h-.131c-.1-3-.172-12.935-.172-24.713,0-7.1.055-13.535.069-18.266,0-2.289.055-4.137.076-5.516,0-.614.034-1.11.041-1.51a2.842,2.842,0,0,1,.048-.524,1.841,1.841,0,0,1,.048.524c0,.4,0,.9.048,1.51,0,1.379.041,3.248.076,5.516,0,4.73.041,11.163.069,18.266,0,11.777-.076,21.713-.172,24.713h-.131A7.426,7.426,0,0,1,137.284,220.894Z" transform="translate(-73.931 -83.093)" fill="#f5f5f5"/>
    <path id="Path_812" data-name="Path 812" d="M147.621,220.894a7.43,7.43,0,0,1,.062,1.124h-.131c-.1-3-.172-12.935-.172-24.713,0-7.1.055-13.535.069-18.266.034-2.289.062-4.137.076-5.516a13.675,13.675,0,0,1,.048-1.51,1.842,1.842,0,0,1,.048-.524,2.84,2.84,0,0,1,.048.524c0,.4,0,.9.041,1.51,0,1.379.041,3.248.076,5.516,0,4.73.041,11.163.069,18.266,0,11.777-.076,21.713-.172,24.713h-.131A5.845,5.845,0,0,1,147.621,220.894Z" transform="translate(-77.138 -83.093)" fill="#f5f5f5"/>
    <path id="Path_813" data-name="Path 813" d="M157.967,220.894a7.426,7.426,0,0,1,.062,1.124h-.1c-.1-3-.165-12.935-.165-24.713,0-7.1.048-13.535.069-18.266,0-2.289.055-4.137.076-5.516,0-.614,0-1.11.041-1.51a2.227,2.227,0,0,1,.048-.524,2.227,2.227,0,0,1,.048.524c0,.4,0,.9.041,1.51,0,1.379.048,3.248.076,5.516,0,4.73.041,11.163.069,18.266,0,11.777-.069,21.713-.172,24.713h-.131A6.7,6.7,0,0,1,157.967,220.894Z" transform="translate(-80.361 -83.093)" fill="#f5f5f5"/>
    <path id="Path_814" data-name="Path 814" d="M168.284,220.894a6.7,6.7,0,0,1,.069,1.124h-.131c-.1-3-.172-12.935-.172-24.713,0-7.1.048-13.535.069-18.266,0-2.289.055-4.137.076-5.516,0-.614.034-1.11.041-1.51a2.227,2.227,0,0,1,.048-.524,2.227,2.227,0,0,1,.048.524c0,.4,0,.9.041,1.51,0,1.379.048,3.248.076,5.516,0,4.73.041,11.163.069,18.266,0,11.777-.069,21.713-.165,24.713h-.131A7.426,7.426,0,0,1,168.284,220.894Z" transform="translate(-83.556 -83.093)" fill="#f5f5f5"/>
    <path id="Path_815" data-name="Path 815" d="M178.614,220.894a5.848,5.848,0,0,1,.069,1.124h-.131c-.1-3-.172-12.935-.172-24.713,0-7.1.055-13.535.069-18.266.034-2.289.055-4.137.076-5.516,0-.614,0-1.11.041-1.51a2.842,2.842,0,0,1,.048-.524,1.842,1.842,0,0,1,.048.524c0,.4,0,.9.048,1.51,0,1.379.041,3.248.076,5.516,0,4.73.041,11.163.069,18.266,0,11.777-.076,21.713-.172,24.713h-.131a7.426,7.426,0,0,1,.062-1.124Z" transform="translate(-86.763 -83.093)" fill="#f5f5f5"/>
  </g>
  <g id="freepik--Character--inject-205" transform="translate(36.762 4.542)">
    <path id="Path_816" data-name="Path 816" d="M263.363,90.663l-5.371,48.4c-.917,8.233-3.944,20.134-16.886,18.1h0c-11.1-2.62-12.77-13.639-11.908-21.32.407-3.641.738-6.682.758-7.054,0,0-12.191-2.531-11.722-14.825.228-5.937,1.682-18.141,3.13-29.16a22.906,22.906,0,0,1,23.871-19.886l1.186.055C259.164,66.344,265.1,77.962,263.363,90.663Z" transform="translate(-135.894 -54.538)" fill="#936760"/>
    <path id="Path_817" data-name="Path 817" d="M235.1,155.79a29.7,29.7,0,0,0,16.231-3.93s-4.351,8.778-16.549,7.054Z" transform="translate(-141.035 -81.541)" fill="#6f4c47"/>
    <path id="Path_818" data-name="Path 818" d="M251.994,103.952c.214.276,1.758-.69,3.8-.483s3.448,1.379,3.689,1.152c.124-.11-.076-.586-.69-1.138a5.158,5.158,0,0,0-2.924-1.234,4.965,4.965,0,0,0-3.055.69C252.173,103.387,251.918,103.828,251.994,103.952Z" transform="translate(-146.376 -66.13)" fill="#263238"/>
    <path id="Path_819" data-name="Path 819" d="M251.369,110.211a1.669,1.669,0,0,0,1.517,1.758,1.593,1.593,0,0,0,1.786-1.414,1.662,1.662,0,0,0-1.517-1.751,1.593,1.593,0,0,0-1.786,1.407Z" transform="translate(-146.185 -68.169)" fill="#263238"/>
    <path id="Path_820" data-name="Path 820" d="M239.966,117.341a11.851,11.851,0,0,0-3.034-.69c-.483-.076-.931-.193-1-.524a2.448,2.448,0,0,1,.393-1.379l1.613-3.6c2.241-5.13,3.889-9.357,3.682-9.44s-2.193,3.992-4.434,9.122q-.821,1.889-1.551,3.62a2.758,2.758,0,0,0-.345,1.882,1.193,1.193,0,0,0,.758.745,2.972,2.972,0,0,0,.814.152A14.082,14.082,0,0,0,239.966,117.341Z" transform="translate(-141.181 -65.97)" fill="#263238"/>
    <path id="Path_821" data-name="Path 821" d="M254.668,93.258c.145.476,1.813.338,3.758.69s3.5.972,3.772.565c.131-.2-.124-.69-.738-1.138a6.206,6.206,0,0,0-2.758-1.158,6.04,6.04,0,0,0-2.972.214C254.992,92.686,254.612,93.031,254.668,93.258Z" transform="translate(-147.208 -62.994)" fill="#263238"/>
    <path id="Path_822" data-name="Path 822" d="M226.876,93.253c.172.393,1.813.179,3.744.359s3.51.627,3.758.262c.11-.172-.165-.538-.8-.917a6.812,6.812,0,0,0-2.758-.821,7.04,7.04,0,0,0-2.924.345C227.159,92.722,226.807,93.06,226.876,93.253Z" transform="translate(-138.579 -62.988)" fill="#263238"/>
    <path id="Path_823" data-name="Path 823" d="M281.083,115.272c.214-.083,8.571-2.069,7.881,6.316S280,127.545,280,127.3,281.083,115.272,281.083,115.272Z" transform="translate(-155.075 -70.099)" fill="#936760"/>
    <path id="Path_824" data-name="Path 824" d="M284.086,125.608c.041,0,.138.117.379.248a1.448,1.448,0,0,0,1.089.11c.91-.248,1.772-1.593,1.938-3.1a4.827,4.827,0,0,0-.234-2.124,1.7,1.7,0,0,0-1.007-1.214.752.752,0,0,0-.9.331c-.131.221-.09.393-.138.407s-.165-.159-.069-.5a.9.9,0,0,1,.372-.5,1.1,1.1,0,0,1,.821-.152,2.069,2.069,0,0,1,1.42,1.427,4.9,4.9,0,0,1,.317,2.379c-.193,1.689-1.186,3.2-2.427,3.448a1.586,1.586,0,0,1-1.324-.331C284.086,125.815,284.059,125.622,284.086,125.608Z" transform="translate(-156.341 -71.368)" fill="#6f4c47"/>
    <path id="Path_825" data-name="Path 825" d="M243.909,130.932c-.062-.221,1.634-.51,2.972-1.9a9.49,9.49,0,0,0,1.42-2.034c.317-.579.552-.938.641-.9s0,.448-.207,1.089a6.151,6.151,0,0,1-1.379,2.3,4.985,4.985,0,0,1-2.331,1.379C244.357,131.042,243.923,131.008,243.909,130.932Z" transform="translate(-143.869 -73.541)" fill="#263238"/>
    <path id="Path_826" data-name="Path 826" d="M225.991,100.122c.214.276,1.758-.69,3.8-.483s3.448,1.379,3.689,1.145c.124-.1-.076-.579-.69-1.131a5.109,5.109,0,0,0-2.924-1.234,4.965,4.965,0,0,0-3.055.69C226.15,99.557,225.895,100,225.991,100.122Z" transform="translate(-138.301 -64.941)" fill="#263238"/>
    <path id="Path_827" data-name="Path 827" d="M225.8,107.065a1.669,1.669,0,0,0,1.517,1.758,1.593,1.593,0,0,0,1.786-1.379,1.648,1.648,0,0,0-1.51-1.751,1.586,1.586,0,0,0-1.793,1.372Z" transform="translate(-138.246 -67.202)" fill="#263238"/>
    <path id="Path_828" data-name="Path 828" d="M267.956,87.548c-.614,2.337-2.069,7.668-4.137,7.192-4.137-.938-3.9,5.7-5.9,4.916s-2.469-6.054-2.241-8.157c.689-6.571,3.213-11.288.434-18.79a10,10,0,0,0-8.46-4.985,10.17,10.17,0,0,0-8.647,4.827c-.428-2.3-1.627-5.744-3.7-6.806a5.957,5.957,0,0,0-6.55.69,4.827,4.827,0,0,0-.69,6.323,2.324,2.324,0,0,1-2.613-.876,3.951,3.951,0,0,0,1.1,2.944,3.627,3.627,0,0,1-2.124-1.379l.69,2.841c-3.448.172-6.957-3.11-7.992-6.082-1.565-4.509-.545-9.116,1.9-13.211a14.27,14.27,0,0,1,11.722-7.116c4.827-.069,8.819,2.1,10.757,6.461,3.048-2.262,9.3-3.165,12.784-1.676a11.15,11.15,0,0,1,6.55,8.674,6.657,6.657,0,0,1,6.6,1.124l.448.372a9.915,9.915,0,0,1,3.089,9.081c-.221,1.324-.648,2.7-.89,3.772C269.266,80.853,267.956,87.548,267.956,87.548Z" transform="translate(-135.322 -49.878)" fill="#263238"/>
    <path id="Path_829" data-name="Path 829" d="M227.561,76.059a1.886,1.886,0,0,1-.283-.214,4.827,4.827,0,0,1-.69-.731,6.9,6.9,0,0,1-1.441-3.448,6.585,6.585,0,0,1,1.5-5.24,7.116,7.116,0,0,1,6.151-2.482,7.874,7.874,0,0,1,3.317,1.214,10.619,10.619,0,0,1,2.475,2.158,12.894,12.894,0,0,1,2.6,4.827,12.673,12.673,0,0,1,.49,3.689,6.58,6.58,0,0,1-.076,1.007,1.456,1.456,0,0,1-.062.345,15.384,15.384,0,0,0-.593-4.971,12.99,12.99,0,0,0-2.613-4.716,9.115,9.115,0,0,0-5.578-3.234,6.854,6.854,0,0,0-5.854,2.344,6.378,6.378,0,0,0-1.5,4.992A7.075,7.075,0,0,0,226.685,75C227.2,75.728,227.581,76.031,227.561,76.059Z" transform="translate(-138.022 -54.233)" fill="#455a64"/>
    <path id="Path_830" data-name="Path 830" d="M224.876,78.642a1.978,1.978,0,0,1-.255-.386c-.159-.262-.386-.69-.69-1.158a25.2,25.2,0,0,1-2.013-4.482,12.936,12.936,0,0,1-.614-3.358,9.481,9.481,0,0,1,.614-3.875A7.488,7.488,0,0,1,224.628,62a9.074,9.074,0,0,1,4.378-1.558,11.032,11.032,0,0,1,4.606.627,14.425,14.425,0,0,1,3.813,2.069A11.226,11.226,0,0,1,241.673,69a8.192,8.192,0,0,1-.131,4.889,6.634,6.634,0,0,1-.579,1.207,2.756,2.756,0,0,1-.276.379,10.767,10.767,0,0,0,.69-1.634,8.212,8.212,0,0,0,0-4.772,11.081,11.081,0,0,0-4.2-5.661,12.411,12.411,0,0,0-8.109-2.586,8.847,8.847,0,0,0-4.213,1.5,7.206,7.206,0,0,0-2.6,3.213,9.254,9.254,0,0,0-.627,3.737,12.949,12.949,0,0,0,.558,3.3,27.823,27.823,0,0,0,1.9,4.489l.6,1.193a2.464,2.464,0,0,1,.193.4Z" transform="translate(-136.848 -53.149)" fill="#455a64"/>
    <path id="Path_831" data-name="Path 831" d="M286.849,90.078c-.041-.055.738-.627,1.7-1.827a11.9,11.9,0,0,0,2.069-11.239c-.476-1.462-1-2.275-.938-2.3s.165.172.393.552a9.938,9.938,0,0,1,.786,1.669,11.467,11.467,0,0,1-2.11,11.487,10.344,10.344,0,0,1-1.324,1.283A2.386,2.386,0,0,1,286.849,90.078Z" transform="translate(-157.201 -57.586)" fill="#455a64"/>
    <path id="Path_832" data-name="Path 832" d="M276.12,90.83c0-.034.4-.193,1.034-.648a5.9,5.9,0,0,0,1.993-2.51l.317-.786-.055.848c-.076,1.145-.165,2.462-.255,3.9l-.269-.152a10.688,10.688,0,0,0,4.31-6.978,10.991,10.991,0,0,0-.11-3.82,15.062,15.062,0,0,0-1.227-3.33,1.082,1.082,0,0,1,.159.2,6.581,6.581,0,0,1,.372.607,9.969,9.969,0,0,1,.938,2.468,10.626,10.626,0,0,1-4.247,11.129l-.3.207V91.6l.324-3.889.269.062a5.8,5.8,0,0,1-2.158,2.537,4.882,4.882,0,0,1-.814.421,1.255,1.255,0,0,1-.283.1Z" transform="translate(-153.87 -58.407)" fill="#455a64"/>
    <path id="Path_833" data-name="Path 833" d="M265.732,70.356a7.812,7.812,0,0,0-1.938-2.3,6.847,6.847,0,0,0-2.951-1.269,7.268,7.268,0,0,0-3.9.441,8.4,8.4,0,0,0-3.22,2.289,9.943,9.943,0,0,0-1.7,2.758,19.773,19.773,0,0,0-.821,2.93,2.8,2.8,0,0,1,.041-.827,10.079,10.079,0,0,1,.538-2.193,9.908,9.908,0,0,1,1.689-2.91,8.564,8.564,0,0,1,3.337-2.406,7.488,7.488,0,0,1,4.1-.434,6.9,6.9,0,0,1,3.048,1.42,6.034,6.034,0,0,1,1.462,1.731,5.015,5.015,0,0,1,.262.559.6.6,0,0,1,.055.207Z" transform="translate(-146.13 -54.985)" fill="#455a64"/>
    <path id="Path_834" data-name="Path 834" d="M263.648,62.694a11.963,11.963,0,0,0-2.289-.814,8.136,8.136,0,0,0-5.516.917,10.17,10.17,0,0,0-3.854,4.2c-.69,1.324-.876,2.241-.938,2.22a1.924,1.924,0,0,1,.1-.648,10.2,10.2,0,0,1,.607-1.689,9.784,9.784,0,0,1,3.889-4.358,8.012,8.012,0,0,1,5.792-.855,6.205,6.205,0,0,1,1.676.69,2.221,2.221,0,0,1,.531.338Z" transform="translate(-146.087 -53.474)" fill="#455a64"/>
    <path id="Path_835" data-name="Path 835" d="M193.932,336.516l77.047,1.048s21.548-9.019,27.471-9.26,17.672.51,23.106,9.26c5.62,9.047,6.406,25-10.908,36.593-16.866,11.294-93.975,21.727-104.546,20.768L186.63,368.765s-.2-21.437,0-22.458,3.448-10.2,3.448-10.2Z" transform="translate(-126.058 -136.311)" fill="#263238"/>
    <path id="Path_836" data-name="Path 836" d="M260.1,392.71l39.93,14.832-18.2,49.763c-4.647-2.027-4.778-31.263-4.778-31.263l-25.974-8.454Z" transform="translate(-146.096 -156.319)" fill="#ff725e"/>
    <g id="Group_81" data-name="Group 81" transform="translate(134.075 252.685)" opacity="0.6">
      <path id="Path_837" data-name="Path 837" d="M293.622,417.2a2.165,2.165,0,0,1,2.834-.559,2.069,2.069,0,0,1,.579,2.8,2.282,2.282,0,0,1-3.006.579,2.162,2.162,0,0,1-.276-2.986" transform="translate(-293.27 -416.34)" fill="#fff"/>
    </g>
    <path id="Path_838" data-name="Path 838" d="M313.063,413.531,309.029,412,293.06,460.4s.152,2.572,1.807,2.889Z" transform="translate(-159.13 -162.308)" fill="#263238"/>
    <path id="Path_839" data-name="Path 839" d="M287.958,440.45c.248.083.8-1.089,2.02-2s2.475-1.172,2.462-1.434-1.551-.407-3.006.69S287.682,440.395,287.958,440.45Z" transform="translate(-157.517 -170.017)" fill="#263238"/>
    <path id="Path_840" data-name="Path 840" d="M288.3,449.766c.214.138,1.007-.758,2.337-1.207s2.5-.3,2.586-.538-1.241-.9-2.882-.317S288.08,449.676,288.3,449.766Z" transform="translate(-157.639 -173.32)" fill="#263238"/>
    <path id="Path_841" data-name="Path 841" d="M293.606,458.021c.138-.2-.958-.986-2.517-.848s-2.5,1.083-2.338,1.262,1.131-.269,2.413-.365S293.5,458.255,293.606,458.021Z" transform="translate(-157.786 -176.328)" fill="#263238"/>
    <path id="Path_842" data-name="Path 842" d="M279.548,436.049c.255,0,.331-1.262.924-2.6s1.42-2.255,1.262-2.455-1.379.51-2.069,2.069S279.314,436.1,279.548,436.049Z" transform="translate(-154.844 -168.195)" fill="#263238"/>
    <path id="Path_843" data-name="Path 843" d="M270.856,429.578a5.011,5.011,0,0,0,.9-2.5,12.322,12.322,0,0,0,.152-2.9,14.1,14.1,0,0,0-.234-1.71,3.447,3.447,0,0,0-.317-.965,1.117,1.117,0,0,0-1.248-.586,1.414,1.414,0,0,0-.945.862,3.655,3.655,0,0,0-.214.979,9.308,9.308,0,0,0-.034,1.745,9.2,9.2,0,0,0,.69,2.855c.648,1.545,1.379,2.269,1.489,2.206s-.441-.924-.889-2.42a10.465,10.465,0,0,1-.441-2.682,9.654,9.654,0,0,1,.083-1.593c.055-.579.214-1.027.5-1.076.11,0,.145,0,.262.159a2.964,2.964,0,0,1,.228.69,13.871,13.871,0,0,1,.269,1.586,14.924,14.924,0,0,1,.041,2.758A25.583,25.583,0,0,0,270.856,429.578Z" transform="translate(-151.627 -165.067)" fill="#263238"/>
    <path id="Path_844" data-name="Path 844" d="M268.515,432.2c.069-.069-.627-.869-2.172-1.538a8.579,8.579,0,0,0-2.848-.69,8.968,8.968,0,0,0-1.751.083,2.186,2.186,0,0,0-1.834,1.131,1.227,1.227,0,0,0,.31,1.289,3.544,3.544,0,0,0,.821.593,5.847,5.847,0,0,0,1.682.614,5.964,5.964,0,0,0,2.958-.124c1.648-.5,2.31-1.379,2.234-1.455a13.516,13.516,0,0,1-2.379.841,6.206,6.206,0,0,1-2.634-.069,5.784,5.784,0,0,1-1.42-.572c-.5-.276-.855-.627-.731-.807a1.907,1.907,0,0,1,1.138-.572,8.879,8.879,0,0,1,1.572-.124,9.868,9.868,0,0,1,2.668.427C267.611,431.733,268.425,432.326,268.515,432.2Z" transform="translate(-148.816 -167.885)" fill="#263238"/>
    <path id="Path_845" data-name="Path 845" d="M199.013,383.79,160.4,401.718,182.465,449.9c4.468-2.386,2.3-31.546,2.3-31.546L210,407.889Z" transform="translate(-117.942 -153.549)" fill="#ff725e"/>
    <g id="Group_82" data-name="Group 82" transform="translate(58.43 248.215)" opacity="0.6">
      <path id="Path_846" data-name="Path 846" d="M187.2,410.59a2.165,2.165,0,0,0-2.868-.338,2.069,2.069,0,0,0-.352,2.841,2.278,2.278,0,0,0,3.034.338,2.153,2.153,0,0,0,.041-2.992" transform="translate(-183.564 -409.858)" fill="#fff"/>
    </g>
    <path id="Path_847" data-name="Path 847" d="M160.37,408.967l3.9-1.807,19.727,46.97s.048,2.572-1.572,3.02Z" transform="translate(-117.933 -160.805)" fill="#263238"/>
    <path id="Path_848" data-name="Path 848" d="M194.437,433.387c-.241.1-.889-1.027-2.172-1.841s-2.558-.972-2.565-1.234,1.517-.531,3.055.483S194.671,433.339,194.437,433.387Z" transform="translate(-127.039 -167.918)" fill="#263238"/>
    <path id="Path_849" data-name="Path 849" d="M194.615,442.682c-.207.159-1.069-.69-2.434-1.02s-2.517-.1-2.613-.331,1.165-1,2.848-.545S194.836,442.572,194.615,442.682Z" transform="translate(-126.996 -171.201)" fill="#263238"/>
    <path id="Path_850" data-name="Path 850" d="M189.994,451.308c-.145-.193.876-1.062,2.441-1.048s2.586.883,2.434,1.076-1.152-.179-2.434-.172S190.139,451.529,189.994,451.308Z" transform="translate(-127.126 -174.187)" fill="#263238"/>
    <path id="Path_851" data-name="Path 851" d="M203.354,428.289c-.262,0-.428-1.234-1.131-2.517s-1.593-2.138-1.441-2.351,1.434.4,2.241,1.931S203.589,428.317,203.354,428.289Z" transform="translate(-130.475 -165.841)" fill="#263238"/>
    <path id="Path_852" data-name="Path 852" d="M211.386,421.076a4.746,4.746,0,0,1-1.089-2.42,11.8,11.8,0,0,1-.386-2.882,13.556,13.556,0,0,1,.1-1.717,3.2,3.2,0,0,1,.234-.993,1.117,1.117,0,0,1,1.2-.69,1.379,1.379,0,0,1,1.014.779,3.587,3.587,0,0,1,.269,1.027,9.571,9.571,0,0,1,.172,1.738,9.46,9.46,0,0,1-.441,2.889c-.524,1.593-1.227,2.379-1.31,2.317s.359-.952.69-2.482a10.432,10.432,0,0,0,.228-2.7,9.358,9.358,0,0,0-.207-1.586c-.1-.565-.29-1.007-.579-1.034-.11,0-.145,0-.248.179a2.821,2.821,0,0,0-.165.69,13.358,13.358,0,0,0-.145,1.607,14.434,14.434,0,0,0,.172,2.758A17.969,17.969,0,0,1,211.386,421.076Z" transform="translate(-133.314 -162.42)" fill="#263238"/>
    <path id="Path_853" data-name="Path 853" d="M211.357,423.624c-.076-.069.552-.924,2.034-1.7a8.557,8.557,0,0,1,4.544-.931,2.193,2.193,0,0,1,1.924.979,1.248,1.248,0,0,1-.214,1.317,3.62,3.62,0,0,1-.772.655,5.937,5.937,0,0,1-1.627.745,6.069,6.069,0,0,1-2.958.11c-1.682-.372-2.413-1.22-2.344-1.282a12.547,12.547,0,0,0,2.441.69,6.151,6.151,0,0,0,2.62-.276,5.425,5.425,0,0,0,1.379-.69c.476-.31.807-.69.69-.855a1.5,1.5,0,0,0-1.172-.483,8.123,8.123,0,0,0-1.586,0,9.481,9.481,0,0,0-2.62.634C212.212,423.058,211.447,423.748,211.357,423.624Z" transform="translate(-133.761 -165.092)" fill="#263238"/>
    <path id="Path_854" data-name="Path 854" d="M162.864,334.7s-33.276-12.411-45.509-10.826c-6.847.9-17.555,6.13-18.376,14.908s1.331,20.52,13.17,26.236,59.1,26.926,70.331,30.187,39.2,10.915,39.2,10.915l10.632-30.339s-58.023-20.093-61.085-22.341-10.819-5.3-10.819-5.3Z" transform="translate(-98.825 -134.904)" fill="#263238"/>
    <path id="Path_855" data-name="Path 855" d="M319.81,344.675l-.234-.055-.69-.207c-.586-.172-1.455-.428-2.586-.69A28.188,28.188,0,0,0,306.53,343a33.028,33.028,0,0,0-6.661,1.269,23.51,23.51,0,0,0-3.51,1.379l-3.62,1.772c-4.978,2.379-10.543,4.827-16.459,7.15-11.86,4.751-23.244,7.006-31.36,8.853-4.068.9-7.364,1.641-9.653,2.179l-2.613.621-.69.152-.234.041a.69.69,0,0,1,.221-.076l.69-.186c.593-.159,1.462-.407,2.6-.69,2.255-.579,5.516-1.379,9.605-2.289,8.109-1.91,19.458-4.2,31.277-8.964,5.916-2.337,11.474-4.758,16.452-7.123l3.627-1.751a23.652,23.652,0,0,1,3.565-1.379,32.083,32.083,0,0,1,6.723-1.234,27.582,27.582,0,0,1,9.867.841c1.131.29,1.993.565,2.579.765l.655.241Z" transform="translate(-140.088 -140.76)" fill="#455a64"/>
    <path id="Path_856" data-name="Path 856" d="M348.842,338.852c0,.062-1.014-.124-2.641-.3a39.674,39.674,0,0,0-12.722.655c-1.607.338-2.586.621-2.6.565a2.936,2.936,0,0,1,.69-.269c.434-.152,1.076-.345,1.875-.545a33.1,33.1,0,0,1,6.378-.952,33.852,33.852,0,0,1,6.433.29c.82.124,1.476.248,1.924.352A3.251,3.251,0,0,1,348.842,338.852Z" transform="translate(-170.872 -139.323)" fill="#455a64"/>
    <path id="Path_857" data-name="Path 857" d="M162.719,349.317c-.034.048-.958-.69-2.551-1.648a33.634,33.634,0,0,0-13.7-4.827c-1.862-.234-3.027-.255-3.027-.317a3.45,3.45,0,0,1,.821-.048,18.17,18.17,0,0,1,2.234.11,30.153,30.153,0,0,1,13.79,4.875,20.817,20.817,0,0,1,1.807,1.317A3.122,3.122,0,0,1,162.719,349.317Z" transform="translate(-112.677 -140.721)" fill="#455a64"/>
    <path id="Path_858" data-name="Path 858" d="M178.6,390.312l.262.1.752.317c.69.276,1.641.731,2.944,1.234,2.593,1.027,6.419,2.434,11.336,4.054,9.826,3.206,23.954,7.3,40.861,11.556l-.186.1,10.288-28.553.1.228-12.742-5.234-70.49-29.036h0c-2.868-3.034-5.516-5.709-7.985-7.874a54.118,54.118,0,0,0-6.7-5.04,49.173,49.173,0,0,0-4.592-2.558l-1.234-.579-.414-.207.427.179,1.248.545a44.812,44.812,0,0,1,4.634,2.51,52.823,52.823,0,0,1,6.75,5.013c2.5,2.151,5.151,4.827,8.033,7.847h-.041l70.5,28.85L245.091,379l.152.062-.055.165-10.343,28.539-.048.138-.145-.034c-16.907-4.289-31.029-8.426-40.847-11.722-4.909-1.641-8.729-3.082-11.315-4.137-1.3-.51-2.262-.986-2.924-1.276l-.745-.338Z" transform="translate(-111.857 -136.482)" fill="#455a64"/>
    <path id="Path_859" data-name="Path 859" d="M304.527,185.83s9.584,5.516,11.529,12c1.179,3.937,10.115,54.314,11.529,64.243s-1.572,17.293-5.806,20.589-17.079,7.681-17.079,7.681L286.668,296.2l-5.178-13.184,17.169-24.671-1.648-16.666Z" transform="translate(-155.538 -92.088)" fill="#ff725e"/>
    <path id="Path_860" data-name="Path 860" d="M235.785,170.885l-7.2-4.137s-6.557,7.668-15.5,6.73a22.547,22.547,0,0,1-14.252-7.757l-26.671,5.427h0c-1.786.359-5.047,1.489-8.171,5.951-3.482,4.971-20,27.029-20,27.029H132.467a8.571,8.571,0,0,0-7.585,4.579c-1.972,3.757-4.337,8.777-4.137,10.859.393,3.523-.29,13.184,4.434,16.2,1.5.958,6.847,3.827,11.032,3.634,6.13-.29,13.253-3.482,17.355-6.351,3.448-2.434,11.55-10.832,14.659-14.108v.069l2,69.952,69.918-1.986L254.623,179.6S236.488,170.885,235.785,170.885Z" transform="translate(-105.627 -85.844)" fill="#ff725e"/>
    <path id="Path_861" data-name="Path 861" d="M189.213,200.4c.1,0,.283,8.667.407,19.362s.152,19.369.048,19.369-.283-8.667-.407-19.362S189.116,200.4,189.213,200.4Z" transform="translate(-126.869 -96.611)" fill="#263238"/>
    <path id="Path_862" data-name="Path 862" d="M312.274,282.41s-.593.1-1.648.3a20.4,20.4,0,0,0-4.33,1.379,28.223,28.223,0,0,0-5.764,3.482,50.213,50.213,0,0,0-6.075,5.62c-2,2.158-3.82,4.289-5.516,6.206a67.314,67.314,0,0,1-4.765,4.827,34.865,34.865,0,0,1-3.579,2.868c-.441.31-.807.517-1.048.69a1.766,1.766,0,0,1-.379.207,2.163,2.163,0,0,1,.338-.269c.228-.172.579-.4,1.007-.731A38.694,38.694,0,0,0,284,304.047c1.414-1.31,2.993-2.979,4.689-4.889s3.517-4.047,5.516-6.206a49.166,49.166,0,0,1,6.137-5.633,27.429,27.429,0,0,1,5.861-3.448,18.915,18.915,0,0,1,4.406-1.283c.538-.1.958-.1,1.241-.138A1.722,1.722,0,0,1,312.274,282.41Z" transform="translate(-154.817 -122.073)" fill="#263238"/>
    <path id="Path_863" data-name="Path 863" d="M322.23,275.537c0,.062-1.062.214-2.758.69a25.257,25.257,0,0,0-11.453,6.819c-1.2,1.248-1.841,2.117-1.889,2.069a3.107,3.107,0,0,1,.4-.641,15.749,15.749,0,0,1,1.3-1.607,22.934,22.934,0,0,1,11.57-6.9,18.278,18.278,0,0,1,2.034-.379,2.869,2.869,0,0,1,.793-.055Z" transform="translate(-163.188 -119.937)" fill="#263238"/>
    <g id="Group_83" data-name="Group 83" transform="translate(28.909 118.965)" opacity="0.3">
      <path id="Path_864" data-name="Path 864" d="M140.75,246.764c3.7,1.007,8.143-4.316,11.508-7.647,1.745-1.738,3.565-3.586,4.213-5.964a9.474,9.474,0,0,0-.586-5.964,21.768,21.768,0,0,0-2.462-4.778c.31,2.875,1.02,7.274.055,10.888-.807,3.013-2.717,5.406-4.744,7.681-2.138,2.406-4.675,4.93-7.985,5.785" transform="translate(-140.75 -222.41)"/>
    </g>
    <path id="Path_865" data-name="Path 865" d="M162.162,243.632c-.069,0,.359-1.22.69-3.227a23.9,23.9,0,0,0,.338-3.551,26.2,26.2,0,0,0-.29-4.351,26.731,26.731,0,0,0-1.062-4.234,24.414,24.414,0,0,0-1.42-3.275c-.945-1.807-1.724-2.813-1.669-2.855a3.8,3.8,0,0,1,.572.69,8.388,8.388,0,0,1,.6.855c.221.345.483.731.724,1.186a22.532,22.532,0,0,1,1.5,3.282,24.63,24.63,0,0,1,1.1,4.289,24.223,24.223,0,0,1,.269,4.42,21.1,21.1,0,0,1-.421,3.592c-.083.51-.214.952-.317,1.379a10.036,10.036,0,0,1-.3,1,4.529,4.529,0,0,1-.317.8Z" transform="translate(-117.429 -103.361)" fill="#263238"/>
    <path id="Path_866" data-name="Path 866" d="M236.824,169.64c.048.09-.772.565-1.627,1.338a19.085,19.085,0,0,1-1.517,1.462,5.206,5.206,0,0,1,3.144-2.8Z" transform="translate(-140.694 -87.061)" fill="#263238"/>
    <path id="Path_867" data-name="Path 867" d="M247.852,175.77c.076.076-.627.827-1.193,1.944s-.779,2.124-.883,2.069a3.875,3.875,0,0,1,.565-2.269A3.916,3.916,0,0,1,247.852,175.77Z" transform="translate(-144.447 -88.964)" fill="#263238"/>
    <path id="Path_868" data-name="Path 868" d="M266.189,180.245a11.382,11.382,0,0,1-.8-2.069,10.486,10.486,0,0,1-.69-2.117,5.351,5.351,0,0,1,1.048,2,5.158,5.158,0,0,1,.441,2.186Z" transform="translate(-150.325 -89.054)" fill="#263238"/>
    <path id="Path_869" data-name="Path 869" d="M277.215,174.528c-.11,0-.379-1.193-1.172-2.482s-1.731-2.1-1.655-2.186a6.094,6.094,0,0,1,2.827,4.668Z" transform="translate(-153.331 -87.129)" fill="#263238"/>
    <path id="Path_870" data-name="Path 870" d="M309.328,209.49c.1,0-1.083,9.571-2.641,21.341s-2.9,21.306-3,21.292,1.083-9.564,2.641-21.341S309.231,209.476,309.328,209.49Z" transform="translate(-162.428 -99.433)" fill="#263238"/>
    <path id="Path_871" data-name="Path 871" d="M153.22,231.93a5.948,5.948,0,0,1,0,.986,7.585,7.585,0,0,1-.145,1.151c-.041.228-.076.462-.124.69s-.124.51-.2.786a21.188,21.188,0,0,1-1.379,3.758,26.106,26.106,0,0,1-2.572,4.172,22.133,22.133,0,0,1-3.448,3.517,14.941,14.941,0,0,1-3.448,2.069c-.269.1-.517.221-.758.31l-.69.193-.607.165c-.186.041-.365.048-.524.076a6.138,6.138,0,0,1-.986.076,17.787,17.787,0,0,0,3.448-1.055,15.632,15.632,0,0,0,3.324-2.069,23.017,23.017,0,0,0,3.337-3.448,26.731,26.731,0,0,0,2.551-4.1,22.946,22.946,0,0,0,1.434-3.682,35.588,35.588,0,0,0,.786-3.6Z" transform="translate(-111.093 -106.4)" fill="#263238"/>
    <g id="Group_84" data-name="Group 84" transform="translate(63.226 152.089)" opacity="0.3">
      <path id="Path_872" data-name="Path 872" d="M271.946,323.853c2.965-1.434,3.641-5.275,3.944-8.557q1.324-14.4,2.655-28.829c.421-4.516.621-9.653-2.565-12.908-2.91-2.951-7.536-3.124-11.681-3.11-25.581.069-48.177.821-73.779.889l1.3,44.757Z" transform="translate(-190.52 -270.449)"/>
    </g>
    <path id="Path_873" data-name="Path 873" d="M174.548,280.011l2.724,51.907a3.792,3.792,0,0,0,3.806,3.572l82.688.145a3.8,3.8,0,0,0,3.806-3.586l3.151-51.025c.11-2.124-1.379-4.944-3.544-4.985H178.43a3.786,3.786,0,0,0-3.882,3.972Z" transform="translate(-122.333 -120.095)" fill="#e0e0e0"/>
    <path id="Path_874" data-name="Path 874" d="M174.544,279.945v-.193a3.089,3.089,0,0,1,0-.579,3.751,3.751,0,0,1,.979-2.02,3.847,3.847,0,0,1,1.379-.945,4.888,4.888,0,0,1,2-.276h5.027l32.035-.055,47.515-.048h3.379a2.944,2.944,0,0,1,1.7.434,4.248,4.248,0,0,1,1.262,1.241,5.944,5.944,0,0,1,1.041,3.351c-.069,1.152-.138,2.317-.207,3.489q-.434,7.006-.883,14.294c-.593,9.715-1.214,19.769-1.855,30.07l-.117,1.931c-.055.641-.041,1.262-.159,1.938a3.965,3.965,0,0,1-2.5,2.93,4.688,4.688,0,0,1-1.938.255H242.676l-28.064-.062-25.4-.062h-7.261c-.476,0-.945,0-1.441-.048a3.937,3.937,0,0,1-2.475-1.379,3.992,3.992,0,0,1-.924-2.613c-.048-.9-.09-1.793-.138-2.675-.09-1.772-.179-3.5-.269-5.185-.69-13.508-1.234-24.437-1.62-31.994-.179-3.772-.324-6.7-.421-8.7-.041-.993-.076-1.744-.1-2.262a5.4,5.4,0,0,1,0-.772,7.185,7.185,0,0,0,.062.772c.062.51.076,1.269.131,2.255.117,2,.283,4.93.5,8.7.407,7.585,1,18.486,1.731,31.987.09,1.689.186,3.413.283,5.185.041.883.09,1.772.138,2.675a3.723,3.723,0,0,0,.869,2.448,3.641,3.641,0,0,0,2.3,1.269,11.633,11.633,0,0,0,1.379.041H214.64l28.064.041h20.534a4.419,4.419,0,0,0,1.813-.234,3.6,3.6,0,0,0,2.269-2.661c.1-.586.1-1.262.152-1.889l.117-1.931c.641-10.3,1.262-20.355,1.869-30.063q.448-7.3.883-14.3c.076-1.165.145-2.324.214-3.482a5.613,5.613,0,0,0-.979-3.144,3.062,3.062,0,0,0-2.7-1.531H215.991l-32.035-.048h-5.027a4.827,4.827,0,0,0-1.965.255,3.765,3.765,0,0,0-2.358,2.889,7.017,7.017,0,0,0-.062.7Z" transform="translate(-122.329 -120.028)" fill="#263238"/>
    <circle id="Ellipse_39" data-name="Ellipse 39" cx="4.868" cy="4.868" r="4.868" transform="translate(96.048 180.367)" fill="#fff"/>
    <path id="Path_875" data-name="Path 875" d="M247.766,316.255a7.891,7.891,0,0,0-.221-1.172,4.827,4.827,0,0,0-1.779-2.6,4.64,4.64,0,0,0-2-.869,4.785,4.785,0,0,0-2.468.221,4.633,4.633,0,0,0-2.179,1.641,4.709,4.709,0,0,0,4.647,7.412,4.641,4.641,0,0,0,2-.869,4.827,4.827,0,0,0,1.779-2.593c.2-.738.186-1.179.221-1.172a.89.89,0,0,1,0,.31,3.531,3.531,0,0,1-.1.9,4.875,4.875,0,0,1-1.758,2.758,5.017,5.017,0,1,1-2.1-8.9,4.889,4.889,0,0,1,2.069.958,4.827,4.827,0,0,1,1.758,2.758,3.447,3.447,0,0,1,.1.889.951.951,0,0,1,.034.331Z" transform="translate(-141.982 -131.02)" fill="#263238"/>
    <path id="Path_876" data-name="Path 876" d="M178.58,290.13c.1,0,.51,8.722.91,19.486s.648,19.493.552,19.493-.49-8.729-.91-19.486S178.484,290.137,178.58,290.13Z" transform="translate(-123.58 -124.47)" fill="#263238"/>
    <path id="Path_877" data-name="Path 877" d="M140.69,176.687c-.49-.414,1.634-8.564,1.634-8.564s-5.613-9.15-5.758-12.1,2.213-9.005,2.213-9.005l16.087-4.137s5.171,9.6,6.206,12.991-1.772,14.908-1.772,14.908l-2.758,5.909S148.351,183.183,140.69,176.687Z" transform="translate(-110.541 -78.753)" fill="#936760"/>
    <path id="Path_878" data-name="Path 878" d="M135.273,148.9a36.5,36.5,0,0,1-1.7-3.579c-1.014-2.413-2.269-4.785,0-6.137A2.965,2.965,0,0,1,136,138.81s-.345-2.069.869-2.8a2.634,2.634,0,0,1,2.386-.207s-.386-2.868,1.379-4.082a4.234,4.234,0,0,1,4.454-.131s-1.379-12.556-1.5-13.218c-.441-2.441.462-4.606,2.889-4,.889.221,1.379,1.158,2.427,5.247s2.724,11.067,2.724,11.067,2.827,4.909,4.137,7.585,3.979,8.729,4.2,10.343c.565,4.137-1.869,9.653-1.869,9.653l-17.1.993Z" transform="translate(-109.219 -69.87)" fill="#936760"/>
    <path id="Path_879" data-name="Path 879" d="M136.927,150.64a14.963,14.963,0,0,1,1.324,1.848l1.379,2.069a9.356,9.356,0,0,1,.738,1.283,2.62,2.62,0,0,1,.2,1.634,1.655,1.655,0,0,1-1.083,1.269,2.131,2.131,0,0,1-1.531-.193,7.021,7.021,0,0,1-1.145-.69c-.331-.241-.641-.476-.917-.69-.559-.434-.986-.807-1.276-1.076s-.441-.421-.427-.441.69.5,1.855,1.31a14.265,14.265,0,0,0,2.069,1.3,1.834,1.834,0,0,0,1.289.159,1.289,1.289,0,0,0,.834-1.014,2.275,2.275,0,0,0-.172-1.379,9.393,9.393,0,0,0-.69-1.241l-1.289-2.069a14.175,14.175,0,0,1-1.158-2.075Z" transform="translate(-109.804 -81.162)" fill="#6f4c47"/>
    <path id="Path_880" data-name="Path 880" d="M158.465,150.485a5.937,5.937,0,0,1,.179-2.689,5.744,5.744,0,0,1,1.069-2.475c.1.048-.379,1.145-.69,2.558A19.774,19.774,0,0,1,158.465,150.485Z" transform="translate(-117.317 -79.51)" fill="#6f4c47"/>
    <path id="Path_881" data-name="Path 881" d="M160.669,156.611a11.349,11.349,0,0,0-5.723-2.986,21.5,21.5,0,0,0-6.516-.248c-1.738.159-3.73.607-4.516,2.165s.165,3.668,1.7,4.585a8.721,8.721,0,0,0,5.247.8,22.319,22.319,0,0,1,5.371-.221" transform="translate(-112.736 -81.968)" fill="#936760"/>
    <path id="Path_882" data-name="Path 882" d="M156.138,160.65a10.025,10.025,0,0,0-1.379,0A36.419,36.419,0,0,0,151.1,161a15.308,15.308,0,0,1-2.572.11,7.061,7.061,0,0,1-2.882-.724,4.461,4.461,0,0,1-2.138-2.489,3.448,3.448,0,0,1-.124-1.779,3.11,3.11,0,0,1,.945-1.586,6.206,6.206,0,0,1,3.289-1.276,28.227,28.227,0,0,1,3.248-.193,16.459,16.459,0,0,1,5.44.821,10.839,10.839,0,0,1,3.261,1.765,7,7,0,0,1,.752.69,1.331,1.331,0,0,1,.228.269s-.359-.324-1.062-.834a11.522,11.522,0,0,0-3.261-1.634,16.646,16.646,0,0,0-5.351-.731,28.96,28.96,0,0,0-3.206.214,5.84,5.84,0,0,0-3.1,1.193,2.7,2.7,0,0,0-.834,1.379,3.048,3.048,0,0,0,.1,1.593,4.137,4.137,0,0,0,1.965,2.31,6.716,6.716,0,0,0,2.758.69,15.856,15.856,0,0,0,2.524-.062,28.719,28.719,0,0,1,3.7-.241,9.775,9.775,0,0,1,1,.1,1.235,1.235,0,0,1,.359.076Z" transform="translate(-112.639 -81.912)" fill="#6f4c47"/>
    <path id="Path_883" data-name="Path 883" d="M138.34,150.5c1.8,2.758,3.386,5.737,4.9,8.633a5.3,5.3,0,0,0,1.724,2.234c.648.4,2.255-.324,2.979-.572L143,149.56" transform="translate(-111.093 -80.827)" fill="#936760"/>
    <path id="Path_884" data-name="Path 884" d="M143,149.56a5.039,5.039,0,0,1,.441.834l1.089,2.358c.917,2,2.172,4.827,3.572,7.978l.083.172-.186.069c-.531.186-1.1.428-1.724.586a3.868,3.868,0,0,1-.758.11,1.337,1.337,0,0,1-.4-.041.945.945,0,0,1-.372-.186,3.84,3.84,0,0,1-1-1.062c-.5-.8-.862-1.6-1.269-2.338-.772-1.5-1.482-2.834-2.1-3.951s-1.131-2.007-1.5-2.62a7.971,7.971,0,0,1-.538-.965,5.516,5.516,0,0,1,.655.9c.4.586.958,1.462,1.6,2.565s1.379,2.427,2.179,3.917c.407.738.786,1.551,1.269,2.3a3.647,3.647,0,0,0,.9.965,1.476,1.476,0,0,0,1.241.055c.586-.145,1.145-.379,1.7-.572l-.124.262c-1.379-3.179-2.606-6-3.448-8.026l-.993-2.4a5.458,5.458,0,0,1-.317-.91Z" transform="translate(-111.093 -80.827)" fill="#6f4c47"/>
    <path id="Path_885" data-name="Path 885" d="M143.17,143.729q2.379,5.978,4.765,11.949a8.122,8.122,0,0,0,1.282,2.4,2.758,2.758,0,0,0,2.4,1.041,2.809,2.809,0,0,0,2.117-2.758,8.874,8.874,0,0,0-.9-3.627,75.539,75.539,0,0,1-3.413-11.184" transform="translate(-112.593 -78.34)" fill="#936760"/>
    <path id="Path_886" data-name="Path 886" d="M149.436,141.56a2.571,2.571,0,0,1,.117.365c.076.276.165.627.283,1.055.248.917.607,2.241,1.11,3.861s1.152,3.53,1.972,5.613a11.722,11.722,0,0,1,1,3.448,3.778,3.778,0,0,1-.365,1.9,2.8,2.8,0,0,1-1.427,1.379,2.4,2.4,0,0,1-2.007-.165,3.765,3.765,0,0,1-1.379-1.324,21.325,21.325,0,0,1-1.441-3.248c-.814-2.069-1.545-3.958-2.172-5.551s-1.076-2.827-1.434-3.758l-.379-1.027a1.62,1.62,0,0,1-.1-.372,1.785,1.785,0,0,1,.172.345l.441,1c.379.924.9,2.186,1.538,3.717s1.379,3.448,2.248,5.516a21.238,21.238,0,0,0,1.427,3.172,3.386,3.386,0,0,0,1.276,1.2,2.069,2.069,0,0,0,1.71.145,2.434,2.434,0,0,0,1.241-1.22,3.4,3.4,0,0,0,.331-1.724,11.646,11.646,0,0,0-.958-3.317c-.807-2.069-1.434-4.034-1.9-5.661s-.8-2.979-1.007-3.9c-.1-.469-.172-.827-.214-1.076a1.221,1.221,0,0,1-.076-.372Z" transform="translate(-112.605 -78.343)" fill="#6f4c47"/>
    <path id="Path_887" data-name="Path 887" d="M138.591,184.371s-10.908,32.173-11.343,33.745,2.158,13.066,6.9,15.79,13.928-8.612,15.073-12.777,0-11.2,0-11.2l7.357-27.712" transform="translate(-107.635 -90.967)" fill="#936760"/>
    <path id="Path_888" data-name="Path 888" d="M156.946,176.081a2.069,2.069,0,0,1-1.027-.131,5.7,5.7,0,0,1-2.165-1.248,5.619,5.619,0,0,1-1.434-2.069,2.013,2.013,0,0,1-.221-1.014,9.281,9.281,0,0,0,1.9,2.806A9.116,9.116,0,0,0,156.946,176.081Z" transform="translate(-115.364 -87.676)" fill="#6f4c47"/>
  </g>
  <g id="freepik--Floor--inject-205" transform="translate(2.917 248.691)">
    <path id="Path_889" data-name="Path 889" d="M321.123,404.139c0,.1-60.754.186-135.685.186s-135.7-.083-135.7-.186,60.747-.179,135.7-.179S321.123,404.043,321.123,404.139Z" transform="translate(-49.74 -403.96)" fill="#263238"/>
  </g>
  <g id="freepik--Button--inject-205" transform="translate(4.696 6.695)">
    <rect id="Rectangle_256" data-name="Rectangle 256" width="84.681" height="28.753" rx="5.29" transform="translate(10.757 11.543)" fill="#ff725e"/>
    <path id="Path_890" data-name="Path 890" d="M156.275,98.44H81.854A3.9,3.9,0,0,1,78,94.551V73.479a3.9,3.9,0,0,1,3.889-3.889h74.386a3.9,3.9,0,0,1,3.889,3.889V94.551A3.9,3.9,0,0,1,156.275,98.44ZM81.854,70.28a3.206,3.206,0,0,0-3.165,3.2V94.551a3.2,3.2,0,0,0,3.2,3.2h74.386a3.2,3.2,0,0,0,3.2-3.2V73.479a3.206,3.206,0,0,0-3.2-3.2Z" transform="translate(-60.293 -58.151)" fill="#ff725e"/>
    <path id="Path_900" data-name="Path 900" d="M191.436,108.793a15.242,15.242,0,0,1-2.606-3.813,7.634,7.634,0,0,1,1.455,1.807,7.392,7.392,0,0,1,1.152,2.007Z" transform="translate(-94.703 -69.139)" fill="#ff725e"/>
    <path id="Path_901" data-name="Path 901" d="M194.735,75.629a18.121,18.121,0,0,1-2.282-2.841,19.355,19.355,0,0,1-1.993-3.048,18.119,18.119,0,0,1,2.282,2.841A18.777,18.777,0,0,1,194.735,75.629Z" transform="translate(-95.209 -58.197)" fill="#ff725e"/>
    <path id="Path_902" data-name="Path 902" d="M194.324,101.922a15.4,15.4,0,0,1-2.269-3.324c-.572-.952-1.076-1.82-1.427-2.455a5.185,5.185,0,0,1-.538-1.055,17.105,17.105,0,0,1,2.269,3.324c.572.952,1.076,1.82,1.434,2.455a4.9,4.9,0,0,1,.531,1.055Z" transform="translate(-95.094 -66.067)" fill="#ff725e"/>
    <path id="Path_903" data-name="Path 903" d="M194.641,92.949a19.374,19.374,0,0,1-2.427-3.579c-.614-1.027-1.158-1.958-1.545-2.641a6.144,6.144,0,0,1-.579-1.131,20.124,20.124,0,0,1,2.434,3.586c.614,1.02,1.151,1.958,1.538,2.634A5.86,5.86,0,0,1,194.641,92.949Z" transform="translate(-95.094 -63.121)" fill="#ff725e"/>
    <path id="Path_904" data-name="Path 904" d="M194.618,84.3a19.756,19.756,0,0,1-2.441-3.6c-.621-1.027-1.165-1.972-1.551-2.655a5.88,5.88,0,0,1-.586-1.138,19.976,19.976,0,0,1,2.441,3.606c.621,1.027,1.165,1.965,1.551,2.655A5.517,5.517,0,0,1,194.618,84.3Z" transform="translate(-95.079 -60.423)" fill="#ff725e"/>
    <path id="Path_905" data-name="Path 905" d="M60.987,75.179a27.63,27.63,0,0,1-4.378-.958,28.271,28.271,0,0,1-4.289-1.31,27.63,27.63,0,0,1,4.378.958,27.953,27.953,0,0,1,4.289,1.31Z" transform="translate(-52.32 -59.182)" fill="#263238"/>
    <path id="Path_906" data-name="Path 906" d="M62.1,63.819a67.79,67.79,0,0,1-4.585-5.3A66.605,66.605,0,0,1,53.21,53,69.386,69.386,0,0,1,57.8,58.309,69.4,69.4,0,0,1,62.1,63.819Z" transform="translate(-52.596 -53)" fill="#263238"/>
    <path id="Path_907" data-name="Path 907" d="M74.839,61.745a12.412,12.412,0,0,1-.945-3.634,11.867,11.867,0,0,1-.152-3.751c.1,0,.2,1.669.5,3.7S74.942,61.7,74.839,61.745Z" transform="translate(-58.945 -53.422)" fill="#263238"/>
    <text id="Apply" transform="translate(38.304 30.305)" fill="#f5f5f5" font-size="13" font-family="Tahoma"><tspan x="0" y="0">Apply</tspan></text>
  </g>
</svg>
