<svg xmlns="http://www.w3.org/2000/svg" width="823.01" height="797.433" viewBox="0 0 823.01 797.433">
  <g id="Business_deal-cuate" data-name="Business deal-cuate" transform="translate(0 0)">
    <g id="freepik--background-complete--inject-12" transform="translate(28.343)">
      <circle id="Ellipse_40" data-name="Ellipse 40" cx="50.489" cy="50.489" r="50.489" transform="matrix(0.16, -0.987, 0.987, 0.16, 429.83, 99.685)" fill="#ebebeb"/>
      <circle id="Ellipse_41" data-name="Ellipse 41" cx="48.044" cy="48.044" r="48.044" transform="matrix(0.161, -0.987, 0.987, 0.161, 435.216, 100.721)" fill="#dbdbdb"/>
      <circle id="Ellipse_42" data-name="Ellipse 42" cx="45.214" cy="45.214" r="45.214" transform="translate(434.129 35.269) rotate(-22.225)" fill="#fff"/>
      <rect id="Rectangle_257" data-name="Rectangle 257" width="1.151" height="6.831" transform="translate(489.836 19.316)" fill="#ebebeb"/>
      <rect id="Rectangle_258" data-name="Rectangle 258" width="1.151" height="6.831" transform="matrix(0.866, -0.5, 0.5, 0.866, 469.059, 25.251)" fill="#ebebeb"/>
      <rect id="Rectangle_259" data-name="Rectangle 259" width="1.155" height="6.855" transform="translate(454.532 38.566) rotate(-60.113)" fill="#ebebeb"/>
      <rect id="Rectangle_260" data-name="Rectangle 260" width="6.831" height="1.151" transform="translate(448.679 60.491)" fill="#ebebeb"/>
      <rect id="Rectangle_261" data-name="Rectangle 261" width="6.831" height="1.151" transform="translate(453.995 81.467) rotate(-30.01)" fill="#ebebeb"/>
      <rect id="Rectangle_262" data-name="Rectangle 262" width="6.831" height="1.151" transform="translate(469.052 96.914) rotate(-60.03)" fill="#ebebeb"/>
      <rect id="Rectangle_263" data-name="Rectangle 263" width="1.151" height="6.831" transform="translate(489.836 95.986)" fill="#ebebeb"/>
      <rect id="Rectangle_264" data-name="Rectangle 264" width="1.151" height="6.831" transform="translate(507.394 91.642) rotate(-30)" fill="#ebebeb"/>
      <rect id="Rectangle_265" data-name="Rectangle 265" width="1.151" height="6.812" transform="translate(520.348 79.022) rotate(-60)" fill="#ebebeb"/>
      <rect id="Rectangle_266" data-name="Rectangle 266" width="6.831" height="1.151" transform="translate(525.331 60.491)" fill="#ebebeb"/>
      <rect id="Rectangle_267" data-name="Rectangle 267" width="6.812" height="1.151" transform="translate(520.359 43.092) rotate(-30)" fill="#ebebeb"/>
      <rect id="Rectangle_268" data-name="Rectangle 268" width="6.831" height="1.151" transform="translate(507.415 30.569) rotate(-60.03)" fill="#ebebeb"/>
      <rect id="Rectangle_269" data-name="Rectangle 269" width="43.553" height="1.151" transform="translate(477.336 85.444) rotate(-63.04)" fill="#ebebeb"/>
      <rect id="Rectangle_270" data-name="Rectangle 270" width="1.528" height="42.892" transform="translate(486.614 45.892) rotate(-11.32)" fill="#dbdbdb"/>
      <path id="Path_908" data-name="Path 908" d="M379.286,430.683H55.32V56.56H379.286ZM62.849,423.135H371.737V64.108H62.868Z" transform="translate(-36.752 -44.792)" fill="#ebebeb"/>
      <rect id="Rectangle_271" data-name="Rectangle 271" width="7.548" height="360.819" transform="translate(173.833 21.297)" fill="#ebebeb"/>
      <rect id="Rectangle_272" data-name="Rectangle 272" width="337.684" height="10.511" transform="translate(11.718 27.034)" fill="#ebebeb"/>
      <rect id="Rectangle_273" data-name="Rectangle 273" width="337.684" height="10.511" transform="translate(11.718 38.865)" fill="#ebebeb"/>
      <rect id="Rectangle_274" data-name="Rectangle 274" width="337.684" height="10.511" transform="translate(11.718 50.678)" fill="#ebebeb"/>
      <rect id="Rectangle_275" data-name="Rectangle 275" width="337.684" height="10.511" transform="translate(11.718 62.51)" fill="#ebebeb"/>
      <rect id="Rectangle_276" data-name="Rectangle 276" width="337.684" height="10.511" transform="translate(11.718 74.342)" fill="#ebebeb"/>
      <rect id="Rectangle_277" data-name="Rectangle 277" width="337.684" height="10.511" transform="translate(11.718 86.154)" fill="#ebebeb"/>
      <rect id="Rectangle_278" data-name="Rectangle 278" width="337.684" height="10.511" transform="translate(11.718 97.986)" fill="#ebebeb"/>
      <rect id="Rectangle_279" data-name="Rectangle 279" width="337.684" height="10.511" transform="translate(11.718 109.818)" fill="#ebebeb"/>
      <rect id="Rectangle_280" data-name="Rectangle 280" width="337.684" height="10.511" transform="translate(11.718 121.631)" fill="#ebebeb"/>
      <rect id="Rectangle_281" data-name="Rectangle 281" width="1.887" height="242.276" transform="translate(325.098 24.901)" fill="#263238"/>
      <path id="Path_909" data-name="Path 909" d="M223.179,201.094h-6.7l1.679-9.624h3.34Z" transform="translate(106.202 74.877)" fill="#263238"/>
      <rect id="Rectangle_282" data-name="Rectangle 282" width="1.887" height="350.478" transform="translate(331.891 24.901)" fill="#263238"/>
      <path id="Path_910" data-name="Path 910" d="M226.77,257.524h-6.68l1.661-9.624h3.359Z" transform="translate(109.405 124.932)" fill="#263238"/>
      <rect id="Rectangle_283" data-name="Rectangle 283" width="361.102" height="21.984" transform="translate(0 10.296)" fill="#dbdbdb"/>
      <rect id="Rectangle_284" data-name="Rectangle 284" width="203.573" height="256.353" transform="translate(577.658 96.873)" fill="#ebebeb"/>
      <rect id="Rectangle_285" data-name="Rectangle 285" width="152.453" height="4.85" transform="translate(602.869 149.842)" fill="#dbdbdb"/>
      <rect id="Rectangle_286" data-name="Rectangle 286" width="129.092" height="4.85" transform="translate(602.869 159.994)" fill="#dbdbdb"/>
      <rect id="Rectangle_287" data-name="Rectangle 287" width="98.446" height="4.85" transform="translate(602.869 170.127)" fill="#dbdbdb"/>
      <rect id="Rectangle_288" data-name="Rectangle 288" width="147.132" height="4.85" transform="translate(602.869 180.28)" fill="#dbdbdb"/>
      <rect id="Rectangle_289" data-name="Rectangle 289" width="134.621" height="4.85" transform="translate(602.869 190.413)" fill="#dbdbdb"/>
      <rect id="Rectangle_290" data-name="Rectangle 290" width="139.697" height="4.85" transform="translate(602.869 210.699)" fill="#dbdbdb"/>
      <rect id="Rectangle_291" data-name="Rectangle 291" width="53.516" height="4.85" transform="translate(602.869 220.851)" fill="#dbdbdb"/>
      <rect id="Rectangle_292" data-name="Rectangle 292" width="107.919" height="4.85" transform="translate(602.869 230.984)" fill="#dbdbdb"/>
      <rect id="Rectangle_293" data-name="Rectangle 293" width="147.132" height="4.85" transform="translate(602.869 241.136)" fill="#dbdbdb"/>
      <rect id="Rectangle_294" data-name="Rectangle 294" width="126.865" height="4.85" transform="translate(602.869 251.27)" fill="#dbdbdb"/>
      <rect id="Rectangle_295" data-name="Rectangle 295" width="137.47" height="4.85" transform="translate(602.869 271.555)" fill="#dbdbdb"/>
      <rect id="Rectangle_296" data-name="Rectangle 296" width="83.218" height="4.85" transform="translate(602.869 281.708)" fill="#dbdbdb"/>
      <rect id="Rectangle_297" data-name="Rectangle 297" width="83.218" height="4.85" transform="translate(602.869 312.41)" fill="#dbdbdb"/>
      <circle id="Ellipse_43" data-name="Ellipse 43" cx="15.417" cy="15.417" r="15.417" transform="translate(727.054 301.842)" fill="#fa5e1e"/>
      <path id="Path_911" data-name="Path 911" d="M380.743,112.13a8.341,8.341,0,0,1,5.114,1.755.566.566,0,0,1-.679.906,7.115,7.115,0,0,0-4.435-1.547,6.925,6.925,0,1,0,0,13.851,6.793,6.793,0,0,0,4.4-1.528.611.611,0,0,1,.793.925,8.416,8.416,0,0,1-5.114,1.717,8.039,8.039,0,0,1,0-16.077Z" transform="translate(244.845 4.5)" fill="#a6a6a6"/>
      <path id="Path_912" data-name="Path 912" d="M389.264,112.135a8.058,8.058,0,1,1-7.642,8.039,7.794,7.794,0,0,1,7.642-8.039Zm0,14.964a6.925,6.925,0,1,0-6.529-6.925,6.737,6.737,0,0,0,6.529,6.925Z" transform="translate(252.685 4.495)" fill="#a6a6a6"/>
      <path id="Path_913" data-name="Path 913" d="M393.01,114.556V127.52a.547.547,0,1,1-1.076,0V112.99a.528.528,0,0,1,.189-.6.566.566,0,0,1,.774.132l9.6,13.209V112.839a.547.547,0,1,1,1.095,0v14.587a.547.547,0,0,1-.566.547.528.528,0,0,1-.415-.208.151.151,0,0,1-.094-.094Z" transform="translate(261.809 4.64)" fill="#a6a6a6"/>
      <path id="Path_914" data-name="Path 914" d="M405.681,113.363h-4.774a.557.557,0,0,1,0-1.113H411.55a.557.557,0,0,1,0,1.113h-4.774v14.19a.547.547,0,1,1-1.094,0Z" transform="translate(269.31 4.606)" fill="#a6a6a6"/>
      <path id="Path_915" data-name="Path 915" d="M416.841,124.5a2.869,2.869,0,0,0-1.283-2.4,5.492,5.492,0,0,0-1.887-.793h-3.887v6.265a.566.566,0,0,1-1.113,0V112.817a.585.585,0,0,1,.491-.547h4.529a4.529,4.529,0,0,1,1.887,8.624.851.851,0,0,0,.226.113,4.057,4.057,0,0,1,2.132,3.529,6.284,6.284,0,0,0,.189,1.887.868.868,0,0,0,.226.377.6.6,0,0,1,.623.358.642.642,0,0,1-.359.736h-.321a1.245,1.245,0,0,1-1.019-.736,5.4,5.4,0,0,1-.434-2.661Zm-3.17-11.152h-3.906v6.831h4a3.416,3.416,0,0,0-.094-6.831Z" transform="translate(276.681 4.624)" fill="#a6a6a6"/>
      <path id="Path_916" data-name="Path 916" d="M425.438,123.944h-7.227l-1.4,3.774a.547.547,0,0,1-.51.359H416.1a.585.585,0,0,1-.321-.736l5.491-14.681a.6.6,0,0,1,.547-.34.566.566,0,0,1,.547.34l5.491,14.681a.585.585,0,0,1-.283.736h-.208a.585.585,0,0,1-.528-.359Zm-6.812-1.113h6.416l-3.208-8.511Z" transform="translate(282.954 4.668)" fill="#a6a6a6"/>
      <path id="Path_917" data-name="Path 917" d="M431.293,112.13a8.341,8.341,0,0,1,5.114,1.755.566.566,0,0,1-.679.906,7.114,7.114,0,0,0-4.435-1.547,6.925,6.925,0,1,0,0,13.851,6.793,6.793,0,0,0,4.4-1.529.611.611,0,0,1,.793.925,8.417,8.417,0,0,1-5.114,1.717,8.039,8.039,0,1,1,0-16.077Z" transform="translate(289.685 4.5)" fill="#a6a6a6"/>
      <path id="Path_918" data-name="Path 918" d="M437.5,113.363h-4.774a.557.557,0,0,1,0-1.113H443.37a.566.566,0,0,1,.547.547.547.547,0,0,1-.547.566H438.6v14.19a.547.547,0,1,1-1.094,0Z" transform="translate(297.535 4.606)" fill="#a6a6a6"/>
      <path id="Path_919" data-name="Path 919" d="M260.645,438.238h373.84l7.775-153.378H252.87Z" transform="translate(138.481 157.717)" fill="#ebebeb"/>
      <path id="Path_920" data-name="Path 920" d="M520.558,347.1h-156.3L361.33,293.85H523.973Zm-154.51-1.887H518.784l3.17-49.478H363.33Z" transform="translate(234.689 165.691)" fill="#dbdbdb"/>
      <path id="Path_921" data-name="Path 921" d="M514.539,377.123H367.256l-2.4-48.063H517.54Zm-145.49-1.887H512.766l2.774-44.289h-148.7Z" transform="translate(237.82 196.924)" fill="#dbdbdb"/>
      <path id="Path_922" data-name="Path 922" d="M425.389,317.041H399.122L397.48,304.19h29.57Zm-24.531-1.887H423.8l1.17-9.077H399.688Z" transform="translate(266.755 174.863)" fill="#dbdbdb"/>
      <path id="Path_923" data-name="Path 923" d="M425.389,351.241H399.122L397.48,338.39h29.57Zm-24.531-1.887H423.8l1.17-9.077H399.688Z" transform="translate(266.755 205.2)" fill="#dbdbdb"/>
      <path id="Path_924" data-name="Path 924" d="M423.138,347.1h-156.3L263.91,293.85H426.553Zm-154.51-1.887H421.364l3.114-49.478H265.967Z" transform="translate(148.274 165.691)" fill="#dbdbdb"/>
      <path id="Path_925" data-name="Path 925" d="M417.119,377.123H269.836l-2.4-48.063H420.12Zm-145.49-1.887H415.346l2.774-44.289h-148.7Z" transform="translate(151.406 196.924)" fill="#dbdbdb"/>
      <path id="Path_926" data-name="Path 926" d="M327.969,317.041H301.7L300.06,304.19h29.57Zm-24.531-1.887h22.927l1.17-9.077H302.249Z" transform="translate(180.34 174.863)" fill="#dbdbdb"/>
      <path id="Path_927" data-name="Path 927" d="M327.969,351.241H301.7L300.06,338.39h29.57Zm-24.531-1.887h22.927l1.17-9.077H302.249Z" transform="translate(180.34 205.2)" fill="#dbdbdb"/>
      <path id="Path_928" data-name="Path 928" d="M282.424,366.14l-2.359,16.719-4.718,33.57H266.12V366.14Z" transform="translate(150.235 229.815)" fill="#ebebeb"/>
      <path id="Path_929" data-name="Path 929" d="M282.424,366.14l-2.359,16.719H266.12V366.14Z" transform="translate(150.235 229.815)" fill="#dbdbdb"/>
      <path id="Path_930" data-name="Path 930" d="M437.33,366.14l2.34,16.719,4.736,33.57h9.228V366.14Z" transform="translate(302.103 229.815)" fill="#ebebeb"/>
      <path id="Path_931" data-name="Path 931" d="M437.33,366.14l2.34,16.719h13.964V366.14Z" transform="translate(302.103 229.815)" fill="#dbdbdb"/>
    </g>
    <g id="freepik--Shadow--inject-12" transform="translate(0 655.68)">
      <ellipse id="Ellipse_44" data-name="Ellipse 44" cx="340.496" cy="44.364" rx="340.496" ry="44.364" transform="translate(73.783 53.026)" fill="#ebebeb"/>
      <ellipse id="Ellipse_45" data-name="Ellipse 45" cx="101.937" cy="24.418" rx="101.937" ry="24.418" fill="#ebebeb"/>
    </g>
    <g id="freepik--Floor--inject-12" transform="translate(5.548 645.32)">
      <path id="Path_932" data-name="Path 932" d="M33.4,393.225l102.183-.453,102.183-.17,204.365-.3,204.365.3,102.183.17,102.183.453-102.183.472-102.183.17-204.365.3-204.365-.3-102.183-.17Z" transform="translate(-33.4 -392.3)" fill="#263238"/>
    </g>
    <g id="freepik--Plant--inject-12" transform="translate(10.983 212.114)">
      <path id="Path_933" data-name="Path 933" d="M105.195,251.747s-50.742-7.1-38.892-68.367C66.3,183.38,123.009,196.117,105.195,251.747Z" transform="translate(-11.24 -144.413)" fill="#fa5e1e"/>
      <path id="Path_934" data-name="Path 934" d="M105.195,251.747s-50.742-7.1-38.892-68.367C66.3,183.38,123.009,196.117,105.195,251.747Z" transform="translate(-11.24 -144.413)" opacity="0.1"/>
      <path id="Path_935" data-name="Path 935" d="M97.549,232.985a93.163,93.163,0,0,0-3.453-9.114,3.49,3.49,0,0,0-.132-1.17c0-.849-.151-1.679-.208-2.529-.151-1.887-.264-3.661-.377-5.491-.208-3.661-.434-7.322-.491-10.983,0-.208-.321-.189-.321,0v11c0,1.887.189,3.661.3,5.491v1.227a109.03,109.03,0,0,0-10.19-17.4,83.424,83.424,0,0,0-5.34-7.039c-2.019-2.321-4.151-4.529-6.208-6.812-.132-.151-.34,0-.208.226a90.068,90.068,0,0,1,9.775,13c1.547,2.321,3,4.718,4.4,7.152l-.472-.17-1.887-.736-4.151-1.566c-2.717-1.019-5.435-2-8.152-3.038-.17,0-.283.226-.113.283,2.7,1.076,5.359,2.208,8.039,3.359l3.925,1.7,1.981.811a5.663,5.663,0,0,0,1.34.472c1.019,1.887,2.038,3.68,2.982,5.567a132.635,132.635,0,0,1,6.189,14.625c.132.34.245.7.377,1.057a32.532,32.532,0,0,0-4.17-2.019l-5.246-2.378c-3.566-1.642-7.1-3.3-10.511-5.227a.152.152,0,0,0-.151.264c3.491,1.887,6.907,3.944,10.4,5.831,1.755.944,3.51,1.887,5.3,2.736A16.211,16.211,0,0,0,95.53,234a59.99,59.99,0,0,1,3.34,14.4c.566,6.925.509,13.907.679,20.852h.17c.51-6.3.793-12.662.83-18.984a55.309,55.309,0,0,0-3-17.285Z" transform="translate(-6.16 -138.445)" fill="#263238"/>
      <path id="Path_936" data-name="Path 936" d="M80.835,193.791a60.988,60.988,0,0,0-.51,10.813.076.076,0,0,0,.151,0c.208-3.585.245-7.171.66-10.737C81.155,193.678,80.853,193.6,80.835,193.791Z" transform="translate(2.742 -135.275)" fill="#263238"/>
      <path id="Path_937" data-name="Path 937" d="M76.055,196.89a40.268,40.268,0,0,1-6.529-3.208c-.17-.113-.321.17-.151.264a24.721,24.721,0,0,0,6.6,3.151C76.093,197.136,76.282,196.947,76.055,196.89Z" transform="translate(-6.99 -135.298)" fill="#263238"/>
      <path id="Path_938" data-name="Path 938" d="M88.978,332.018c0-5.661-.151-11.209-.208-16.813-.113-18.625-.264-37.25-.6-55.875q-.4-22.192-1.038-44.345a.227.227,0,0,0-.113-.189q0-6.057,0-12.115c0-.113-.113-.151-.245-.151s-.245,0-.226.151v12.134s-.132.094-.132.17c-.736,26.418-1.4,52.629-1.566,78.953V310q-.283,25.72-.208,51.478v8.19c0,15.7.17,31.4.17,47.176,0,.83.944,1.264,1.887,1.3s2.359-.415,2.359-1.378c0-17.3.113-34.627.113-51.931C89.11,353.851,89.11,342.925,88.978,332.018Z" transform="translate(6.601 -127.426)" fill="#263238"/>
      <path id="Path_939" data-name="Path 939" d="M110.667,266.873s-24.418-18.078-47.572-5.888S36.28,320.313,36.28,320.313s33.967,4.869,55.441-15.53C112.365,285.158,110.667,266.873,110.667,266.873Z" transform="translate(-36.28 -79.321)" fill="#fa5e1e"/>
      <path id="Path_940" data-name="Path 940" d="M109.876,264.635a29.21,29.21,0,0,0-14.134-1.887,19.961,19.961,0,0,0-2.982-.3l-3.453-.264-7.114-.491c-4.812-.358-9.643-.66-14.455-1.151a.17.17,0,0,0,0,.321c4.755.6,9.435,1.283,14.247,1.755,2.453.245,4.906.509,7.378.679l1.774.17c-.717.17-1.453.34-2.17.547A58.324,58.324,0,0,0,77.91,268.5c-1.887.34-3.774.887-5.661,1.321-3.019.717-6.02,1.491-9.02,2.283-5.925,1.547-11.794,3.3-17.681,5.02-.189,0-.094.34,0,.283,5.869-1.434,11.794-2.755,17.681-4.151L71.8,271.2l2.246-.528A72.216,72.216,0,0,0,56.7,285.77,95.318,95.318,0,0,0,44.66,304.81c0,.17.151.34.264.17a92.841,92.841,0,0,1,14.587-19.04c-.113.321-.208.661-.321.981l-1.359,4.3c-.906,2.887-1.887,5.755-2.68,8.643,0,.189.245.245.3,0,1.038-2.793,2.019-5.661,3-8.4.472-1.378.962-2.736,1.434-4.114q.4-1.076.736-2.151a2.584,2.584,0,0,1,.245-.66,88.8,88.8,0,0,1,8.643-7.378,66.8,66.8,0,0,1,12.964-7.416,5.6,5.6,0,0,1-.245,1.245c-.245,1.113-.491,2.227-.717,3.34-.472,2.3-.925,4.623-1.378,6.944-.925,4.718-1.491,9.435-2.378,14.228,0,.208.264.283.3,0,1.094-4.755,2.51-9.435,3.566-14.19.528-2.378,1.057-4.755,1.566-7.133l.679-3.359c.113-.623.264-1.245.34-1.887l1.321-.547c6.4-2.378,13.473-4.095,20.3-2.774a19.927,19.927,0,0,1,14.7,11.775c.226.528,1.057.189.925-.359C120.141,271.258,115.254,266.9,109.876,264.635Z" transform="translate(-28.847 -75.969)" fill="#263238"/>
      <path id="Path_941" data-name="Path 941" d="M61.185,273.422c-.679,3.095-1.378,6.189-2.057,9.284a67.181,67.181,0,0,0-1.7,9.02c0,.132.151.132.189,0a67.933,67.933,0,0,0,2.076-9.077c.6-3.057,1.208-6.114,1.793-9.171C61.525,273.309,61.223,273.233,61.185,273.422Z" transform="translate(-17.519 -64.641)" fill="#263238"/>
      <path id="Path_942" data-name="Path 942" d="M51.39,277.543c-3.114,1.566-6.114,3.359-9.435,4.661a.152.152,0,1,0,.113.283,98.909,98.909,0,0,0,9.492-4.831S51.56,277.505,51.39,277.543Z" transform="translate(-31.331 -60.893)" fill="#263238"/>
      <path id="Path_943" data-name="Path 943" d="M104.361,275.327s-29.834,1.887-43.723-17.757-10.756-47.78-10.756-47.78,31.344,3.774,43.779,17.946S104.361,275.327,104.361,275.327Z" transform="translate(-24.483 -120.986)" fill="#fa5e1e"/>
      <path id="Path_944" data-name="Path 944" d="M112.937,299.564c-1.038-3.189-2.321-6.34-3.529-9.435s-2.4-6-3.774-8.945a182.689,182.689,0,0,0-8.926-17.568c-2.113-3.623-4.378-7.152-6.7-10.624a11.451,11.451,0,0,0-.226-1.585c-.132-.925-.264-1.887-.415-2.774-.3-1.887-.623-3.774-.944-5.661-.679-4.133-1.528-8.227-2.189-12.341,0-.189-.34-.189-.3,0,.585,4.076,1,8.171,1.566,12.247.283,2,.547,4,.849,6l.34,2.17A211.889,211.889,0,0,0,73.932,231.9l-2.057-2.378c0-.226-.189-.453-.283-.679-.226-.566-.434-1.132-.642-1.717-.453-1.17-.868-2.359-1.3-3.548-.83-2.34-1.585-4.7-2.227-7.1,0-.189-.34-.094-.283,0,.6,2.453,1.227,4.887,1.887,7.3.359,1.17.736,2.321,1.151,3.472a1.722,1.722,0,0,0,.208.566c-3.774-4.151-7.793-8.152-11.813-12.115-.132-.132-.34,0-.208.226A214.064,214.064,0,0,1,79.5,241.821a17.956,17.956,0,0,0-2.208-.547c-2.3-.453-4.6-.774-6.925-1.076-4.869-.623-9.718-1.227-14.549-2-.208,0-.283.264,0,.3,4.623.906,9.19,1.887,13.794,3.019,2.17.491,4.34.906,6.51,1.34a40.744,40.744,0,0,1,5.246,1.491c.472.7.981,1.378,1.453,2.076,2.189,3.17,4.284,6.435,6.34,9.7l-3.038-.585c-2.3-.453-4.623-.868-6.925-1.245-4.548-.755-9.114-1.547-13.605-2.566-.189,0-.264.264,0,.3,4.567,1.076,9.077,2.321,13.605,3.529,2.189.585,4.4,1.113,6.6,1.6l3.3.717a7.553,7.553,0,0,0,1.359.226c4.359,7.057,8.435,14.3,12.228,21.682,1.661,3.246,3.265,6.529,4.812,9.813s2.963,6.85,4.435,10.284A.528.528,0,1,0,112.937,299.564Z" transform="translate(-19.114 -115.786)" fill="#263238"/>
      <path id="Path_945" data-name="Path 945" d="M70.87,227.851c-.566-2.849-1.17-5.661-1.887-8.529,0-.189-.34-.094-.3,0,.566,2.793,1.113,5.661,1.623,8.4a83.03,83.03,0,0,0,1.679,8.36h0a59.159,59.159,0,0,0-1.113-8.227Z" transform="translate(-7.542 -112.628)" fill="#263238"/>
      <path id="Path_946" data-name="Path 946" d="M64.951,225.15c-1.378-.7-2.849-1.245-4.284-1.887l-2.264-.887-1.151-.453a6.319,6.319,0,0,1-1.264-.566c-.226-.151-.359.226-.132.264a5.282,5.282,0,0,1,1.264.528l1.132.51,2.189.962a40.262,40.262,0,0,0,4.4,1.755C65.007,225.508,65.121,225.225,64.951,225.15Z" transform="translate(-19.02 -110.758)" fill="#263238"/>
      <path id="Path_947" data-name="Path 947" d="M94.79,250.7s18.059-33.721,45.515-38.948,44.289,23.041,44.289,23.041-20.04,25.588-45.289,30.06S94.79,250.7,94.79,250.7Z" transform="translate(15.62 -119.817)" fill="#fa5e1e"/>
      <path id="Path_948" data-name="Path 948" d="M167.575,224.223a73.594,73.594,0,0,0-21.55.264l1.227-.66,6.1-3.132a142.707,142.707,0,0,1,12.888-6.3c.208-.094,0-.377-.113-.283-4.3,2-8.756,3.774-13.058,5.661-2.17.981-4.284,2.019-6.378,3.132-1.359.717-2.849,1.4-4.189,2.264a75.252,75.252,0,0,0-17.455,5.793l3.434-3.774c2.547-2.812,5.076-5.755,7.888-8.3.151-.132,0-.34-.226-.208-2.868,2.6-5.906,5.02-8.7,7.737-1.34,1.321-2.642,2.68-3.906,4.095-.623.7-1.264,1.415-1.887,2.17A72.387,72.387,0,0,0,84.81,282.4c0,.189.245.283.3.094A83.03,83.03,0,0,1,105.3,248.321a79.387,79.387,0,0,1,36.835-21.191,80.481,80.481,0,0,1,25.4-2.3.3.3,0,1,0,.038-.6Z" transform="translate(6.768 -117.172)" fill="#263238"/>
      <path id="Path_949" data-name="Path 949" d="M183.84,225.36s-20.04,25.588-45.289,30.06c-19.229,3.4-35.042-6.623-41.515-11.568l-1.4-2.283s13-10.945,37.609-17.266S183.84,225.36,183.84,225.36Z" transform="translate(16.374 -110.383)" opacity="0.1"/>
      <path id="Path_950" data-name="Path 950" d="M125.58,213.1a67.921,67.921,0,0,0-6.1,4.019,40.327,40.327,0,0,0-5.3,4.85.17.17,0,0,0,.245.226c1.887-1.585,3.642-3.17,5.548-4.661a56.747,56.747,0,0,1,5.774-4.17.157.157,0,1,0-.17-.264Z" transform="translate(32.799 -118.071)" fill="#263238"/>
      <path id="Path_951" data-name="Path 951" d="M131.137,216.116c-1.019.434-2.057.793-3.076,1.227L125,218.606c-.208,0-.113.453.113.359l3.057-1.245c1.038-.415,2.038-.887,3.057-1.3C131.42,216.342,131.326,216.04,131.137,216.116Z" transform="translate(42.319 -115.386)" fill="#263238"/>
      <path id="Path_952" data-name="Path 952" d="M92.88,257.456s4.831,33.457,29.985,45.157,55.818,0,55.818,0S166.7,230.245,92.88,257.456Z" transform="translate(13.926 -84.132)" fill="#fa5e1e"/>
      <path id="Path_953" data-name="Path 953" d="M168.251,278.908c-2.3-.264-4.623-.66-6.907-1.076l-3.4-.642-1.755-.358c-.679-.623-1.34-1.264-2.038-1.887a102.884,102.884,0,0,0-15.4-11.152,86.471,86.471,0,0,0-9.209-4.736h.472l8.284.359c5.51.264,11.039.377,16.549.736.208,0,.189-.283,0-.3-5.548-.377-11.058-.981-16.587-1.453l-8.039-.717-4.151-.359-1.057-.113c-1.434-.547-2.868-1.057-4.34-1.51a39.175,39.175,0,0,0-21.3-1.17c-6.322,1.623-12.643,5.774-14.285,12.436,0,.226.3.4.4.17,2.359-5.661,8.548-8.4,14.134-9.548a33.966,33.966,0,0,1,11.322-.227,26.42,26.42,0,0,0,1.264,5.057c.7,2.359,1.378,4.718,2.095,7.057,1.434,4.7,3,9.435,4.4,14.058a.151.151,0,1,0,.3,0c-1.17-4.7-2.17-9.435-3.3-14.153-.547-2.3-1.132-4.6-1.7-6.907a42.313,42.313,0,0,0-1.264-4.755,58.51,58.51,0,0,1,6.529,1.529,95.106,95.106,0,0,1,11.322,4.189c.359,2.378.906,4.736,1.453,7.1.679,2.944,1.453,5.869,2.378,8.756a.151.151,0,0,0,.283,0l-.113-.547h0c-.566-2.736-1.17-5.472-1.755-8.209-.453-2.208-.887-4.416-1.359-6.6a101.92,101.92,0,0,1,9.171,4.642,13.41,13.41,0,0,0,.321,2c.189,1.132.4,2.283.6,3.434.472,2.566.981,5.152,1.6,7.7a122.543,122.543,0,0,0,4.321,14.549.151.151,0,0,0,0,.189l.151.17c.113.132.283,0,.245-.151-1.151-4.963-2.491-9.888-3.585-14.851-.528-2.491-1.076-4.982-1.585-7.548-.245-1.245-.472-2.491-.717-3.774l-.17-1.113a101.483,101.483,0,0,1,9.794,6.529,105.232,105.232,0,0,1,15,13.681c.17.208.528,0,.359-.3a91.729,91.729,0,0,0-5.982-7.3c-1.264-1.359-2.585-2.68-3.925-3.963h.415c1.189.208,2.359.377,3.548.528,2.321.321,4.661.547,7,.811C168.384,279.191,168.459,278.908,168.251,278.908Z" transform="translate(7.016 -82.147)" fill="#263238"/>
      <path id="Path_954" data-name="Path 954" d="M120.776,277.145h0a1.767,1.767,0,0,0-.151-.868,3.718,3.718,0,0,1-.3-1.094h0c-.51-2.246-.944-4.491-1.359-6.756,0-.151-.264-.113-.264,0a27.778,27.778,0,0,0,1.887,8.737c0,.094.208,0,.189,0Z" transform="translate(36.829 -69.062)" fill="#263238"/>
      <path id="Path_955" data-name="Path 955" d="M110.707,281.44a.148.148,0,0,0-.151-.151c-.717-2.963-1.4-5.925-2-8.907-.321-1.566-.642-3.133-.944-4.7-.17-.849-.321-1.7-.472-2.547a7.059,7.059,0,0,0-.547-2.17.151.151,0,0,0-.283,0,14.7,14.7,0,0,0,.642,4.491c.3,1.623.623,3.265.981,4.887.736,3.3,1.547,6.586,2.491,9.831a.17.17,0,0,0,.321,0Z" transform="translate(25.838 -73.904)" fill="#263238"/>
      <path id="Path_956" data-name="Path 956" d="M134.565,262.757c-4.6-.623-9.19-1.283-13.794-1.887-.189,0-.264.283,0,.3,4.585.679,9.19,1.245,13.794,1.887C134.565,263.1,134.659,262.795,134.565,262.757Z" transform="translate(38.514 -75.677)" fill="#263238"/>
      <path id="Path_957" data-name="Path 957" d="M86.693,257.591s-15.4-67.518,57.158-94.861C143.851,162.73,163.967,251.628,86.693,257.591Z" transform="translate(7.225 -162.73)" fill="#fa5e1e"/>
      <path id="Path_958" data-name="Path 958" d="M102.333,208.012l.774-.472,4.114-2.3,8.416-4.7c5.529-3.114,11-6.322,16.568-9.435.189,0,0-.359-.151-.264-5.661,3.038-11.322,5.888-16.889,8.85l-8.322,4.4-3.4,1.887c2.415-4.585,5-9.077,7.85-13.417a204.866,204.866,0,0,1,12.266-16.681.247.247,0,1,0-.359-.34A114.354,114.354,0,0,0,106.428,196.1v-.717c0-1.679.132-3.359.151-5.038,0-3.3-.113-6.6,0-9.888,0-.208-.3-.189-.321,0-.132,3.246-.528,6.491-.717,9.737,0,1.6-.151,3.227-.208,4.85v2.831q-2.227,3.566-4.284,7.227a126.793,126.793,0,0,0-6.491,13.605c0-1.679-.17-3.359-.264-5.038-.226-3.774-.66-7.378-.83-11.077a.151.151,0,0,0-.3,0v11.1c0,1.887.113,3.774.226,5.548a10.766,10.766,0,0,0,.132,2.057,123.537,123.537,0,0,0-5.472,18.568,194.61,194.61,0,0,0-2.7,20.4h0a107.411,107.411,0,0,1,3.774-18.172c.887-3.189,1.887-6.359,2.868-9.435,3.019-1.415,5.906-3.189,8.812-4.812l9.114-4.982c6.057-3.321,12.1-6.7,18.342-9.624.17,0,0-.359-.17-.264-6.322,2.849-12.7,5.661-18.87,8.7-3.095,1.566-6.133,3.227-9.152,4.925-2.51,1.415-5.114,2.831-7.548,4.472.7-2.113,1.434-4.208,2.246-6.265a175.483,175.483,0,0,1,7.567-16.795Z" transform="translate(7.247 -151.439)" fill="#263238"/>
      <path id="Path_959" data-name="Path 959" d="M91.261,184.574a.17.17,0,0,0-.321,0c.264,3.774.4,7.7.811,11.549a.17.17,0,1,0,.34,0C91.959,192.273,91.544,188.442,91.261,184.574Z" transform="translate(12.205 -143.455)" fill="#263238"/>
      <path id="Path_960" data-name="Path 960" d="M115.977,191.366c-4.529,1.887-9.114,3.566-13.643,5.453-.113,0,0,.264,0,.208,4.585-1.717,9.1-3.585,13.662-5.359C116.26,191.592,116.166,191.29,115.977,191.366Z" transform="translate(22.267 -137.34)" fill="#263238"/>
      <path id="Path_961" data-name="Path 961" d="M119.292,174.855a117.663,117.663,0,0,0-12.907,6.925.208.208,0,0,0,.208.34c4.208-2.472,8.492-4.831,12.851-7C119.632,175.138,119.462,174.779,119.292,174.855Z" transform="translate(25.858 -151.984)" fill="#263238"/>
      <rect id="Rectangle_298" data-name="Rectangle 298" width="104.636" height="110.297" transform="translate(39.401 240.898)" fill="#455a64"/>
      <rect id="Rectangle_299" data-name="Rectangle 299" width="5.359" height="188.93" transform="translate(32.212 279.941)" fill="#263238"/>
      <rect id="Rectangle_300" data-name="Rectangle 300" width="5.359" height="188.93" transform="translate(145.339 279.941)" fill="#263238"/>
      <rect id="Rectangle_301" data-name="Rectangle 301" width="5.359" height="188.93" transform="translate(91.615 279.941)" fill="#263238"/>
      <rect id="Rectangle_302" data-name="Rectangle 302" width="113.128" height="15.266" transform="translate(34.891 344.138)" fill="#263238"/>
    </g>
    <g id="freepik--Characters--inject-12" transform="translate(148.825 62.076)">
      <path id="Path_962" data-name="Path 962" d="M400.175,378.5v81.331c0,15.53-.132,29.155-.906,36.193a.113.113,0,0,1,0,.113,10.776,10.776,0,0,1-1.132,4.812l-.094.094c-4.6,3.151-128.771,7.416-133.149,6.1s-1-13.888,3.774-17.908,51.516-26.89,51.516-26.89l.774-81.237Z" transform="translate(26.865 178.702)" fill="#ad6359"/>
      <path id="Path_963" data-name="Path 963" d="M400.165,412.75v16.7c0,15.53-.132,29.155-.906,36.193a.113.113,0,0,1,0,.113,22.024,22.024,0,0,1-1.132,4.812l-.094.094c-4.6,3.151-128.771,7.416-133.149,6.1s-1-13.889,3.774-17.908,51.516-26.89,51.516-26.89l-.226-16.983Z" transform="translate(26.856 209.083)" fill="#c7c7c7"/>
      <path id="Path_964" data-name="Path 964" d="M264.889,469.236c4.378,1.321,128.545-2.925,133.168-6.1,1.774-1.17,2.208-19.3,2.113-41.213v-.7l-80.142,1.887.094,1.359s-46.8,22.89-51.516,26.909S260.492,467.972,264.889,469.236Z" transform="translate(26.851 216.605)" fill="#263238"/>
      <path id="Path_965" data-name="Path 965" d="M264.729,445.9c20.927-1.245,105.391-4.227,126.148-3.774.17,0,.17.113,0,.132-20.757,1.661-105.183,3.982-126.129,4.057C264.313,446.235,264.295,445.915,264.729,445.9Z" transform="translate(28.238 235.096)" fill="#455a64"/>
      <path id="Path_966" data-name="Path 966" d="M289.807,423.591c8.19-1.887,18.3-.906,24.8,4.755.264.226,0,.566-.321.491a116.294,116.294,0,0,0-24.4-4.208.528.528,0,0,1-.076-1.038Z" transform="translate(50.41 217.924)" fill="#455a64"/>
      <path id="Path_967" data-name="Path 967" d="M286.73,425.6c8.171-1.887,18.3-.906,24.8,4.755.245.208,0,.566-.34.491a115.889,115.889,0,0,0-24.4-4.208.528.528,0,0,1-.057-1.038Z" transform="translate(47.675 219.707)" fill="#455a64"/>
      <path id="Path_968" data-name="Path 968" d="M283.638,427.6c8.19-1.887,18.3-.887,24.8,4.755.264.226,0,.585-.321.509a116.32,116.32,0,0,0-24.4-4.227.528.528,0,0,1-.075-1.038Z" transform="translate(44.937 221.482)" fill="#455a64"/>
      <path id="Path_969" data-name="Path 969" d="M382.572,242.052l-.075,5.378-3.038,237.5-.019.906L377.647,628.1l-86.917-1.736,16.776-384.03.226-5.133.849-44.553h73.405Z" transform="translate(51.582 13.847)" fill="#455a64"/>
      <path id="Path_970" data-name="Path 970" d="M292.733,414.928c13.568-.132,9.662-.283,23.229-.245,6.642,0,50.289.17,56.479,1.264.132,0,.132.264,0,.283-6.227.944-49.855,0-56.5-.113-13.568-.283-9.662-.359-23.229-.793a.208.208,0,0,1,.019-.4Z" transform="translate(53.221 210.792)" fill="#263238"/>
      <path id="Path_971" data-name="Path 971" d="M318.9,232.141a.151.151,0,1,0-.3,0c0,22.739-.925,35.476-1.472,58.2s-1.208,45.44-1.887,68.141c-1.227,45.421-3.057,90.8-4.737,136.206q-1.415,38.194-3.529,76.349a.132.132,0,0,0,.264,0c3.3-45.289,6.454-90.728,8.265-136.149s3.095-90.823,3.3-136.244C318.99,273.146,318.839,257.635,318.9,232.141Z" transform="translate(65.988 48.743)" fill="#263238"/>
      <path id="Path_972" data-name="Path 972" d="M368.227,242.052l-3.095,242.88L306.88,192.65h60.762Z" transform="translate(65.908 13.847)" fill="#263238"/>
      <path id="Path_973" data-name="Path 973" d="M443.384,376.17s10.945,80.52,10.945,80.576c2.189,15.4,3.774,28.928,4,36v.113a11.04,11.04,0,0,1-.453,4.906,1.129,1.129,0,0,0,0,.113c-4.152,3.774-126.62,24.72-131.13,24s-2.849-13.624,1.245-18.248,47.421-33.589,47.421-33.589l-10.19-80.6Z" transform="translate(81.14 176.635)" fill="#ad6359"/>
      <path id="Path_974" data-name="Path 974" d="M452.083,410.11s2.246,16.474,2.246,16.53c2.189,15.4,3.774,28.928,4,36v.113a21.766,21.766,0,0,1-.453,4.906,1.112,1.112,0,0,0,0,.113c-4.151,3.774-126.62,24.72-131.13,24s-2.849-13.624,1.245-18.248,47.421-33.589,47.421-33.589l-2.585-16.832Z" transform="translate(81.14 206.741)" fill="#c7c7c7"/>
      <path id="Path_975" data-name="Path 975" d="M326.731,484.33c4.529.717,126.978-20.248,131.13-24,1.6-1.415-.415-19.418-3.472-41.137l-.113-.679-79.142,12.643.264,1.34s-43.289,28.985-47.421,33.608S322.126,483.594,326.731,484.33Z" transform="translate(81.081 214.192)" fill="#263238"/>
      <path id="Path_976" data-name="Path 976" d="M325.878,460.507c20.569-4.038,103.787-18.4,124.544-20.757.17,0,.189.094,0,.132-20.286,4.453-103.674,18.134-124.431,21.04C325.5,460.979,325.444,460.6,325.878,460.507Z" transform="translate(82.5 233.033)" fill="#455a64"/>
      <path id="Path_977" data-name="Path 977" d="M347.887,427.679c7.869-2.906,18.021-3.359,25.211,1.359.283.189,0,.585-.264.547a115.357,115.357,0,0,0-24.739-.887.528.528,0,0,1-.208-1.019Z" transform="translate(101.987 220.384)" fill="#455a64"/>
      <path id="Path_978" data-name="Path 978" d="M345.1,430.078c7.869-2.906,18.021-3.359,25.211,1.378.283.17,0,.566-.264.528A116.525,116.525,0,0,0,345.3,431.1a.528.528,0,0,1-.208-1.019Z" transform="translate(99.512 222.513)" fill="#455a64"/>
      <path id="Path_979" data-name="Path 979" d="M342.316,432.489c7.869-2.906,18-3.359,25.211,1.359.283.189,0,.585-.264.547a114.178,114.178,0,0,0-24.739-.887.528.528,0,0,1-.208-1.019Z" transform="translate(97.046 224.65)" fill="#455a64"/>
      <path id="Path_980" data-name="Path 980" d="M304.15,192.61h0c.321,1.51,5.454,25.324,10.775,45.779,3.868,14.945,7.85,28.079,10.133,29.438,2.585,1.529,15.191,7.114,19.418,8.869L363.78,461.3l26.1,170.927,85.332-13.209L414.485,244.937,404.6,192.61Z" transform="translate(63.486 13.812)" fill="#455a64"/>
      <path id="Path_981" data-name="Path 981" d="M349.894,421.654c13.4-2.151,9.435-1.736,22.946-3.774,6.567-.981,49.742-7.378,56.026-7.208a.134.134,0,0,1,0,.264c-6,1.887-49.289,7.548-55.875,8.378-13.455,1.736-9.6,1.094-23.078,2.7a.208.208,0,0,1-.019-.359Z" transform="translate(103.98 207.237)" fill="#263238"/>
      <path id="Path_982" data-name="Path 982" d="M402.027,530.614c-2.132-11.851-4.246-23.7-6.435-35.552q-6.548-35.552-13.209-71.084-13.36-71.122-26.418-142.358c-4.869-26.8-4.755-24.286-9-51.214,0-.17-.34-.151-.3,0,4.076,23.928,2.151,18.682,6,42.647s7.888,47.421,12.134,71.066c8.529,47.534,17.474,94.993,26.513,142.433q3.774,19.965,7.718,39.873c2.642,13.549,5.661,27.022,8.454,40.533,0,.3.547.283.491,0C406.008,554.863,404.235,542.71,402.027,530.614Z" transform="translate(101.193 47.232)" fill="#263238"/>
      <path id="Path_983" data-name="Path 983" d="M380.118,245.238c-2.264-.585-4.7-.774-7-1.132-1.887-.3-3.774-.642-5.661-1.038a24.286,24.286,0,0,1-9.85-4.151c-3.208-2.491-4.85-6.284-6.4-9.926q-1.4-3.227-2.831-6.454l-1.415-3.114a35.074,35.074,0,0,1-1.755-3.774c0-.189-.358,0-.283,0a22.126,22.126,0,0,1,.793,2.7c.321,1.038.6,2.076.925,3.114.585,1.887,1.151,3.774,1.755,5.661a44.011,44.011,0,0,0,3.944,9.775c3.434,5.435,9.548,7.642,15.662,8.416,1.755.208,3.529.34,5.3.434a37.6,37.6,0,0,0,6.68,0,.3.3,0,0,0,.132-.509Z" transform="translate(99.646 34.174)" fill="#263238"/>
      <path id="Path_984" data-name="Path 984" d="M312.029,230.75a163.365,163.365,0,0,1,25.984,12.115.291.291,0,1,1-.245.528c-8.756-3.774-17.681-7.359-26.211-11.586a.585.585,0,0,1,.472-1.057Z" transform="translate(69.817 47.624)" fill="#263238"/>
      <path id="Path_985" data-name="Path 985" d="M310.575,199.12c0-.3.566-.377.566,0a287.609,287.609,0,0,0,1.472,29.249c.4,4.51,4.019,29.419,11.851,27.607,1.3-.3,1.887-1.6,2.17-3.566a31.18,31.18,0,0,0-1.038-7.642c-.868-5.227-1.566-10.454-2-15.719a141.181,141.181,0,0,1,.321-29.475.245.245,0,1,1,.491,0,274.243,274.243,0,0,0,2.378,40.7c.981,6.473,4.246,16.229-2.529,17.229s-11.322-15.323-12.209-19.795a149.07,149.07,0,0,1-1.472-38.59Z" transform="translate(68.629 19.36)" fill="#263238"/>
      <path id="Path_986" data-name="Path 986" d="M318.362,229.716a45.017,45.017,0,0,1,1.755,5.17,11.775,11.775,0,0,1,.736,4.246.3.3,0,0,1-.547.113,14.492,14.492,0,0,1-1.887-4.133c-.6-1.585-1.227-3.189-1.774-4.793a.91.91,0,0,1,1.717-.6Z" transform="translate(74.523 46.186)" fill="#263238"/>
      <path id="Path_987" data-name="Path 987" d="M419.283,250.4c-10.341-.679-119.543-13.209-119.543-13.209l.849-44.553H408.584l9.888,52.327Z" transform="translate(59.575 13.839)" fill="#263238"/>
      <path id="Path_988" data-name="Path 988" d="M388,145.455c-12.492,39.1-33.646,79.463-39.76,87.407-16.4,21.361-65.669,42.4-80.708,45.119-6.51,1.17-22.116-40.817-18.078-46.591s65.272-29.173,68.273-32.287c2.076-2.17,27.909-35.457,45.289-55.535C384.73,118.6,391.279,135.228,388,145.455Z" transform="translate(14.382 -41.292)" fill="#ad6359"/>
      <path id="Path_989" data-name="Path 989" d="M256.07,224.168l24.192,49.063s51.422-22.286,63.668-38.194,34.438-69.82,37.741-86.992-2.4-29.438-25.4-4.34S314.209,193.806,310.1,198,256.07,224.168,256.07,224.168Z" transform="translate(20.838 -42.221)" fill="#ebebeb"/>
      <path id="Path_990" data-name="Path 990" d="M257.15,222.081l28.985,50.837s45.289-21.644,56.837-35.854,30.589-57.837,36.552-81.388,2.472-40.25-24.192-11.435-41.741,49.742-47.176,54.441C305.571,200.719,257.15,222.081,257.15,222.081Z" transform="translate(21.796 -42.624)" fill="#37474f"/>
      <circle id="Ellipse_46" data-name="Ellipse 46" cx="2.661" cy="2.661" r="2.661" transform="translate(288.494 178.834)" fill="#263238"/>
      <circle id="Ellipse_47" data-name="Ellipse 47" cx="2.661" cy="2.661" r="2.661" transform="translate(301.043 173.059)" fill="#263238"/>
      <path id="Path_991" data-name="Path 991" d="M351.911,155.633c-5.963,23.55-24.984,67.1-36.552,81.388-4.944,6.1-16,13.53-27.079,20.059l58.366-127.827C355.685,126.8,355.968,139.631,351.911,155.633Z" transform="translate(49.409 -42.656)" fill="#263238"/>
      <path id="Path_992" data-name="Path 992" d="M428.235,291.153c-.3.34-130.847.736-132.092-.6-1.68-1.887,27.815-143.414,41.213-160.794,2.849-3.774,12.3-4.774,20.342-3.774a35.476,35.476,0,0,1,6.189,1.264h.226a15.1,15.1,0,0,1,4.548,2.227c22.342,17.851,41.175,80.255,45.572,98.994C421.592,259.394,429.31,289.926,428.235,291.153Z" transform="translate(56.322 -45.613)" fill="#ebebeb"/>
      <path id="Path_993" data-name="Path 993" d="M340.506,126.78s-10.624,57.932-12.473,72.99.868,94.6.868,94.6l81.973,6.057s-17.719-52.648-17.927-55.988c0,0-14.719-63.065-28.513-89.408a94.029,94.029,0,0,0-23.928-28.249Z" transform="translate(84.1 -44.581)" fill="#37474f"/>
      <path id="Path_994" data-name="Path 994" d="M401.576,297.684,364.4,294.929,337.87,129.87h0v.113l16.644,21.323c.189.34.377.679.547,1.019,13.794,26.418,28.513,89.408,28.513,89.408C383.857,245.036,401.576,297.684,401.576,297.684Z" transform="translate(93.397 -41.84)" fill="#263238"/>
      <path id="Path_995" data-name="Path 995" d="M338.34,127.45s-8.7,58.668-9.643,63.517S314.582,291.49,314.582,291.49l-20.512.642,10.7-43.741S328.565,139.942,338.34,127.45Z" transform="translate(54.545 -43.987)" fill="#37474f"/>
      <path id="Path_996" data-name="Path 996" d="M330.142,149.832,324.33,138.51l-7.51,8.19,1.849,8.152,7.4.962Z" transform="translate(74.725 -34.176)" fill="#263238"/>
      <path id="Path_997" data-name="Path 997" d="M331.2,148.132l3.548,83.294-15.606,27.551-8.114-31,12.775-80.8Z" transform="translate(69.589 -26.495)" fill="#263238"/>
      <rect id="Rectangle_303" data-name="Rectangle 303" width="97.824" height="161.454" transform="translate(397.421 449.671) rotate(-89.94)" fill="#fa5e1e"/>
      <rect id="Rectangle_304" data-name="Rectangle 304" width="46.062" height="161.454" transform="translate(397.467 397.92) rotate(-89.94)" opacity="0.1"/>
      <rect id="Rectangle_305" data-name="Rectangle 305" width="169.097" height="45.647" transform="translate(562.765 383.267) rotate(-179.94)" fill="#fa5e1e"/>
      <path id="Path_998" data-name="Path 998" d="M343.938,248.28,343.9,274.3l12.247.019.019-14.813,46.7.057-.019,14.813H415.1l.019-26.041Z" transform="translate(98.746 63.193)" fill="#263238"/>
      <rect id="Rectangle_306" data-name="Rectangle 306" width="11.02" height="21.814" transform="translate(539.535 394.127) rotate(-179.94)" fill="#263238"/>
      <rect id="Rectangle_307" data-name="Rectangle 307" width="11.02" height="21.814" transform="translate(427.879 394.037) rotate(-179.94)" fill="#263238"/>
      <path id="Path_999" data-name="Path 999" d="M350.182,138.443c36.42,33.042,59.536,80.237,61.1,89.766,3.774,23.041,8.548,63.423,7.737,81.142-.3,6.567-50.063-1.4-49.969-8.416.321-21.965-2.6-70.273-2.736-71.122-.887-5.906-11.718-32.457-22.644-61.253S334.859,124.574,350.182,138.443Z" transform="translate(92.464 -38.846)" fill="#ad6359"/>
      <path id="Path_1000" data-name="Path 1000" d="M355.29,290.931a7.812,7.812,0,0,0,8.775-1.6,11.587,11.587,0,0,0,6.171,4.906c4.586,1.321,8.661-5.3,8.661-5.3a14.378,14.378,0,0,0,7.341,4.151c4.51.811,9.586-5.284,9.586-5.284a12.662,12.662,0,0,0,8.737-.415c4.7-2.208,8.68-15.681,9.661-23.437s-3.529-30.683-3.944-35.136l-49.742-6.68s-14.266,33.551-14.115,42.836C346.553,272.834,349.817,288.214,355.29,290.931Z" transform="translate(100.981 39.997)" fill="#ad6359"/>
      <path id="Path_1001" data-name="Path 1001" d="M356.192,269.422c-2.132-8.284-1.7-16.757-1.736-25.211a.151.151,0,1,1,.3,0c0,8.416,1.547,16.738,1.887,25.154a.228.228,0,0,1-.453.057Z" transform="translate(108.098 59.45)" fill="#263238"/>
      <path id="Path_1002" data-name="Path 1002" d="M363.429,268.918a22.322,22.322,0,0,1-.151-5.831c0-2.057.227-4.133.4-6.19q.491-6.189,1.264-12.341c0-.189.3-.189.283,0-.3,4.114-.547,8.227-.7,12.341,0,2.076-.113,4.133-.151,6.19a27.373,27.373,0,0,1-.377,5.831.3.3,0,0,1-.566,0Z" transform="translate(115.825 59.765)" fill="#263238"/>
      <path id="Path_1003" data-name="Path 1003" d="M372.67,267.365a15.947,15.947,0,0,1,.151-5.265c.189-1.887.359-3.774.528-5.661.34-3.774.66-7.548.849-11.322a.151.151,0,0,1,.3,0c-.189,3.774-.321,7.661-.528,11.492l-.34,5.661a14.794,14.794,0,0,1-.774,5.076.113.113,0,0,1-.189.019Z" transform="translate(124.133 60.261)" fill="#263238"/>
      <path id="Path_1004" data-name="Path 1004" d="M368.987,304.817l55.158,2.982s-4.076-60.385-8.454-77.161-41.741-72.688-63.8-92.955C331.133,118.6,331.133,134.475,339,156.836s27.343,76.406,28,80.35S368.987,304.817,368.987,304.817Z" transform="translate(90.095 -42.464)" fill="#37474f"/>
      <path id="Path_1005" data-name="Path 1005" d="M353.985,216.389c2.113-.189,4.246,0,6.359,0s4.227.094,6.34.189c4.076.17,8.152.415,12.228.679l12.209.811c4.208.283,8.511.359,12.681.981a.151.151,0,0,1,0,.283c-4.208.17-8.492-.208-12.7-.359l-12.454-.509c-4.152-.189-8.3-.4-12.454-.66-2.038-.113-4.076-.264-6.1-.491s-4.133-.245-6.133-.642A.143.143,0,0,1,353.985,216.389Z" transform="translate(107.569 34.831)" fill="#263238"/>
      <path id="Path_1006" data-name="Path 1006" d="M327.26,160.7c2.151-.094,16.436-11.322,20.757-19.965.3-.6-.811-6.756-1.793-14.285-.585-4.567-1.132-9.68-1.283-14.379,0-.962-3.246.925-3.246.925l-6.039,1.661L315.73,120.2a74.459,74.459,0,0,1,3.434,17.946,9.075,9.075,0,0,1-.132,1.887,2.1,2.1,0,0,1,0,.321C318.6,144.073,323.788,160.829,327.26,160.7Z" transform="translate(73.758 -57.873)" fill="#ad6359"/>
      <path id="Path_1007" data-name="Path 1007" d="M319.055,139.048a2.085,2.085,0,0,1,0,.321,16.1,16.1,0,0,0,3.038,0c19.814-1.094,21.456-26.418,21.456-26.418l-7.831.6L315.79,119.1a74.462,74.462,0,0,1,3.434,17.946,9.082,9.082,0,0,1-.17,2Z" transform="translate(73.811 -56.849)" fill="#263238"/>
      <path id="Path_1008" data-name="Path 1008" d="M352.359,97.053c4.755,9.831,3.963,40.515-2.359,48.308-9.133,11.322-26.418,14.926-36.608,3.4-9.869-11.152-8.114-51.12-.849-58.5C323.242,79.542,345.339,82.523,352.359,97.053Z" transform="translate(65.604 -82.674)" fill="#ad6359"/>
      <path id="Path_1009" data-name="Path 1009" d="M316.962,102.7s.151,0,.151.189c-.113,2.057.113,4.453,1.887,5.17v.113C316.793,107.814,316.528,104.644,316.962,102.7Z" transform="translate(74.696 -65.941)" fill="#263238"/>
      <path id="Path_1010" data-name="Path 1010" d="M318.835,101.582c3.321-.189,3.453,6.491.359,6.661S316.042,101.733,318.835,101.582Z" transform="translate(74.711 -66.936)" fill="#263238"/>
      <path id="Path_1011" data-name="Path 1011" d="M311.551,103s-.151.094-.151.189c.094,2.057-.132,4.453-2,5.17v.113C311.7,108.095,311.985,104.887,311.551,103Z" transform="translate(68.143 -65.675)" fill="#263238"/>
      <path id="Path_1012" data-name="Path 1012" d="M310.762,101.862c-3.321-.189-3.472,6.491-.377,6.661S313.517,102.126,310.762,101.862Z" transform="translate(67.046 -66.688)" fill="#263238"/>
      <path id="Path_1013" data-name="Path 1013" d="M321.74,102.142c-.925-.226-1.736-.566-2.6-.868a4.34,4.34,0,0,1-2.491-1.4,1.378,1.378,0,0,1,.208-1.7,3.491,3.491,0,0,1,3.51-.434,5.152,5.152,0,0,1,3,2.17,1.51,1.51,0,0,1-1.623,2.227Z" transform="translate(74.391 -70.591)" fill="#263238"/>
      <path id="Path_1014" data-name="Path 1014" d="M308.961,102.248a24.832,24.832,0,0,0,2.642-.736,4.491,4.491,0,0,0,2.547-1.264,1.4,1.4,0,0,0-.113-1.717,3.472,3.472,0,0,0-3.491-.6,5.114,5.114,0,0,0-3.095,2.019,1.51,1.51,0,0,0,1.51,2.3Z" transform="translate(66.205 -70.377)" fill="#263238"/>
      <path id="Path_1015" data-name="Path 1015" d="M319.968,112.869c-.491.491-.981,1.17-1.717,1.245a5.661,5.661,0,0,1-2.227-.491l-.094.113a2.793,2.793,0,0,0,2.642,1.076,2.208,2.208,0,0,0,1.585-1.887C320.195,112.831,320.044,112.793,319.968,112.869Z" transform="translate(73.936 -56.957)" fill="#263238"/>
      <path id="Path_1016" data-name="Path 1016" d="M322.511,120a7.019,7.019,0,0,1-4.642,3.208,8.7,8.7,0,0,1-2.529.17,2.06,2.06,0,0,1-.491,0H314.4a.51.51,0,0,1-.415-.453h0a.772.772,0,0,1,0-.208h0v-4.189c-.585.3-3.529,1.679-3.491.849a105.945,105.945,0,0,1,2.359-21.342.189.189,0,0,1,.378,0c0,6.642-1.208,13.209-1.321,19.889a12.454,12.454,0,0,1,3.3-1.076c.226,0-.3,4.68-.208,5.4a9.718,9.718,0,0,0,7.227-2.4C322.473,119.7,322.624,119.834,322.511,120Z" transform="translate(69.11 -70.243)" fill="#263238"/>
      <path id="Path_1017" data-name="Path 1017" d="M313.55,112.129a8.19,8.19,0,0,0,3.378,2.529,3.774,3.774,0,0,0,2.283.113c1.661-.472,1.661-1.887,1.34-3.283a8.962,8.962,0,0,0-.774-1.887,10.812,10.812,0,0,1-6.227,2.529Z" transform="translate(71.824 -59.82)" fill="#263238"/>
      <path id="Path_1018" data-name="Path 1018" d="M315.34,113.77a3.774,3.774,0,0,0,2.283.113c1.661-.472,1.661-1.887,1.34-3.283A3.925,3.925,0,0,0,315.34,113.77Z" transform="translate(73.412 -58.933)" fill="#ff9abb"/>
      <path id="Path_1019" data-name="Path 1019" d="M307.48,101.071c1.076-2.642,2.34-5.3,3.906-5.869s2.68,3.283,6.284,3.453c4.85.245,7.114-4.246,13.889-4.85,9.718-.868,14.153,7.19,14.662,21,.434,12.322,7.926,13.341,7.926,13.341s4-27.286-3.774-36.156S324.859,79.483,313.2,88.22C308.876,91.523,307.48,101.071,307.48,101.071Z" transform="translate(66.44 -83.22)" fill="#263238"/>
      <path id="Path_1020" data-name="Path 1020" d="M329.144,108.743s5.453-10.586,10.171-8.775,1.529,16.53-3.378,19.153a5.284,5.284,0,0,1-7.4-1.887Z" transform="translate(85.121 -68.549)" fill="#ad6359"/>
      <path id="Path_1021" data-name="Path 1021" d="M336.976,102.1s.113.094,0,.132c-3.416,1.887-4.869,5.548-5.661,9.209a2.906,2.906,0,0,1,4.227-1.378c.094,0,0,.208,0,.208a3.246,3.246,0,0,0-3.4,1.6,15.437,15.437,0,0,0-1.321,3.095c-.113.359-.736.264-.661-.132h0C329.371,110.158,332.089,103.232,336.976,102.1Z" transform="translate(86.441 -66.473)" fill="#263238"/>
      <path id="Path_1022" data-name="Path 1022" d="M319.306,129.324,326.42,146.8l21.588-22.078,6.152,7.058s-21.1,34.986-21.229,33.457l-7.208-14.983L315.4,160.706l.774-26.211Z" transform="translate(73.465 -46.409)" fill="#ebebeb"/>
      <path id="Path_1023" data-name="Path 1023" d="M315.371,143.6c.283-4.321.434-8.7.906-13a.152.152,0,0,1,.3,0c.868,4.17-.264,20.757-.245,24.664h0c.434-.453,9.567-9.19,9.662-9.058,1.566,2.378,6.85,13.209,7.208,14.285,3.34-5.567,16.115-25.8,20.078-31.061a.151.151,0,0,1,.245.151c-2.887,5.774-19.795,33.042-20.059,33.042a172.628,172.628,0,0,1-7.548-15.851c-1.547,1.887-10.775,11.794-10.813,11.152A137.6,137.6,0,0,1,315.371,143.6Z" transform="translate(73.136 -42.266)" fill="#263238"/>
      <path id="Path_1024" data-name="Path 1024" d="M194.01,138.051c23.739,46.855,47.855,159.567,50.1,174.645,1.529,10.247-52.346,19.512-52.346,12.417,0-9.1-10.869-115.486-9.831-157.529C182.5,144.391,189.1,128.37,194.01,138.051Z" transform="translate(-44.986 -37.132)" fill="#eb9481"/>
      <path id="Path_1025" data-name="Path 1025" d="M187.092,237.548c-.868,6.171,1.189,27.551,5.227,43.4,1.887,7.737,9.964,29.343,16.021,28.305s4.265-7.548,4.265-7.548,4.755,8.6,10.737,7,2.906-11.681,2.906-11.681,5.51,8.511,11.322,6.473,1.038-11.643,1.038-11.643,4.7,8.02,8.812,4.3c4.963-4.472-5.34-18.248-7.076-26.909-.4-1.887-5.208-40.42-5.208-40.42Z" transform="translate(-40.522 45.94)" fill="#eb9481"/>
      <path id="Path_1026" data-name="Path 1026" d="M219.254,275.534c-7.548-10.152-9.1-15.908-10.039-28.305a.208.208,0,0,0-.4,0c-.17,12.247.736,19.738,9.964,28.74C219.235,276.364,219.612,276.006,219.254,275.534Z" transform="translate(-21.091 62.131)" fill="#263238"/>
      <path id="Path_1027" data-name="Path 1027" d="M212.975,279.6c-6.925-11.228-8.661-17.455-10.624-30.381,0-.189-.34-.17-.321,0,.849,12.851,1.887,20.3,10.322,30.627C212.73,280.34,213.3,280.114,212.975,279.6Z" transform="translate(-27.098 63.91)" fill="#263238"/>
      <path id="Path_1028" data-name="Path 1028" d="M204.482,281.6c-5.906-11.322-8.1-18.1-8.378-30.891a.245.245,0,0,0-.472,0c-.981,13.077,1.7,21.512,8.492,31.06C204.6,282.321,204.86,282.246,204.482,281.6Z" transform="translate(-32.946 65.194)" fill="#263238"/>
      <path id="Path_1029" data-name="Path 1029" d="M227.7,227.83s8.68,13.209,11.209,19.946,2.812,34.986-3.3,35.4c-7.888.528-11.322-15.794-11.888-24,0,0-18.266,1.227-23.211-9.964S227.7,227.83,227.7,227.83Z" transform="translate(-28.91 45.053)" fill="#eb9481"/>
      <path id="Path_1030" data-name="Path 1030" d="M233.411,272.377c-7.548-4.7-7.661-15.53-8.85-23.456a.736.736,0,0,0-1.057-.585c-7.68,0-18.531-2.227-23.173-8.869a.189.189,0,1,0-.321.189c4,7.812,14.492,10.869,22.909,10.322,1.094,8.133,1.679,19,10.435,22.474C233.411,272.471,233.449,272.415,233.411,272.377Z" transform="translate(-28.928 55.268)" fill="#263238"/>
      <path id="Path_1031" data-name="Path 1031" d="M251.114,308.819l-61.2,9.435S180.162,204.636,179.8,166.5s13.341-47.478,28.041-8.473S251.114,308.819,251.114,308.819Z" transform="translate(-46.819 -39.106)" fill="#fa5e1e"/>
      <path id="Path_1032" data-name="Path 1032" d="M185.063,230.054c25.041-5.661,52.2-7.756,56.913-8.454a.17.17,0,1,1,0,.34c-4.642.453-35.438,6.246-56.913,8.492C184.893,230.45,184.875,230.092,185.063,230.054Z" transform="translate(-42.267 39.527)" fill="#263238"/>
      <path id="Path_1033" data-name="Path 1033" d="M322.591,504c-4.246,1.378-128.7-.491-133.262-3.491-.547-.34-.623-11.586-.472-27L182.8,381.93l78.746.226,6.227,79.255S285.436,469.564,300,476.7h0a174.828,174.828,0,0,1,18.55,9.812C323.252,490.434,326.837,502.643,322.591,504Z" transform="translate(-44.155 181.745)" fill="#eb9481"/>
      <path id="Path_1034" data-name="Path 1034" d="M319.776,460.954c-4.246,1.378-128.7-.491-133.262-3.491-.547-.34-.623-11.586-.472-27,30.74,6.85,112.712,17.946,115.109,11.511.962-2.585-1-5.51-3.925-8.209a174.823,174.823,0,0,1,18.55,9.813C320.436,447.387,324.022,459.6,319.776,460.954Z" transform="translate(-41.34 224.792)" fill="#263238"/>
      <path id="Path_1035" data-name="Path 1035" d="M165.18,205.3s22.3,236.671,22.8,239.54c0,.377.245,4.755.453,11.869,1.245,39.043,4.3,160.794,4.3,160.794H286.29s-6.1-144.207-9.6-177.834c-4.472-42.93-31.966-234.369-31.966-234.369Z" transform="translate(-59.784 25.068)" fill="#37474f"/>
      <path id="Path_1036" data-name="Path 1036" d="M194.711,444.524q-4.321-73.708-13-147.188c-3.283-27.551-7.246-55.007-11.171-82.482,0-.245-.415-.226-.377,0,7.246,48.893,12.36,98.126,16.776,147.4s7.548,98.428,9.435,147.755c1.151,27.928,2.019,55.894,2.906,83.841a.528.528,0,0,0,1.038,0C199.07,544.1,197.636,494.285,194.711,444.524Z" transform="translate(-55.368 33.385)" fill="#263238"/>
      <path id="Path_1037" data-name="Path 1037" d="M265.632,416.25c-2.453-.321-5.114-.226-7.548-.3-2.793,0-5.661-.132-8.416-.226-5.416-.208-10.85-.359-16.266-.434-10.926-.189-21.871-.113-32.778.226l-9.02.321c-3.208.113-6.416.415-9.624.4-.226,0-.226.283,0,.283,5.491,0,11.058.472,16.568.679s10.832.283,16.247.359c10.926.151,21.89,0,32.8-.34,3-.113,6-.151,9-.245l4.831-.245c1.434,0,2.849,0,4.284-.132C265.9,416.59,265.877,416.288,265.632,416.25Z" transform="translate(-45.033 211.244)" fill="#263238"/>
      <path id="Path_1038" data-name="Path 1038" d="M232.773,205.3,190.032,513.565c-.6-22.984-1.208-44.232-1.6-56.856-.208-7.114-.377-11.492-.453-11.869-.528-2.868-22.8-239.54-22.8-239.54Z" transform="translate(-59.784 25.068)" fill="#263238"/>
      <path id="Path_1039" data-name="Path 1039" d="M231.027,534.417c-4.453-.359-118.619-49.95-121.676-54.478-.377-.51,3.774-10.926,9.945-25.1l25.173-88.69,72.839,29.23-20.55,78.746s13.209,14.323,23.89,26.418h0a177,177,0,0,1,13.36,16.21C236.858,522.132,235.461,534.794,231.027,534.417Z" transform="translate(-109.327 167.747)" fill="#eb9481"/>
      <path id="Path_1040" data-name="Path 1040" d="M231.027,492.726c-4.453-.359-118.619-49.95-121.676-54.479-.377-.51,3.774-10.926,9.945-25.1,25.758,18.153,97.144,59.894,101.9,54.875,1.887-2,1.189-5.472-.472-9.1a176.981,176.981,0,0,1,13.36,16.21C236.858,480.441,235.461,493.1,231.027,492.726Z" transform="translate(-109.327 209.438)" fill="#263238"/>
      <path id="Path_1041" data-name="Path 1041" d="M110.27,588.369l91.276,28.305s44.572-156.341,47.987-193.062c3.378-36.4,6.642-110.769,8.1-164.719,0,0,15.247-9.02,19.116-13.945s7.341-22.644,14.964-39.628H180.034c-26.683,51.837-6.6,74.9-6.6,86.2,0,54.573-8.246,127.016-10.869,137.753C157.087,451.653,110.27,588.369,110.27,588.369Z" transform="translate(-108.491 25.086)" fill="#37474f"/>
      <path id="Path_1042" data-name="Path 1042" d="M196.654,422.9c-2.283-.943-4.869-1.529-7.246-2.265-2.7-.811-5.416-1.566-8.1-2.4-5.17-1.6-10.379-3.132-15.587-4.6q-15.757-4.491-31.74-8.265l-8.794-2.019c-3.114-.717-6.3-1.264-9.435-2.095-.245,0-.3.208,0,.283,5.321,1.4,10.567,3.3,15.832,4.925s10.4,3.076,15.606,4.567q15.766,4.444,31.759,8.133c2.944.66,5.85,1.4,8.775,2.095l4.7,1.038c1.4.321,2.755.774,4.17.981a.191.191,0,0,0,.057-.377Z" transform="translate(-103.807 198.891)" fill="#263238"/>
      <path id="Path_1043" data-name="Path 1043" d="M213.78,225.678a84.427,84.427,0,0,0-15.1,8.945c-5,3.434-9.6,7.378-14.417,11.058-.189.151,0,.453.189.321,5.076-3.246,10.4-6.1,15.417-9.435a96.727,96.727,0,0,0,14.19-10.492C214.2,225.923,214.025,225.583,213.78,225.678Z" transform="translate(-42.923 43.13)" fill="#263238"/>
      <path id="Path_1044" data-name="Path 1044" d="M208.6,209.038c-.642,3.472-1.491,6.925-2.246,10.379s-1.227,6.548-2.076,9.756a16.606,16.606,0,0,1-4.548,8.171c-1.264,1.189-2.68,2.227-4.038,3.321-.717.585-1.51,1.132-2.264,1.736.094-.472.17-.925.245-1.415.245-1.3.472-2.623.679-3.944.491-2.925.962-5.869,1.415-8.794.887-5.774,1.7-11.605,2.906-17.323a.194.194,0,1,0-.377-.094c-1.434,5.661-3.019,11.322-4.265,16.983-.623,2.793-2.812,16.606-2.906,17.587s-.189,2.019-.226,3.038a13.21,13.21,0,0,0,0,3.114c0,.245.377.208.472,0h0a12.249,12.249,0,0,0,.887-3c.245-.981.472-1.981.642-2.981a7.971,7.971,0,0,1,.17-1.113c1.359-.83,2.623-1.887,3.906-2.831a50.755,50.755,0,0,0,4.057-3.057A15.549,15.549,0,0,0,206,230.815a57.254,57.254,0,0,0,1.642-9.945c.434-3.925.755-7.869,1.3-11.775C209,209.038,208.641,208.85,208.6,209.038Z" transform="translate(-37.049 28.312)" fill="#263238"/>
      <path id="Path_1045" data-name="Path 1045" d="M245.9,168.767c-1.793,22.173-4.019,44.968-9.19,66.631-4.038,16.87-13.209,29.985-31.513,31.74-16.983,1.623-40.477-1.887-52.931-14.738-5.812-5.982-7.076-13.492-5.548-21.493,2.132-11.115,19.436-71.273,24.7-90.068,3.208-11.435,6.378-23.041,11.586-33.8C193.915,84.4,205.652,86.285,207.275,86c1.529-.717,11.039-3.472,23.267,2.34a25.192,25.192,0,0,1,13.473,15.587C250.507,124.158,247.638,148.01,245.9,168.767Z" transform="translate(-76.687 -81.889)" fill="#263238"/>
      <path id="Path_1046" data-name="Path 1046" d="M204.875,86.873c-14.964,4.642-20.437,19.55-25.72,32.834-7.359,18.512-14.417,37.156-20.569,56.12q-4.416,13.672-8.171,27.551c-2.359,8.869-5.435,18.248-6.076,27.437-1.057,15.1,11.775,23.928,24.833,27.909a.516.516,0,1,0,.321-.981c-7.4-2.548-14.851-5.661-19.738-12.134-6.284-8.227-4.133-17.549-2-26.834,3.661-15.813,8.209-31.381,13.209-46.78s10.775-30.645,16.662-45.761c5.661-14.4,10.888-33.646,27.211-39.118C205.082,87.119,205.026,86.817,204.875,86.873Z" transform="translate(-78.325 -79.986)" fill="#263238"/>
      <path id="Path_1047" data-name="Path 1047" d="M211.949,117.479c-1.094-11.869-5.548-23.909-17.191-28.909h0c14.983,7.133,16.455,24.777,16.568,39.345q.189,23.041-1.3,46.006c-.944,14.738-2.227,29.551-4.51,44.138-2.472,15.738-7.359,30.193-18.455,41.873a.254.254,0,1,0,.34.377c10.624-9.265,15.662-23.343,18.248-36.816a412.61,412.61,0,0,0,5.793-54.1C212.421,152.314,213.535,134.67,211.949,117.479Z" transform="translate(-40.451 -78.475)" fill="#263238"/>
      <path id="Path_1048" data-name="Path 1048" d="M176.477,146.862c.717,1.887,11.719,13.4,20.625,11.832,2.887-.528.755-16.474.755-16.474l.113-1.208,1.547-16.983-21-9.926-3-1.283s-.132,4.68-.208,10.492v.83a8.266,8.266,0,0,0,0,.962c0,.868,0,1.755,0,2.642v4.133A110.569,110.569,0,0,0,176.477,146.862Z" transform="translate(-50.814 -56.964)" fill="#eb9481"/>
      <path id="Path_1049" data-name="Path 1049" d="M175.3,123.312a34.212,34.212,0,0,0,22.644,17.7l1.547-16.983L178.508,114.1l-3-1.283S175.375,117.5,175.3,123.312Z" transform="translate(-50.808 -56.964)" fill="#263238"/>
      <path id="Path_1050" data-name="Path 1050" d="M225.017,121.956c2.378,29.815-15.209,34.608-21.644,35.118-5.85.453-25.8,1.283-31.23-28.155s7.68-40.005,20.984-41.7S222.658,92.122,225.017,121.956Z" transform="translate(-54.726 -79.895)" fill="#eb9481"/>
      <path id="Path_1051" data-name="Path 1051" d="M198.9,103.689a18.234,18.234,0,0,1-2.019-.415,3.378,3.378,0,0,1-2-.811,1.076,1.076,0,0,1,0-1.3,2.661,2.661,0,0,1,2.585-.642,3.774,3.774,0,0,1,2.453,1.359,1.132,1.132,0,0,1-1.019,1.812Z" transform="translate(-33.631 -67.968)" fill="#263238"/>
      <path id="Path_1052" data-name="Path 1052" d="M187.02,103.926c.7-.094,1.321-.283,2.019-.434a3.377,3.377,0,0,0,1.887-.849,1.057,1.057,0,0,0,0-1.3,2.642,2.642,0,0,0-2.6-.6,3.906,3.906,0,0,0-2.415,1.4,1.132,1.132,0,0,0,1.113,1.793Z" transform="translate(-41.6 -67.789)" fill="#263238"/>
      <path id="Path_1053" data-name="Path 1053" d="M189.818,106.36a.154.154,0,0,0-.151.17c.132,2.038,0,4.4-1.887,5.133v.113C190.082,111.342,190.271,108.266,189.818,106.36Z" transform="translate(-39.737 -62.694)" fill="#263238"/>
      <path id="Path_1054" data-name="Path 1054" d="M189.042,105.261c-3.283-.132-3.321,6.435-.283,6.567S191.8,105.374,189.042,105.261Z" transform="translate(-40.848 -63.671)" fill="#263238"/>
      <path id="Path_1055" data-name="Path 1055" d="M189.007,105.529c-.585.377-1.151,1.019-1.887,1.094s-1.4-.623-1.887-1.283h-.113c0,1.245.434,2.547,1.887,2.736s2.132-.925,2.453-2.189C189.441,105.736,189.234,105.378,189.007,105.529Z" transform="translate(-42.097 -63.599)" fill="#263238"/>
      <path id="Path_1056" data-name="Path 1056" d="M194.935,106.12a.154.154,0,0,1,.151.17c-.094,2.038.132,4.4,1.981,5.095v.113C194.8,111.158,194.52,108.026,194.935,106.12Z" transform="translate(-33.533 -62.907)" fill="#263238"/>
      <path id="Path_1057" data-name="Path 1057" d="M196.77,105c3.265-.189,3.434,6.378.4,6.567S194.015,105.172,196.77,105Z" transform="translate(-33.518 -63.903)" fill="#263238"/>
      <path id="Path_1058" data-name="Path 1058" d="M196.726,105.415c.528.321,1.057.944,1.679.981s1.227-.7,1.679-1.4h.094c0,1.245-.321,2.566-1.51,2.831s-1.887-.811-2.264-2.038C196.349,105.623,196.518,105.264,196.726,105.415Z" transform="translate(-32.096 -63.901)" fill="#263238"/>
      <path id="Path_1059" data-name="Path 1059" d="M188.913,114.918c.472.509.925,1.189,1.661,1.283a5.661,5.661,0,0,0,2.208-.4v.113a2.755,2.755,0,0,1-2.642.962,2.132,2.132,0,0,1-1.51-1.887C188.705,114.881,188.856,114.843,188.913,114.918Z" transform="translate(-38.983 -55.138)" fill="#263238"/>
      <path id="Path_1060" data-name="Path 1060" d="M196.608,120.3s.434,3.038.434,4.472c0,.151-.34.208-.83.245h0a6.812,6.812,0,0,1-6.642-2.51.154.154,0,0,1,.226-.208,10.19,10.19,0,0,0,6.227,1.755c.094-.4-.925-5.189-.7-5.208a12.3,12.3,0,0,1,3.265.717c-.717-6.359-2.453-12.549-3.095-18.87a.189.189,0,0,1,.377,0,104.05,104.05,0,0,1,4.208,20.21C200.136,121.55,197.174,120.494,196.608,120.3Z" transform="translate(-38.186 -67.884)" fill="#263238"/>
      <path id="Path_1061" data-name="Path 1061" d="M194.527,111.617c-.453-4.869,1.793-9.058,5-9.435s6.208,3.4,6.661,8.265-1.887,9.058-5,9.435S194.98,116.486,194.527,111.617Zm1.189-.113c.4,4.208,2.793,7.435,5.359,7.208s4.34-3.868,3.944-8.076-2.812-7.435-5.378-7.208S195.32,107.3,195.716,111.5Z" transform="translate(-33.804 -66.423)" fill="#263238"/>
      <path id="Path_1062" data-name="Path 1062" d="M182.751,112.271a8.284,8.284,0,1,1,9.077,8.039A8.6,8.6,0,0,1,182.751,112.271Zm1.189-.113a7.1,7.1,0,1,0,6.34-8.3,7.4,7.4,0,0,0-6.34,8.3Z" transform="translate(-44.2 -64.983)" fill="#263238"/>
      <path id="Path_1063" data-name="Path 1063" d="M191.461,108.115c4.265-1.887,6.4-.7,6.416-.679l.642-1c-.094,0-2.623-1.661-7.548.6Z" transform="translate(-36.908 -63.148)" fill="#263238"/>
      <path id="Path_1064" data-name="Path 1064" d="M196.2,109.163l.113-1.189c-.793,0-19.1-1.7-21.059-1.623s-6.623,3.227-7.133,3.585l.679.981a22.022,22.022,0,0,1,6.416-3.359h.226C176.876,107.578,189.689,108.578,196.2,109.163Z" transform="translate(-57.177 -62.705)" fill="#263238"/>
      <path id="Path_1065" data-name="Path 1065" d="M175.441,128.778c3.227-.189,11.643-9.114,11.907-24.739,0,0-1.208,14.021-2.246,16.077s4.7-5.02,5.076-17.606a51.459,51.459,0,0,0,12.945,6.7c5.944,1.661,9.586,1.6,10.02,1.17s-8.341-3.189-10.718-5.906c0,0,15.851,7.341,23.135,7.907.849,0,1.887-17.3-9.435-24.663s-29.155.6-33.967,5.246c0,0-5.661.793-11.756,9.152S171.969,128.986,175.441,128.778Z" transform="translate(-57.176 -81.886)" fill="#263238"/>
      <path id="Path_1066" data-name="Path 1066" d="M179.968,113.731s-6.473-9.435-10.718-7.1.547,15.87,5.51,17.757a5.076,5.076,0,0,0,6.812-2.661Z" transform="translate(-57.627 -62.781)" fill="#eb9481"/>
      <path id="Path_1067" data-name="Path 1067" d="M169.26,108.5v.132c3.472,1.453,5.284,4.7,6.548,8.058a2.774,2.774,0,0,0-4.17-.793s0,.208.094.189a3.1,3.1,0,0,1,3.416,1.113,15.094,15.094,0,0,1,1.623,2.774c.151.321.717.151.6-.208h0C177.45,115.237,174.034,108.991,169.26,108.5Z" transform="translate(-56.165 -60.796)" fill="#263238"/>
      <path id="Path_1068" data-name="Path 1068" d="M175.668,116.53a2.189,2.189,0,1,1-2.189-2.17,2.189,2.189,0,0,1,2.189,2.17Z" transform="translate(-54.365 -55.598)" fill="#fff"/>
      <path id="Path_1069" data-name="Path 1069" d="M267.97,286.39s-100.5,1.491-125.45-.264c0,0,20.342-115.3,47.176-144.433a40.88,40.88,0,0,1,3.17-3.114c1.642-1.378,1.415-12.379,2.189-13.209s33.382,3.453,33.8,4.246,2.095,11.171,2.095,11.171c7.4,9.435,31.193,42.043,33.967,55.5s-5.963,28.305-5.963,28.305Z" transform="translate(-79.885 -45.926)" fill="#fa5e1e"/>
      <path id="Path_1070" data-name="Path 1070" d="M164.754,151.359c-5.944,28.645-2.415,90.577,11.322,101.9,22.644,18.531,77.066,23.946,92.257,25.739,6.548.774,19.587-42.081,15.1-47.61s-71.386-14.134-74.575-16.983c-2.208-2.038-12.605-39.458-21.569-60.555C175.228,125.3,166.925,140.792,164.754,151.359Z" transform="translate(-62.623 -35.024)" fill="#eb9481"/>
      <path id="Path_1071" data-name="Path 1071" d="M227.05,185.47s20.078-.208,33.212.283c7.341.264,19.852,1.887,25.154,4.529,7.907,3.982,38.477,25.682,33.363,33.212-4.623,6.812-13.719-2.151-13.719-2.151s10.869,8.85,4.208,14.209-17.436-7.435-17.436-7.435,12.19,8.6,4.529,13.624c-6.642,4.378-20.587-9.058-20.587-9.058s13.794,7.548,7.416,12.775c-7.039,5.661-30.476-11.851-30.476-11.851-16.795,3.774-27.381,3.774-39.722,1.755C210.727,234.986,227.05,185.47,227.05,185.47Z" transform="translate(-17.565 7.44)" fill="#eb9481"/>
      <path id="Path_1072" data-name="Path 1072" d="M266.191,217.88l-2.736-2.887a66.669,66.669,0,0,0-5.4-5.435c-1.887-1.623-3.774-3.17-5.85-4.642s-4.416-2.944-6.491-4.548c-.17-.132-.359.113-.17.226a75.738,75.738,0,0,1,5.925,5.076c1.887,1.7,3.774,3.434,5.661,5.152s3.774,3.246,5.661,4.887c.925.811,1.887,1.661,2.736,2.51a20.883,20.883,0,0,0,2.623,2.4c.094,0,.208,0,.151-.151A15.644,15.644,0,0,0,266.191,217.88Z" transform="translate(11.434 20.66)" fill="#263238"/>
      <path id="Path_1073" data-name="Path 1073" d="M273,214.25a102.275,102.275,0,0,0-9.813-10.3,70.614,70.614,0,0,0-11.53-8.4c-.151,0-.3.113-.189.226,3.548,3.189,7.152,6.322,10.756,9.435,1.755,1.529,9.529,8.737,10.435,9.435C272.868,214.76,273.132,214.458,273,214.25Z" transform="translate(16.721 16.42)" fill="#263238"/>
      <path id="Path_1074" data-name="Path 1074" d="M260.514,221.613a103.906,103.906,0,0,0-9.435-9.529,92.239,92.239,0,0,0-11.605-7.284c-.151,0-.3.151-.17.245,3.661,2.717,7.359,5.34,10.888,8.227,1.736,1.415,8.265,7.416,10.039,8.6C260.42,221.991,260.627,221.764,260.514,221.613Z" transform="translate(5.921 24.625)" fill="#263238"/>
      <path id="Path_1075" data-name="Path 1075" d="M254.068,281.784l23.946-55.837S212.421,215.1,210.4,213.775s-13.983-44.874-21.663-61.97-20.871-27.136-25.966,9.567,2.283,81.52,9.662,90.842C181.379,263.5,216.8,277.783,254.068,281.784Z" transform="translate(-63.416 -36.036)" fill="#fa5e1e"/>
      <path id="Path_1076" data-name="Path 1076" d="M221.915,252.083c-9.813-2.661-19.38-7.3-28.758-11.322-8.058-3.378-16.285-7.548-20.757-15.455a44.476,44.476,0,0,1-4.321-12.813c-1.038-4.982-1.887-10.02-2.6-15.1q-1.3-8.68-2.34-17.4c-.34-2.982-.679-5.963-.981-8.945s-.849-5.963-.962-8.963a.151.151,0,1,0-.3,0c.208,2.755,0,5.529.226,8.3,0,1.887.226,3.623.359,5.435l-.528-1.151a20.9,20.9,0,0,1-1.321-4.114c0-.17-.321-.094-.283,0,.34,1.415.679,2.849,1.076,4.246q.283,1.019.679,2.038a13.319,13.319,0,0,0,.547,1.34q.679,8.133,1.755,16.191c.7,5.208,1.51,10.379,2.434,15.549a59.423,59.423,0,0,0,3.623,13.341,28.627,28.627,0,0,0,7.661,10.511,50.439,50.439,0,0,0,11.322,7.02A200.341,200.341,0,0,0,216.877,251.4C228.52,255.065,232.068,254.82,221.915,252.083Z" transform="translate(-64.966 -13.393)" fill="#263238"/>
      <path id="Path_1077" data-name="Path 1077" d="M228.35,202.5c-2.415-.321-30.966-6.322-32.079-6.642a3.359,3.359,0,0,1-2.283-2.415c-.887-2.3-1.661-4.661-2.491-6.982q-2.151-6-4.378-11.945a22.685,22.685,0,0,0-.264-2.661c-.094-.774-.283-2.113-.453-3.17-.377-2.283-1.057-4.529-1.34-6.812,0-.226-.359-.151-.3,0a33.74,33.74,0,0,1,1.019,6.869c.094.906.151,1.887.208,2.736-.868-2.321-1.755-4.642-2.68-6.944-1.076-2.68-2.3-5.378-3.17-8.133,0-.189-.34-.094-.283,0,.981,2.472,1.679,5.095,2.453,7.548s1.6,5.095,2.434,7.642c1.623,5,3.34,9.964,5.076,14.945.83,2.4,1.642,4.831,2.529,7.208a5.133,5.133,0,0,0,3.774,3.642c4.963,1.34,29.23,5.359,32.174,5.472C228.6,203.049,228.671,202.539,228.35,202.5Z" transform="translate(-46.775 -18.403)" fill="#263238"/>
      <path id="Path_1078" data-name="Path 1078" d="M226.045,184.388c-3.774,8.02-7.548,15.983-10.964,24.173a250.453,250.453,0,0,0-9.077,24.663.152.152,0,0,0,.283.113c3.774-7.869,7.076-16.04,10.416-24.135s6.378-16.417,9.756-24.531C226.63,184.331,226.2,184.067,226.045,184.388Z" transform="translate(-23.581 6.39)" fill="#263238"/>
      <path id="Path_1079" data-name="Path 1079" d="M270.88,181.109c-2.887,1.623-19.418-2.944-26.117,2.076-4.435,3.321-8.775,11.322-9.718,21.757-.962,10.775,7.548,10.228,10.7,5.661a133.249,133.249,0,0,0,10.02-18.87,71.1,71.1,0,0,1,8.945,2.4Z" transform="translate(2.122 3.291)" fill="#ad6359"/>
      <path id="Path_1080" data-name="Path 1080" d="M254.631,201.3c-5.114-5.359-30.664,14.285-22.644,23.21S260.405,207.375,254.631,201.3Z" transform="translate(-1.896 20.71)" fill="#ad6359"/>
      <path id="Path_1081" data-name="Path 1081" d="M259.151,205.368c-5.114-5.359-30.664,14.285-22.644,23.21S264.925,211.445,259.151,205.368Z" transform="translate(2.113 24.321)" fill="#ad6359"/>
      <path id="Path_1082" data-name="Path 1082" d="M260.44,206.631c-5.378-4.17-25.871,17.247-17.285,24.229S266.536,211.348,260.44,206.631Z" transform="translate(7.542 25.775)" fill="#ad6359"/>
      <path id="Path_1083" data-name="Path 1083" d="M261.252,207.072c-6.171-2.359-19.172,23.3-9.228,27.362S268.253,209.657,261.252,207.072Z" transform="translate(14.033 26.505)" fill="#ad6359"/>
      <path id="Path_1084" data-name="Path 1084" d="M249.74,205.559a30.891,30.891,0,0,0-4,3.189,53.764,53.764,0,0,0-3.982,3.774,45.555,45.555,0,0,0-3.415,4c-1.113,1.51-2.038,3.151-3.17,4.623a.151.151,0,1,0,.226.17,38.68,38.68,0,0,1,3.642-4.019c1.227-1.283,2.378-2.623,3.6-3.925s2.321-2.566,3.529-3.774,2.566-2.453,3.774-3.774C250,205.653,249.873,205.483,249.74,205.559Z" transform="translate(2.24 25.282)" fill="#263238"/>
      <path id="Path_1085" data-name="Path 1085" d="M254.651,206.856c-1.094,1.679-4.925,8.19-6.1,9.831s-2.4,3.283-3.642,4.887-2.453,3.359-3.868,4.869c-.113.132.094.34.226.208,1.415-1.51,2.963-2.887,4.3-4.472s2.566-3.189,3.774-4.869a96.5,96.5,0,0,0,5.661-10.341A.2.2,0,0,0,254.651,206.856Z" transform="translate(7.482 26.381)" fill="#263238"/>
      <path id="Path_1086" data-name="Path 1086" d="M255.17,208.8c-1.132,2.491-2.114,5.076-3.265,7.548-.566,1.227-1.151,2.453-1.717,3.774l-.793,1.793a12.022,12.022,0,0,1-.944,2.057c-.113.151.189.321.264.113a14.771,14.771,0,0,1,1.321-2.132c.321-.566.661-1.132.962-1.7q.962-1.887,1.755-3.68a54.6,54.6,0,0,0,2.755-7.548.2.2,0,1,0-.34-.226Z" transform="translate(14.058 28.095)" fill="#263238"/>
    </g>
    <g id="freepik--speech-bubble--inject-12" transform="translate(331.589 32.419)">
      <path id="Path_1087" data-name="Path 1087" d="M308.579,119.364a46.78,46.78,0,0,1-78.161,29.589L207,152.387l11.719-20.229a46.78,46.78,0,1,1,89.86-12.794Z" transform="translate(-205.453 -67.289)" fill="#fff"/>
      <path id="Path_1088" data-name="Path 1088" d="M309.306,119.579a47.177,47.177,0,0,1-9.435,23.7,49.677,49.677,0,0,1-4.227,4.887,52.045,52.045,0,0,1-4.944,4.17,45.289,45.289,0,0,1-11.322,6.284,45.892,45.892,0,0,1-12.586,3,43.933,43.933,0,0,1-6.491.132,41.14,41.14,0,0,1-6.473-.679,47.176,47.176,0,0,1-23.154-11.322l.566.17-23.361,3.434-1.7.264.849-1.491,11.643-20.267v.793A47.345,47.345,0,0,1,221.5,91.084a47.874,47.874,0,0,1,14.643-15.606,47.176,47.176,0,0,1,73.16,44.157Zm0,0A46.463,46.463,0,0,0,236.939,76.5a48.1,48.1,0,0,0-13.983,15.266,46.025,46.025,0,0,0-5.944,19.795A46.93,46.93,0,0,0,220.3,131.92l.17.415-.226.4-11.775,20.191-.83-1.245,23.418-3.283h.321l.245.208A46.176,46.176,0,0,0,254,160.15a42.423,42.423,0,0,0,6.359.774,45.3,45.3,0,0,0,6.4,0,45.856,45.856,0,0,0,12.492-2.755,43.213,43.213,0,0,0,11.322-6.076,41.326,41.326,0,0,0,9.19-8.945A47.176,47.176,0,0,0,309.306,119.579Z" transform="translate(-206.18 -67.504)" fill="#263238"/>
      <path id="Path_1089" data-name="Path 1089" d="M242.655,131.6,222.69,111.374l6.7-6.623,11.681,11.813L265.318,78.54l7.944,5.076Z" transform="translate(-191.535 -57.715)" fill="#fa5e1e"/>
    </g>
  </g>
</svg>
