<svg id="create_an_account-pana" data-name="create an account-pana" xmlns="http://www.w3.org/2000/svg" width="394.615" height="301.882" viewBox="0 0 394.615 301.882">
  <g id="freepik--background-complete--inject-142" transform="translate(3.671)">
    <path id="Path_575" data-name="Path 575" d="M382.8,39.288a2.618,2.618,0,1,1-2.618-2.618A2.618,2.618,0,0,1,382.8,39.288Z" transform="translate(-85.992 -36.67)" fill="#e0e0e0"/>
    <path id="Path_576" data-name="Path 576" d="M396.843,216.247v-1.44c0-.963,0-2.357-.045-4.139,0-3.6,0-8.872-.063-15.413,0-13.128-.054-31.492-.081-52.358l.054.153-11.274-13.578-5.03-6.091-.054-.063v-.081c0-23.3.054-44.089.072-59.016,0-7.45.054-13.5.072-17.627,0-2.051,0-3.653.045-4.769v4.769c0,4.166,0,10.176.072,17.627,0,14.954.045,35.712.081,59.016l-.054-.153,5.03,6.091,11.211,13.578.054.063v.081c0,20.9-.063,39.23-.081,52.358,0,6.541-.054,11.778-.072,15.413v5.21A.794.794,0,0,0,396.843,216.247Z" transform="translate(-86.271 -37.021)" fill="#e0e0e0"/>
    <path id="Path_577" data-name="Path 577" d="M435.5,222.615a14.72,14.72,0,0,1-2.7,2.816l.693,3.527-5.444,2.42-2.15-2.888a14.7,14.7,0,0,1-3.878.1l-2.006,2.987-5.552-2.141.513-3.6a14.667,14.667,0,0,1-2.807-2.7l-3.464.8-2.42-5.4,2.888-2.15a14.324,14.324,0,0,1-.1-3.878l-3.023-2.069,2.141-5.552,3.6.522a14.451,14.451,0,0,1,2.7-2.816l-.693-3.527,5.444-2.42,2.15,2.888a15.089,15.089,0,0,1,3.878-.1l2.006-2.987,5.552,2.141-.522,3.6a14.72,14.72,0,0,1,2.816,2.7l3.527-.693,2.411,5.4-2.879,2.15a15.088,15.088,0,0,1,.1,3.878l2.987,2.007-2.141,5.552-3.6-.522Zm-6.01-6.064a6.388,6.388,0,1,0-8.26,3.662A6.388,6.388,0,0,0,429.489,216.551Z" transform="translate(-88.847 -92.13)" fill="none"/>
    <path id="Path_578" data-name="Path 578" d="M430.7,217.8a4.9,4.9,0,0,1-.693,1.422,6.3,6.3,0,0,1-3.455,2.528,6.469,6.469,0,0,1-3,.18,6.569,6.569,0,0,1-3.113-1.485,5.92,5.92,0,0,1-1.233-1.431,6.19,6.19,0,0,1-.8-1.8,6.505,6.505,0,0,1,2.789-7.243,6.164,6.164,0,0,1,1.8-.8,6.091,6.091,0,0,1,1.871-.225,6.442,6.442,0,0,1,6.3,7.324,4.742,4.742,0,0,1-.441,1.521c-.045,0,.189-.54.306-1.539a6.3,6.3,0,0,0-6.145-6.973,5.758,5.758,0,0,0-1.8.234,5.677,5.677,0,0,0-1.692.756,6.2,6.2,0,0,0-2.645,6.847,5.858,5.858,0,0,0,.756,1.71,6.02,6.02,0,0,0,1.152,1.359,6.253,6.253,0,0,0,5.822,1.314,6.38,6.38,0,0,0,3.41-2.366C430.488,218.325,430.659,217.785,430.7,217.8Z" transform="translate(-90.062 -93.977)" fill="#e0e0e0"/>
    <path id="Path_579" data-name="Path 579" d="M435.475,222.582h.225l.675.081,2.7.36h-.063l2.06-5.507v.108l-3-1.988h-.054v-.063a14.693,14.693,0,0,0-.108-3.851v-.072l.063-.045,2.879-2.159-.045.162-2.429-5.4.162.09-3.527.7h-.09l-.054-.072a14.538,14.538,0,0,0-2.789-2.645l-.081-.054v-.1c.162-1.1.333-2.321.513-3.554l.108.171-5.561-2.132.2-.063-2,2.987-.063.09h-.1a14.531,14.531,0,0,0-3.833.108h-.108l-.063-.081-2.15-2.888.216.063-5.444,2.411.108-.2c.216,1.116.459,2.312.693,3.527v.108l-.09.072a14.659,14.659,0,0,0-2.645,2.771h0c-.072,0,.18-.072-.171.081h-.45l-.441-.063-.9-.126-1.8-.261.2-.117c-.72,1.881-1.44,3.734-2.141,5.561l-.072-.216,2.987,2,.09.063v.108a14.4,14.4,0,0,0,.09,3.833v.108l-.081.063L406.2,218.7l.054-.216c.819,1.863,1.629,3.68,2.411,5.444l-.189-.09,3.527-.693h.1l.063.072a14.343,14.343,0,0,0,2.78,2.654l.072.054v.1c-.18,1.215-.36,2.4-.531,3.554l-.09-.162,5.552,2.15-.171.054,2.016-2.978.045-.072h.072a14.748,14.748,0,0,0,3.851-.081h.072l.045.063c.774,1.053,1.476,2,2.141,2.888h-.135l5.453-2.393-.045.09c-.27-1.413-.486-2.573-.675-3.536h0a15.549,15.549,0,0,0,2.106-2.024l.459-.558a1.8,1.8,0,0,1,.153-.189l-.126.207c-.1.126-.234.324-.441.576A14.054,14.054,0,0,1,432.7,225.7v-.054l.72,3.518v.072h-.054l-5.4,2.438h-.081l-.054-.063c-.666-.9-1.368-1.8-2.16-2.879l.117.045a14.4,14.4,0,0,1-3.914.108l.126-.054-2,2.987-.063.1-.1-.045-5.561-2.123-.117-.045v-.126c.162-1.152.333-2.339.513-3.6l.063.144a14.64,14.64,0,0,1-2.843-2.7l.162.063-3.536.693H408.4l-.063-.117-2.267-5.552-.063-.126.117-.081L409,216.14l-.063.171a14.65,14.65,0,0,1-.108-3.923l.081.162-2.987-2-.126-.081.054-.135c.7-1.8,1.422-3.68,2.142-5.561l.054-.135h.144l1.8.252.9.135.45.063h.45l-.18.081h0a15.117,15.117,0,0,1,2.7-2.843l-.063.18c-.234-1.215-.477-2.411-.693-3.527v-.144l.135-.063,5.444-2.411.126-.054.09.108,2.141,2.888-.162-.063a14.81,14.81,0,0,1,3.923-.1l-.162.072,2.007-2.978.072-.117.126.054,5.561,2.141.117.045v.135c-.18,1.242-.36,2.456-.522,3.554l-.063-.144a14.83,14.83,0,0,1,2.834,2.7l-.153-.054,3.536-.693h.117l.045.1c.837,1.917,1.647,3.734,2.4,5.453v.09l-.081.063L438.2,211.7l.045-.108a14.313,14.313,0,0,1,.081,3.9l-.045-.1,2.978,2.016.063.045v.063c-.9,2.258-1.611,4.13-2.168,5.543v.045h0l-2.636-.423-.684-.108Z" transform="translate(-88.822 -92.09)" fill="#e0e0e0"/>
    <circle id="Ellipse_36" data-name="Ellipse 36" cx="2.699" cy="2.699" r="2.699" transform="translate(56.281 110.7)" fill="#e0e0e0"/>
    <path id="Path_581" data-name="Path 581" d="M92.284,290.268c-.126,0-.234-18.733-.234-41.839s.108-41.848.234-41.848.234,18.724.234,41.848S92.419,290.268,92.284,290.268Z" transform="translate(-33.304 -102.309)" fill="#e0e0e0"/>
    <path id="Path_582" data-name="Path 582" d="M203.869,59.7a2.7,2.7,0,1,1-2.7-2.7A2.7,2.7,0,0,1,203.869,59.7Z" transform="translate(-53.99 -38.708)" fill="#e0e0e0"/>
    <path id="Path_583" data-name="Path 583" d="M201.444,232.2c-.135,0-.234-38.06-.234-84.993s.1-85.011.234-85.011.234,38.051.234,85.011S201.57,232.2,201.444,232.2Z" transform="translate(-54.291 -39.229)" fill="#e0e0e0"/>
    <path id="Path_584" data-name="Path 584" d="M43.6,171.728a2.888,2.888,0,1,1-.855-2.052,2.888,2.888,0,0,1,.855,2.052Z" transform="translate(-27.869 -80.05)" fill="#e0e0e0"/>
    <path id="Path_585" data-name="Path 585" d="M39.771,172.05v6.8c0,4.408,0,10.869.063,18.962,0,16.229.045,39.1.081,65.753v.132c-4.094,5.562-8.386,11.38-12.786,17.366l.045-.132V360l-.054-.132,15.521,18.415v.115c0,16.978-.063,30.933-.081,40.656v11.239c0-2.592,0-6.382-.054-11.239,0-9.7,0-23.678-.081-40.656v.115l-15.611-18.38-.054-.062V280.847l.045-.053,12.768-17.357-.045.123c0-26.648.063-49.524.081-65.753,0-8.092.054-14.527.063-18.962v-6.356A.776.776,0,0,1,39.771,172.05Z" transform="translate(-26.76 -142.023)" fill="#e0e0e0"/>
    <circle id="Ellipse_37" data-name="Ellipse 37" cx="3.248" cy="3.248" r="3.248" transform="translate(201.445 58.656)" fill="#e0e0e0"/>
    <circle id="Ellipse_38" data-name="Ellipse 38" cx="3.248" cy="3.248" r="3.248" transform="translate(184.763 197.438)" fill="#e0e0e0"/>
    <path id="Path_586" data-name="Path 586" d="M268.305,127.65a1.792,1.792,0,0,1,0,.288v4.112c0,2.87,0,7.036.063,12.3,0,10.563.045,25.5.081,43.081v.09l-.063.063-18.31,18.328.072-.162v10.185c0,26.471-.054,50.441-.072,67.807,0,8.656-.054,15.674-.072,20.542v0c0-4.868-.045-11.886-.072-20.542,0-17.366,0-41.336-.072-67.807V205.651l.072-.072c6.469-6.46,12.66-12.651,18.328-18.3l-.063.153c0-17.582.063-32.518.081-43.081,0-5.264.054-9.43.063-12.3v-4.112A1.806,1.806,0,0,1,268.305,127.65Z" transform="translate(-62.619 -84.558)" fill="#e0e0e0"/>
  </g>
  <g id="freepik--Chair--inject-142" transform="translate(17.195 137.754)">
    <path id="Path_587" data-name="Path 587" d="M149.82,328.965c-3.518-6.037-7.288-12.1-12.831-17.1C122.935,299.2,98.8,295.44,78.3,299.984c-15.827,3.509-30.772,12.426-34.92,25.023-1.881,5.678-1.458,11.7-.9,17.51,3.887,38.276,23.043,107.7,23.817,109.359l129.154-.522A375.3,375.3,0,0,0,149.82,328.965Z" transform="translate(-41.812 -297.842)" fill="#455a64"/>
    <path id="Path_588" data-name="Path 588" d="M195.4,451.275s-.081-.333-.207-.99-.333-1.62-.585-2.888-.54-2.843-.9-4.7-.9-3.986-1.395-6.388a373.162,373.162,0,0,0-11.535-40.031,388.115,388.115,0,0,0-25.068-56.416l-2.159-3.86-2.177-3.833c-1.467-2.591-2.96-5.2-4.58-7.774-3.221-5.138-7-10.167-12-14.036a20.762,20.762,0,0,0-1.9-1.413c-.657-.441-1.287-.9-1.961-1.341-1.386-.783-2.7-1.674-4.175-2.339l-2.159-1.062-2.24-.9-1.125-.459-1.143-.4-2.312-.792a76.525,76.525,0,0,0-19.5-3.221,83.012,83.012,0,0,0-19.714,1.746,66.772,66.772,0,0,0-18,6.667,44.987,44.987,0,0,0-7.72,5.273,34.192,34.192,0,0,0-6.172,6.739c-.4.648-.837,1.26-1.206,1.916s-.684,1.332-1.017,2-.549,1.395-.819,2.087a22.022,22.022,0,0,0-.621,2.123,33.237,33.237,0,0,0-.8,8.719c.081,2.9.342,5.759.684,8.566s.621,5.6,1.062,8.314c.765,5.462,1.683,10.734,2.6,15.818,1.854,10.185,3.9,19.606,5.8,28.2,3.86,17.168,7.378,30.979,9.9,40.49,1.242,4.76,2.24,8.449,2.924,10.95.351,1.242.621,2.186.8,2.834s.288.963.288.963-.117-.315-.333-.945-.477-1.593-.846-2.825c-.711-2.492-1.746-6.172-3.014-10.932-2.537-9.511-6.109-23.3-10.005-40.49-1.926-8.593-3.986-18-5.858-28.2-.9-5.093-1.854-10.365-2.627-15.827-.441-2.7-.72-5.516-1.071-8.332s-.621-5.678-.7-8.6a34.191,34.191,0,0,1,.8-8.827,20.6,20.6,0,0,1,.639-2.168c.27-.711.549-1.413.828-2.123l1.008-2.1c.378-.666.81-1.3,1.215-1.952a35.089,35.089,0,0,1,6.253-6.829,45.367,45.367,0,0,1,7.792-5.336,67.216,67.216,0,0,1,18.112-6.712,83,83,0,0,1,19.8-1.8,76.8,76.8,0,0,1,19.633,3.248l2.321.792,1.161.4,1.125.468,2.258.9,2.177,1.071c1.476.675,2.816,1.575,4.211,2.366.684.423,1.323.9,1.989,1.35a21.2,21.2,0,0,1,1.917,1.431c5.048,3.914,8.863,9,12.093,14.153,1.62,2.591,3.122,5.21,4.589,7.8l2.2,3.869,2.1,3.86a384.979,384.979,0,0,1,25,56.515,361.656,361.656,0,0,1,11.391,40.094l1.359,6.406c.378,1.854.657,3.437.9,4.706s.4,2.24.531,2.9S195.4,451.275,195.4,451.275Z" transform="translate(-41.79 -297.81)" fill="#263238"/>
    <path id="Path_589" data-name="Path 589" d="M49.245,318v.369c0,.243-.09.6-.153,1.053-.126.9-.27,2.294-.387,4.058a70.695,70.695,0,0,0,1.089,14.945c2.177,12.507,4.841,29.854,8.737,48.822,1.962,9.493,4.1,18.472,6.37,26.543s4.643,15.3,6.811,21.217,4.22,10.68,5.669,13.919l1.692,3.716.432.981a1.971,1.971,0,0,1,.126.333,181.581,181.581,0,0,1-8.224-18.832c-2.213-5.956-4.643-13.128-6.919-21.217s-4.5-17.1-6.415-26.561c-3.9-18.994-6.514-36.342-8.6-48.867a68.3,68.3,0,0,1-.9-15.008A35.649,35.649,0,0,1,49.245,318Z" transform="translate(-42.461 -299.834)" fill="#263238"/>
    <path id="Path_590" data-name="Path 590" d="M66.45,351.92c0,.081-.9.279-2.294.783a21.882,21.882,0,0,0-5.129,2.7,26.751,26.751,0,0,0-5.687,5.9,8.1,8.1,0,0,1,1.224-2.114,18.293,18.293,0,0,1,4.193-4.157,18.507,18.507,0,0,1,5.291-2.627,8.259,8.259,0,0,1,2.4-.486Z" transform="translate(-42.948 -303.233)" fill="#263238"/>
    <path id="Path_591" data-name="Path 591" d="M61.445,361.478c0,.144-1.71.09-3.716.558s-3.527,1.242-3.6,1.116a7.567,7.567,0,0,1,3.482-1.575,7.6,7.6,0,0,1,3.833-.1Z" transform="translate(-43.027 -304.171)" fill="#263238"/>
    <path id="Path_592" data-name="Path 592" d="M58.178,409.77c-.054,0,0-.252.162-.558a2.24,2.24,0,0,1,1.1-.837,2.2,2.2,0,0,1,1.377-.045c.342.108.5.27.477.324a4.262,4.262,0,0,0-1.7.162C58.709,409.149,58.295,409.824,58.178,409.77Z" transform="translate(-43.431 -308.878)" fill="#263238"/>
    <path id="Path_593" data-name="Path 593" d="M60.1,413.766c-.126,0-.054-.9.783-1.584s1.746-.54,1.719-.414-.747.225-1.422.783S60.24,413.82,60.1,413.766Z" transform="translate(-43.621 -309.221)" fill="#263238"/>
  </g>
  <g id="freepik--Character--inject-142" transform="translate(39.594 13.398)">
    <path id="Path_594" data-name="Path 594" d="M242.4,417.58s-2.879-70.614-5.543-82.851c-3.374-15.566-16.484-24.969-16.484-24.969L215.35,431.229l5.219,3.122,3.077,1.62c1.377,5.165-1.476,6.424,12.651,10.059,1.134.288,23.691,3.851,23.691,3.851l2.213-22.935Z" transform="translate(-81.585 -174.652)" fill="#b78876"/>
    <path id="Path_595" data-name="Path 595" d="M283.535,461.871s-8.152.558-11.481,1.908a12.71,12.71,0,0,1-11.1-1.35,31.767,31.767,0,0,1-4.8-3.752l-11.121.054a13.353,13.353,0,0,1-2.456-13.721,14.919,14.919,0,0,1,2.456-4.346c1.3-1.458,1.881-2.321,5.471-3.023l14.738,2.24s20.425-1.89,24.1-.252c0,0,4.625,2.618,6.064,3.725.54.414,2.267,5.588-1,8.368,0,0,2.942,2.24,1.422,4.337l-.738.9s2.007,2.474,1.026,3.6-9.619,6.424-12.75,5.3-.954-3.761.4-4.319" transform="translate(-84.221 -187.469)" fill="#b78876"/>
    <path id="Path_596" data-name="Path 596" d="M296.442,448.29a8.587,8.587,0,0,0-1.071.4c-.684.279-1.683.675-2.933,1.1q-.9.324-2.052.648c-.738.216-1.557.4-2.393.684a5.138,5.138,0,0,0-2.366,1.5,2.96,2.96,0,0,0-.585,2.933,2.357,2.357,0,0,0,1.107,1.143,4.149,4.149,0,0,0,1.467.369,12.039,12.039,0,0,0,2.771-.207,24.2,24.2,0,0,0,4.5-1.269c1.242-.468,2.213-.9,2.888-1.206a6.8,6.8,0,0,0,1.035-.522,8.086,8.086,0,0,0-1.089.387c-.684.261-1.683.666-2.924,1.1a25.5,25.5,0,0,1-4.454,1.188,12.6,12.6,0,0,1-2.7.18,3.986,3.986,0,0,1-1.332-.342,1.989,1.989,0,0,1-.9-.963,2.618,2.618,0,0,1,.531-2.564,4.786,4.786,0,0,1,2.2-1.4c.81-.3,1.629-.486,2.366-.72s1.44-.459,2.061-.693c1.242-.459,2.231-.9,2.9-1.206A7.341,7.341,0,0,0,296.442,448.29Z" transform="translate(-88.554 -188.536)" fill="#aa6550"/>
    <path id="Path_597" data-name="Path 597" d="M295.408,441.31a6.444,6.444,0,0,0-1.062.414c-.684.279-1.674.675-2.906,1.116s-2.7.9-4.409,1.368a6.118,6.118,0,0,0-2.555,1.1,2.141,2.141,0,0,0-.729,1.35,2.816,2.816,0,0,0,.225,1.575,3.743,3.743,0,0,0,2.321,1.89,6.127,6.127,0,0,0,2.78.162,27.256,27.256,0,0,0,4.445-1.386l2.915-1.1a8.235,8.235,0,0,0,1.062-.441,6.467,6.467,0,0,0-1.107.315l-2.96.981a28.521,28.521,0,0,1-4.4,1.3,5.7,5.7,0,0,1-2.627-.171,3.392,3.392,0,0,1-2.1-1.71,2.052,2.052,0,0,1,.378-2.483,5.9,5.9,0,0,1,2.411-1.035A45.413,45.413,0,0,0,291.5,443.1c1.233-.477,2.2-.9,2.87-1.233a6.817,6.817,0,0,0,1.035-.558Z" transform="translate(-88.437 -187.837)" fill="#aa6550"/>
    <path id="Path_598" data-name="Path 598" d="M292.079,443.01a10.478,10.478,0,0,0,.36-1.755,12.013,12.013,0,0,0,.4-1.746,4.292,4.292,0,0,0-.765,3.5Z" transform="translate(-89.265 -187.656)" fill="#aa6550"/>
    <path id="Path_599" data-name="Path 599" d="M257.93,442.945l7.7-3.149s21.352-10.518,21.73-9.987,1.548.459,1.341,3.1-12.651,8.2-13.029,9.115.378,5.507-4.193,8.908-7.918,3.536-7.918,3.536" transform="translate(-85.853 -186.682)" fill="#b78876"/>
    <path id="Path_600" data-name="Path 600" d="M263.559,454.442h.18l.54-.063a11.637,11.637,0,0,0,2.007-.522,19.714,19.714,0,0,0,6.505-3.932,9.394,9.394,0,0,0,2.555-4.6,21.745,21.745,0,0,0,.4-2.906,1.683,1.683,0,0,1,.063-.333.648.648,0,0,1,.207-.216c.189-.144.4-.288.621-.423.432-.261.9-.522,1.35-.783,1.8-1.035,3.815-2.088,5.8-3.284a34.826,34.826,0,0,0,2.951-1.953,11.474,11.474,0,0,0,1.386-1.2,4.148,4.148,0,0,0,.576-.765,1.474,1.474,0,0,0,.162-.486,2.987,2.987,0,0,0,0-.477,3.356,3.356,0,0,0-.369-1.872,2.277,2.277,0,0,0-.7-.675,1.215,1.215,0,0,1-.3-.252l-.081-.072a.3.3,0,0,0-.153-.045h-.153l-.234.063c-1.161.378-2.213.9-3.284,1.341-2.105.9-4.13,1.89-6.046,2.8-3.833,1.8-7.27,3.509-10.149,4.931-.72.351-1.395.72-2.052,1.008l-1.88.792-3.014,1.26-1.9.819-.495.225-.162.081a.487.487,0,0,0,.18-.054l.5-.18,1.926-.756,3.041-1.215,1.9-.756c.666-.3,1.341-.648,2.069-.99l10.176-4.859c1.926-.9,3.941-1.845,6.046-2.78,1.062-.459,2.142-.954,3.248-1.323l.2-.045h.072v-.09h0c-.243.162-.063.054-.108.09h0a1.394,1.394,0,0,0,.387.324,1.988,1.988,0,0,1,.594.567,3.122,3.122,0,0,1,.315,1.674,1.548,1.548,0,0,1-.162.8,3.443,3.443,0,0,1-.522.684,10.171,10.171,0,0,1-1.332,1.161,33.522,33.522,0,0,1-2.924,1.934c-1.97,1.2-3.932,2.249-5.777,3.293-.468.27-.9.531-1.368.81-.216.135-.432.279-.648.441a.837.837,0,0,0-.3.351,1.8,1.8,0,0,0-.081.4,21.591,21.591,0,0,1-.243,2.861,9.159,9.159,0,0,1-2.438,4.5,18,18,0,0,1-3.446,2.555,18.568,18.568,0,0,1-2.933,1.421,13.834,13.834,0,0,1-1.971.585c-.225.054-.4.081-.522.1Z" transform="translate(-85.849 -186.662)" fill="#aa6550"/>
    <path id="Path_601" data-name="Path 601" d="M290.13,457.78a2.7,2.7,0,0,0-.819.261,7.973,7.973,0,0,0-2.006,1.215,7.109,7.109,0,0,0-1.152,1.17,2.456,2.456,0,0,0-.594,1.8,2.024,2.024,0,0,0,1.476,1.521,3.878,3.878,0,0,0,2.258-.117,41.527,41.527,0,0,0,7.09-3.023,21.132,21.132,0,0,0,1.98-1.233,3.256,3.256,0,0,0,.675-.522,3.682,3.682,0,0,0-.747.4c-.477.279-1.161.675-2.034,1.125a49.337,49.337,0,0,1-7.072,2.9,3.518,3.518,0,0,1-2.052.126,1.683,1.683,0,0,1-1.242-1.233,2.169,2.169,0,0,1,.5-1.593,6.986,6.986,0,0,1,1.071-1.152,12.814,12.814,0,0,1,2.663-1.647Z" transform="translate(-88.621 -189.487)" fill="#aa6550"/>
    <path id="Path_602" data-name="Path 602" d="M113.1,220.126a2.87,2.87,0,0,1-1.161-4.76c-1.458-.8-1.044-3.1.1-4.319s2.771-1.952,3.662-3.356a3.41,3.41,0,0,1-4.076-2.951,2.78,2.78,0,0,1-1.8-5.1c-1.557-.135-1.431-2.7-.126-3.6s3.014-.81,4.436-1.476a18.436,18.436,0,0,1,9.763-5.732l-6.37-4.742a3.716,3.716,0,0,1-1.287-1.359c-.558-1.269.441-2.7,1.485-3.6a14.991,14.991,0,0,1,7.927-3.464c.9-.108,2.123,0,2.42.9a13.822,13.822,0,0,1,6.46-.72,5.139,5.139,0,0,1,3.446,1.044,10.177,10.177,0,0,0-2.276-2.852,4.346,4.346,0,0,1-1.476-3.23c.126-1.215,1.593-2.276,2.6-1.584-1.134-.531-.981-2.357,0-3.149a5.723,5.723,0,0,1,3.6-.9c.9,0,1.98.126,2.222.972.4-1.952,3.734-2.231,4.436-.369a3.032,3.032,0,0,1,4.355.342,3.887,3.887,0,0,1,5.5,2.042l-3.392-5.678c-.639-1.08-.747-3.086.495-2.96-1.8,0-2.807-2.429-1.934-3.986a4.631,4.631,0,0,1,4.661-1.926l1.548,2.24a3.527,3.527,0,0,1,5.4,3.932c.72-.774,2.114-.351,2.7.531a5.264,5.264,0,0,1,.513,3.059c1.737-1.458,4.922.234,4.679,2.492a9.843,9.843,0,0,1,5.129-1.062,3.473,3.473,0,0,1,4.5-4.931,3.419,3.419,0,0,1,4.418-2.78c.549-2.069,3.266-3.6,4.913-2.24s.792,4.148-.252,6.1c-1.143,2.114-2.276,4.238-3.41,6.352l11.085-5.939a1.926,1.926,0,0,1,1.107-.333c.54.063.9.558,1.395.792a13.5,13.5,0,0,0,2.2.387c1.952.6,1.925,3.6.585,5.138s-3.392,2.285-4.9,3.653l4.922.9a5.03,5.03,0,0,1,6.442-3.284c.675-1.8,3.1-2.051,5.039-1.97,1.737.072,3.644.216,4.877,1.449,1.566,1.566,1.269,4.319-.045,6.1s-3.392,2.825-5.4,3.806c.324,1.476,2.24,1.926,3.734,1.71s3.05-.81,4.5-.27c1.917.72,2.7,3.2,4.661,3.9a7.81,7.81,0,0,1,1.8.585,3.455,3.455,0,0,1,1.179,2.285c.243,1.071.486,2.132.72,3.2a3.734,3.734,0,0,1,.135,1.6c-.351,1.746-2.78,2.114-4.418,1.449s-3.05-1.97-4.8-2.222c2.312,1.152,4.76,2.42,6.046,4.661s.765,5.714-1.665,6.586-4.895-1.251-6.685-3.149-4.364-3.941-6.748-2.852" transform="translate(-70.881 -153.569)" fill="#263238"/>
    <path id="Path_603" data-name="Path 603" d="M116.5,222.091c-1.872-1.386-5.048.45-4.769,2.762a6.6,6.6,0,0,0-2.474,11.391c1.458,1.224,4.346,1.269,4.652-.6a5.147,5.147,0,0,0,3.6,3.158,4.976,4.976,0,0,0,2.007,7.045c-2.96,2.042-2.4,7.405.9,8.791a4.06,4.06,0,0,0,7.414,3.311,8.675,8.675,0,0,0,2.7,4.049c1.359.927,3.6.765,4.283-.729a5.579,5.579,0,0,0,7.936,3.347,3.6,3.6,0,1,0,7.09,1.242l9.286.711a33.716,33.716,0,0,0,6.172.09,16.691,16.691,0,0,0,7.351-2.7,3.932,3.932,0,0,1,5.057-.441,15.062,15.062,0,0,0,14.549-2.141,7.431,7.431,0,0,1,2.016-1.341,6.811,6.811,0,0,1,2.771-.144,27.164,27.164,0,0,0,6.829-.387c1.926-.36,3.986-1.053,5.021-2.7s.225-4.436-1.728-4.58A4.193,4.193,0,0,1,208.5,248.8a2.528,2.528,0,0,1,3.437.144c.81.99.18,2.834-1.089,2.9,1.97,1.629,5.4-.126,5.678-2.7s-2.078-4.877-4.625-5.111a11.643,11.643,0,0,0,.63-5.6,4.139,4.139,0,0,0,5.561,1.116,7.2,7.2,0,0,0,4.319,3.707,4.283,4.283,0,0,0,4.931-2.159c.756-1.8-.621-4.265-2.573-4.211,1.548-2.06-.225-5.588-2.807-5.579a5.714,5.714,0,0,0-2.96-6.352,3.014,3.014,0,0,0,4.418-1.287c1.017,1.971,3.932,1.8,5.93.81,1.575-.747,3.113-1.881,2.861-4.148a4.5,4.5,0,0,0-1.413-2.789c-1.8-1.728-4.4-2.051-6.829-2.321a29.693,29.693,0,0,1-2.051-9.493,5.74,5.74,0,0,0,6.208-4.13l-13.452-8.359s-31.123-4.8-32.239-4.8-66.178,33.508-66.178,33.508c-1.512,1.575-4.445.9-5.552-1.017a6.005,6.005,0,0,1,.522-6.172,17.887,17.887,0,0,1,4.76-4.427c-2.087-.144-4.31-.333-5.849-1.845a3.311,3.311,0,0,1-.9-3.6c.747-1.8,2.825-1.674,4.157-2.7a7.567,7.567,0,0,0,1.71-2.375" transform="translate(-70.717 -157.063)" fill="#263238"/>
    <path id="Path_604" data-name="Path 604" d="M207.056,215.378c-.774-11.112-8.233-24.708-19.309-23.457l-34.533,9a6.514,6.514,0,0,0-5.786,6.649l3.815,74.627-8.323,3.977c-.081,0,8.62,4.841,8.539,4.859s7.99,23.493,30.817,16.2c4.5-1.449,6.577-6.415,7.45-11.517h.234c0-.6,7.549-6.388,7.558-6.964,0,.576-7.441-4.22-7.441-4.22V273.072c0,.063,14.189-2.456,17.006-21.01C208.486,242.812,207.92,227.705,207.056,215.378Z" transform="translate(-74.325 -157.405)" fill="#b78876"/>
    <path id="Path_605" data-name="Path 605" d="M208.472,232.612a2.375,2.375,0,0,1-2.276,2.42,2.285,2.285,0,0,1-2.465-2.132,2.384,2.384,0,0,1,2.276-2.411,2.267,2.267,0,0,1,2.465,2.123Z" transform="translate(-80.42 -162.622)" fill="#263238"/>
    <path id="Path_606" data-name="Path 606" d="M209.573,226.464c-.3.306-2.105-1.008-4.661-.99s-4.427,1.323-4.706,1.008c-.135-.135.162-.7.972-1.3a6.524,6.524,0,0,1,3.761-1.2,6.236,6.236,0,0,1,3.716,1.179C209.447,225.8,209.717,226.32,209.573,226.464Z" transform="translate(-80.064 -161.849)" fill="#263238"/>
    <path id="Path_607" data-name="Path 607" d="M181.342,232.762a2.375,2.375,0,0,1-2.276,2.42,2.276,2.276,0,0,1-2.465-2.132,2.384,2.384,0,0,1,2.276-2.411,2.267,2.267,0,0,1,2.465,2.123Z" transform="translate(-77.701 -162.64)" fill="#263238"/>
    <path id="Path_608" data-name="Path 608" d="M181.633,227.185c-.3.306-2.105-1.008-4.661-.99s-4.427,1.323-4.706,1.008c-.135-.135.153-.7.972-1.3A6.46,6.46,0,0,1,177,224.72a6.235,6.235,0,0,1,3.716,1.17C181.5,226.483,181.777,227.041,181.633,227.185Z" transform="translate(-77.264 -161.935)" fill="#263238"/>
    <path id="Path_609" data-name="Path 609" d="M192.991,246.1c0-.144,1.575-.432,4.148-.774.657-.072,1.269-.207,1.377-.657a3.311,3.311,0,0,0-.45-1.935l-1.962-4.958c-2.7-7.063-4.715-12.876-4.427-12.984s2.7,5.534,5.462,12.6c.657,1.746,1.287,3.4,1.881,4.994a3.779,3.779,0,0,1,.36,2.555,1.62,1.62,0,0,1-1.071.963,4.059,4.059,0,0,1-1.107.162C194.61,246.222,193,246.24,192.991,246.1Z" transform="translate(-79.21 -162.032)" fill="#263238"/>
    <path id="Path_610" data-name="Path 610" d="M192.56,281.381a47.148,47.148,0,0,1-24.87-6.451s6.109,12.687,24.654,10.8Z" transform="translate(-76.808 -167.904)" fill="#aa6550"/>
    <path id="Path_611" data-name="Path 611" d="M192.435,254.566a6.451,6.451,0,0,0-5.309-2.816,3.914,3.914,0,0,0-3.293,6.127,4.013,4.013,0,0,0,4.247,1.53,9.321,9.321,0,0,0,3.806-2.393,2.933,2.933,0,0,0,.819-.99,1.359,1.359,0,0,0-.126-1.332" transform="translate(-78.357 -165.146)" fill="#aa6550"/>
    <path id="Path_612" data-name="Path 612" d="M184.745,250.49c.414,0,.432,2.753,2.825,4.706s5.345,1.629,5.4,2.015c0,.18-.657.549-1.908.594a6.955,6.955,0,0,1-4.5-1.53,6.047,6.047,0,0,1-2.2-3.95C184.25,251.174,184.547,250.481,184.745,250.49Z" transform="translate(-78.477 -164.994)" fill="#263238"/>
    <path id="Path_613" data-name="Path 613" d="M182.621,220.69c-.243.693-2.8.378-5.8.765s-5.4,1.215-5.822.594c-.18-.3.243-.954,1.215-1.629a10.14,10.14,0,0,1,8.854-1.044C182.171,219.817,182.693,220.357,182.621,220.69Z" transform="translate(-77.135 -161.243)" fill="#263238"/>
    <path id="Path_614" data-name="Path 614" d="M208.549,218.232c-.45.585-2.213,0-4.337,0s-3.905.423-4.328-.189c-.18-.288.1-.9.9-1.431a6.3,6.3,0,0,1,6.973.171C208.495,217.35,208.747,217.944,208.549,218.232Z" transform="translate(-80.03 -160.869)" fill="#263238"/>
    <path id="Path_615" data-name="Path 615" d="M146.388,225.334a3.086,3.086,0,0,0,.9,3.545,2.132,2.132,0,0,0,3.032-.837c.81,1.089,2.7,0,2.42-1.44,1,.567,2.312-.783,2-2.042,1.161.45,1.854-1.431,2.465-2.7.342-.693.8-1.278,1.2-1.917a12.957,12.957,0,0,0,1.926-6.991c1.521-1.719,1.908-4.382,2.222-6.847.189-1.539.387-3.077.576-4.616l.9-1.062a2.5,2.5,0,0,0,1.656,2.393,5.282,5.282,0,0,0,2.8,0l2.762-.522,1.71.5c-.5,1.431,0,3.059.495,4.5a4.382,4.382,0,0,0,1.584,2.51,1.3,1.3,0,0,0,1.8-1.386,1.449,1.449,0,0,0,2.24-.342,4.8,4.8,0,0,0,.63-2.843,12.129,12.129,0,0,0-2.186-6.7l4.778,4.5a2.222,2.222,0,0,0,1.17.72,1.26,1.26,0,0,0,1.314,1.422,3.257,3.257,0,0,0,1.8-1.2c1.17-1.215,2.411-3.293,1.377-4.679a1.035,1.035,0,0,0,.468-1.521l5.4,4.157c-.54-.315-1.143.531-1.026,1.233a2.87,2.87,0,0,0,1.125,1.611,4.246,4.246,0,0,0-.639,2.582c-.972-.9-2.447.738-2.141,2.141a3.059,3.059,0,0,0,2.861,2.258,2.141,2.141,0,0,0,2.438-1.575c1.188.261,2.348-1.377,1.926-2.7.9.576,1.629-.972,1.683-2.141a17.1,17.1,0,0,0-.9-6.3c0,.306.306.558.522.4a.459.459,0,0,0-.09-.72c1.017,2.492,2.033,4.994,3.041,7.486a17.24,17.24,0,0,1,1.656,6.235c0,.9.108,2.114.9,2.2a1.08,1.08,0,0,0,.585-.153,11.139,11.139,0,0,0,4.931-5.678,8.486,8.486,0,0,0,.756-2.627c.18-1.917-.612-3.761-.738-5.687a19.562,19.562,0,0,0-.162-2.528,7.531,7.531,0,0,0-1.952-3.32c-2.915-3.4-6-6.919-9.9-8.3-2.393-.837-4.958-.828-7.36-1.647a42.333,42.333,0,0,1-4.31-2c-5.921-2.8-12.471-3.176-18.823-2.645a29.935,29.935,0,0,0-10.446,2.42,36.681,36.681,0,0,0-9.817,7.5,55.424,55.424,0,0,0-11.562,15.467c-2.2,4.643-3.6,10.059-2.789,15.3s4,10.167,8.395,11.265l1.728-1.979" transform="translate(-73.367 -156.203)" fill="#263238"/>
    <path id="Path_616" data-name="Path 616" d="M152.33,234.288c-.252-.117-10.32-3.32-10.23,7.027s10.464,8.1,10.473,7.828S152.33,234.288,152.33,234.288Z" transform="translate(-74.243 -163.063)" fill="#b78876"/>
    <path id="Path_617" data-name="Path 617" d="M149.672,245.616c-.045,0-.18.126-.477.27a1.8,1.8,0,0,1-1.35,0c-1.1-.4-2.033-2.123-2.1-3.986a5.939,5.939,0,0,1,.477-2.582,2.078,2.078,0,0,1,1.35-1.395.9.9,0,0,1,1.062.477c.144.288.081.495.135.513s.225-.171.135-.6a1.179,1.179,0,0,0-.414-.639,1.377,1.377,0,0,0-1-.252,2.51,2.51,0,0,0-1.872,1.62,6,6,0,0,0-.594,2.888c.081,2.078,1.17,4.022,2.7,4.445a1.953,1.953,0,0,0,1.647-.288C149.663,245.867,149.708,245.634,149.672,245.616Z" transform="translate(-74.536 -163.461)" fill="#aa6550"/>
    <path id="Path_618" data-name="Path 618" d="M188.322,229.443a23.161,23.161,0,0,0-.477-2.969,12.147,12.147,0,0,0-4.5-6.64,11.877,11.877,0,0,0-5.093-2.24,12.12,12.12,0,0,0-6.3.54,12.047,12.047,0,0,0-5.588,18.427,11.211,11.211,0,0,0,2.537,2.555,11.419,11.419,0,0,0,3.05,1.647,12.129,12.129,0,0,0,6.3.54,11.985,11.985,0,0,0,5.093-2.24,12.21,12.21,0,0,0,4.5-6.64,22.872,22.872,0,0,0,.477-2.978,5.75,5.75,0,0,1,0,.783,4.772,4.772,0,0,1-.072.954,7.668,7.668,0,0,1-.225,1.278,12.183,12.183,0,0,1-4.445,6.865,12.39,12.39,0,0,1-11.778,1.845,12.461,12.461,0,0,1-5.8-19.1,12.354,12.354,0,0,1,5.8-4.337,12.507,12.507,0,0,1,6.55-.522,12.381,12.381,0,0,1,5.219,2.357,12.237,12.237,0,0,1,4.454,6.865,7.931,7.931,0,0,1,.225,1.287,4.679,4.679,0,0,1,.072.945,5.75,5.75,0,0,1,0,.783Z" transform="translate(-76.394 -161.121)" fill="#455a64"/>
    <path id="Path_619" data-name="Path 619" d="M220.761,229.441a23.158,23.158,0,0,0-.477-2.969,12.147,12.147,0,0,0-4.5-6.64,11.878,11.878,0,0,0-5.093-2.24,12.138,12.138,0,0,0-6.3.54,12.047,12.047,0,0,0-5.588,18.427,11.211,11.211,0,0,0,2.537,2.555,11.418,11.418,0,0,0,3.05,1.647,12.138,12.138,0,0,0,6.3.54,11.985,11.985,0,0,0,5.093-2.24,12.21,12.21,0,0,0,4.5-6.64,22.873,22.873,0,0,0,.477-2.978,6.5,6.5,0,0,1,0,.783,5.66,5.66,0,0,1-.081.954,7.662,7.662,0,0,1-.225,1.278,12.183,12.183,0,0,1-4.445,6.865,12.39,12.39,0,0,1-11.778,1.845,12.461,12.461,0,0,1-5.8-19.1,12.462,12.462,0,0,1,17.582-2.537,12.21,12.21,0,0,1,4.445,6.865,7.925,7.925,0,0,1,.225,1.287,5.559,5.559,0,0,1,.081.945,6.484,6.484,0,0,1,0,.819Z" transform="translate(-79.645 -161.119)" fill="#455a64"/>
    <path id="Path_620" data-name="Path 620" d="M196.231,227.533c-.054.135-1.233-.351-2.771-.4s-2.744.342-2.789.207a5.4,5.4,0,0,1,5.561.189Z" transform="translate(-79.111 -162.156)" fill="#455a64"/>
    <path id="Path_621" data-name="Path 621" d="M162.552,232.177a20.173,20.173,0,0,1-5.165,1.314,19.975,19.975,0,0,1-5.318.378c0-.135,2.348-.369,5.237-.837A48.055,48.055,0,0,1,162.552,232.177Z" transform="translate(-75.243 -162.805)" fill="#455a64"/>
    <path id="Path_622" data-name="Path 622" d="M188.713,228.69a6.73,6.73,0,0,1-.126,2.312,14.531,14.531,0,0,1-2.033,5.21,12.534,12.534,0,0,1-3.905,4.013,2.942,2.942,0,0,1-2.258.5,5.669,5.669,0,0,0,2.087-.783,13.83,13.83,0,0,0,3.68-3.986,16.386,16.386,0,0,0,2.105-5.021C188.587,229.563,188.632,228.681,188.713,228.69Z" transform="translate(-78.081 -162.448)" fill="#fff"/>
    <path id="Path_623" data-name="Path 623" d="M219.219,235.923a16.308,16.308,0,0,1,.99-1.935,9.268,9.268,0,0,0,.81-2.15,7.387,7.387,0,0,0,.054-2.789,14.864,14.864,0,0,0-1.467-4.931c-.63-1.161-1.26-1.728-1.2-1.8s.2.09.477.351a6.4,6.4,0,0,1,1.008,1.26,13,13,0,0,1,1.638,5.039,7.333,7.333,0,0,1-.09,2.951,8.477,8.477,0,0,1-.945,2.213A7.2,7.2,0,0,1,219.219,235.923Z" transform="translate(-81.891 -161.699)" fill="#fff"/>
    <path id="Path_624" data-name="Path 624" d="M145.1,250.312a4.491,4.491,0,0,0-.684.432,3.347,3.347,0,0,0-1.179,1.728,2.933,2.933,0,0,0,.621,2.888,3.5,3.5,0,0,0,3.446,1.008,3.725,3.725,0,0,0,1.863-5.669,4.6,4.6,0,0,0-1.575-1.44,5.181,5.181,0,0,1-.72-.369,1.854,1.854,0,0,1,.8.207,4.265,4.265,0,0,1,1.8,1.413,3.968,3.968,0,0,1,.729,3.275,4.13,4.13,0,0,1-2.7,3.032,3.905,3.905,0,0,1-3.9-1.17,3.221,3.221,0,0,1-.783-1.683,3.392,3.392,0,0,1,.171-1.593,3.293,3.293,0,0,1,1.395-1.8A1.158,1.158,0,0,1,145.1,250.312Z" transform="translate(-74.312 -164.81)" fill="#455a64"/>
    <path id="Path_625" data-name="Path 625" d="M191.365,196.8a2.519,2.519,0,0,0,.693-1.332,1.844,1.844,0,0,0-.459-1.557,1.97,1.97,0,0,0-1.979-.513l-.432.144.189-.414a2.06,2.06,0,0,0-.549-2.294,2.015,2.015,0,0,0-2.573.09l-.333-.288a.81.81,0,0,0,.144-.261,1.143,1.143,0,0,0-.162-.972,1.359,1.359,0,0,0-.846-.54,2.123,2.123,0,0,0-1.035.054,2.879,2.879,0,0,1-1.161.252c-.495-.09-.711-.459-.963-.621a4.192,4.192,0,0,0-.8-.495,4.409,4.409,0,0,0-1.665-.378,4.5,4.5,0,0,0-2.411.576c-.513.3-.756.549-.783.513a2.1,2.1,0,0,1,.684-.666,4.4,4.4,0,0,1,2.519-.756,4.67,4.67,0,0,1,1.8.351,4.374,4.374,0,0,1,.9.531c.3.216.522.495.774.522a3.006,3.006,0,0,0,.981-.261,2.537,2.537,0,0,1,1.251-.063,1.8,1.8,0,0,1,1.134.72,1.611,1.611,0,0,1,.225,1.377,1.332,1.332,0,0,1-.234.414l-.351-.3a2.375,2.375,0,0,1,3.806,2.7l-.243-.27a2.294,2.294,0,0,1,2.339.666,2.123,2.123,0,0,1-.117,2.879C191.509,196.752,191.374,196.815,191.365,196.8Z" transform="translate(-77.665 -156.954)" fill="#455a64"/>
    <path id="Path_626" data-name="Path 626" d="M203.89,199.391a3.131,3.131,0,0,0,.9-1.3,2.3,2.3,0,0,0-.108-1.746,2.4,2.4,0,0,0-1.8-1.323l-.333-.045.225-.252a2.888,2.888,0,0,0,.792-2.528,1.53,1.53,0,0,0-.9-1.044,1.206,1.206,0,0,0-1.368.18l-1.323,1.395.963-1.665a2.4,2.4,0,0,0,.126-2.024,2.213,2.213,0,0,0-1.593-1.368,2.33,2.33,0,0,0-1.548.153l-.54.27.216-.567c.315-.792-.495-1.719-1.3-1.8a3.914,3.914,0,0,0-2.447.612l-.45.243.144-.486a1.709,1.709,0,0,0-.558-1.647,3.122,3.122,0,0,0-1.593-.711,8.026,8.026,0,0,0-2.969.072,12.4,12.4,0,0,0-2.492.9,2.258,2.258,0,0,1,.576-.4,7.882,7.882,0,0,1,4.949-.9,3.446,3.446,0,0,1,1.8.765,2.1,2.1,0,0,1,.7,2.052l-.306-.243a4.3,4.3,0,0,1,2.7-.684,2.142,2.142,0,0,1,1.359.81,1.647,1.647,0,0,1,.3,1.638l-.315-.3a2.816,2.816,0,0,1,1.863-.2,2.7,2.7,0,0,1,1.926,1.665,2.852,2.852,0,0,1-.18,2.411l-.351-.27a1.656,1.656,0,0,1,1.863-.27,1.98,1.98,0,0,1,1.161,1.341,3.221,3.221,0,0,1-.9,2.87l-.1-.3a2.7,2.7,0,0,1,2.024,1.557,2.51,2.51,0,0,1,0,1.944,2.474,2.474,0,0,1-.7,1C204.034,199.346,203.9,199.409,203.89,199.391Z" transform="translate(-78.637 -156.552)" fill="#455a64"/>
    <path id="Path_627" data-name="Path 627" d="M231.114,201.837a1.719,1.719,0,0,0-.6-1.269,2.259,2.259,0,0,0-1.539-.558,6.749,6.749,0,0,0-2.213.522l-.252.1v-.279a2.006,2.006,0,0,0-1.638-1.944,5.75,5.75,0,0,0-3.284.522l-1.449.54,1.242-.9a1.656,1.656,0,0,0-.126-2.366,3.734,3.734,0,0,0-2.9-.693h-.135l-.9.081.765-.513a1.8,1.8,0,0,0-.2-2.789,2.7,2.7,0,0,0-2.978.288l-.945.747.63-1.035a3.986,3.986,0,0,0,0-4.067,3.743,3.743,0,0,0-2.7-1.755,4.337,4.337,0,0,0-2.186.279c-.477.207-.711.387-.729.36s.045-.063.153-.153a2.953,2.953,0,0,1,.522-.333,4.175,4.175,0,0,1,2.276-.414,4,4,0,0,1,3.014,1.8,4.373,4.373,0,0,1,.072,4.5l-.315-.288a3.1,3.1,0,0,1,3.491-.333,2.249,2.249,0,0,1,1,1.692,1.989,1.989,0,0,1-.792,1.881l-.153-.432h.144a4.13,4.13,0,0,1,3.248.819,2.394,2.394,0,0,1,.7,1.53,1.737,1.737,0,0,1-.63,1.521l-.207-.387a6.109,6.109,0,0,1,3.545-.495,2.348,2.348,0,0,1,1.863,2.375l-.225-.18a6.514,6.514,0,0,1,2.33-.468,2.394,2.394,0,0,1,1.656.684,1.692,1.692,0,0,1,.522,1.017.666.666,0,0,1-.081.4Z" transform="translate(-80.946 -156.838)" fill="#455a64"/>
    <path id="Path_628" data-name="Path 628" d="M216.773,177.219a1.341,1.341,0,0,1-.612.225,8,8,0,0,1-1.8.09,5.264,5.264,0,0,0-2.6.4,1.656,1.656,0,0,0-.9,1.125,1.215,1.215,0,0,0,.477,1.368l-.315.225c-.1-.594-.837-.972-1.5-1.368a7.738,7.738,0,0,0-2.186-.9,2.843,2.843,0,0,0-2.213.342,1.881,1.881,0,0,0-.963,1.719l.072.576-.432-.387a5.192,5.192,0,0,0-3.041-1.251,5.8,5.8,0,0,0-2.609.378,7.243,7.243,0,0,0-2,1.278,2.626,2.626,0,0,1,.4-.513,5.093,5.093,0,0,1,1.494-1.017,5.93,5.93,0,0,1,2.7-.495,5.48,5.48,0,0,1,3.311,1.3l-.36.189a2.3,2.3,0,0,1,1.143-2.159,3.275,3.275,0,0,1,2.564-.414,8.1,8.1,0,0,1,2.312,1,9.741,9.741,0,0,1,1.017.657,1.692,1.692,0,0,1,.693,1.053l.063.441-.387-.216a1.62,1.62,0,0,1-.666-1.845,2.051,2.051,0,0,1,1.143-1.368,5.4,5.4,0,0,1,2.78-.333,10.287,10.287,0,0,0,1.8,0C216.548,177.264,216.764,177.192,216.773,177.219Z" transform="translate(-79.661 -155.939)" fill="#455a64"/>
    <path id="Path_629" data-name="Path 629" d="M192.266,167.249a4.741,4.741,0,0,0-1.224.171,2.915,2.915,0,0,0-1.17.738,2.546,2.546,0,0,0-.747,1.566v.252l-.243-.081a1.53,1.53,0,0,0-1.7.963,4.616,4.616,0,0,0-.09,2.564l.144.9-.576-.747-.09-.117a1.961,1.961,0,0,0-1.6-.666,2.178,2.178,0,0,0-1.521.666,3.509,3.509,0,0,0-.9,2.753,6.3,6.3,0,0,0,.522,2.016,3.014,3.014,0,0,1,.279.729,2.277,2.277,0,0,1-.45-.657,5.8,5.8,0,0,1-.684-2.06,3.788,3.788,0,0,1,.963-3.086,2.6,2.6,0,0,1,3.8,0l.117.153-.432.162a4.985,4.985,0,0,1,.153-2.834,1.926,1.926,0,0,1,2.231-1.143l-.261.171a2.889,2.889,0,0,1,.9-1.8,3.131,3.131,0,0,1,1.332-.729,2.644,2.644,0,0,1,.963-.054A2.056,2.056,0,0,1,192.266,167.249Z" transform="translate(-78.26 -154.921)" fill="#455a64"/>
    <path id="Path_630" data-name="Path 630" d="M170.029,181.589a2.022,2.022,0,0,1-.612-.135,3.932,3.932,0,0,1-1.4-1,4.148,4.148,0,0,1-1.071-2.339,2.078,2.078,0,0,0-.306-1.269c-.261-.333-.828-.54-1.179-1.08a2.339,2.339,0,0,1,.594-3.149v.342a7.441,7.441,0,0,1-1.988-2.771,2.816,2.816,0,0,1-.324-1.269,12.1,12.1,0,0,1,.558,1.161,8.1,8.1,0,0,0,2.033,2.555l.225.18-.243.162a1.935,1.935,0,0,0-.45,2.537c.234.4.747.576,1.143,1.035a2.376,2.376,0,0,1,.387,1.53,3.941,3.941,0,0,0,.9,2.159,5.939,5.939,0,0,0,1.737,1.35Z" transform="translate(-76.412 -155.108)" fill="#455a64"/>
    <path id="Path_631" data-name="Path 631" d="M161.9,186.7a.9.9,0,0,1-.387.054,5.04,5.04,0,0,1-1.107-.1,6.155,6.155,0,0,1-3.446-1.953h.3a4.094,4.094,0,0,1-4.5,1.242,2.465,2.465,0,0,1-1.485-1.161,5.4,5.4,0,0,1-.189-.675.9.9,0,0,0-.288-.432,3.1,3.1,0,0,0-1.08-.477,3.68,3.68,0,0,1-1.206-.495,1.314,1.314,0,0,1-.657-1.143l.3.2a4.112,4.112,0,0,1-2.852.072,4.382,4.382,0,0,1-1.871-1.179,3.734,3.734,0,0,1-.774-1.2,1.152,1.152,0,0,1-.108-.495,5.552,5.552,0,0,0,1.062,1.512,4.364,4.364,0,0,0,1.8,1.017,3.815,3.815,0,0,0,2.573-.117l.315-.135v.342a.9.9,0,0,0,.486.765,3.338,3.338,0,0,0,1.08.414,3.167,3.167,0,0,1,1.251.567,1.368,1.368,0,0,1,.441.648c.072.243.09.459.162.621a2.168,2.168,0,0,0,1.215.9,3.806,3.806,0,0,0,1.548.2,3.662,3.662,0,0,0,2.474-1.251l.153-.189.153.18a6.3,6.3,0,0,0,3.194,2C161.355,186.671,161.9,186.644,161.9,186.7Z" transform="translate(-74.288 -156.114)" fill="#455a64"/>
    <path id="Path_632" data-name="Path 632" d="M123.074,202.04a.418.418,0,0,0-.054-.162,2.232,2.232,0,0,1-.081-.486,4.886,4.886,0,0,1,.225-1.854,10.987,10.987,0,0,1,1.251-2.618,10.22,10.22,0,0,1,1.044-1.485,2.7,2.7,0,0,1,.81-.621,1.224,1.224,0,0,1,1.143,0l-.288.189a3.1,3.1,0,0,1,5.066-2.7l-.378.18a2.141,2.141,0,0,1,.9-1.746,2.061,2.061,0,0,1,2-.243,2.114,2.114,0,0,1,.9.693l-.423.162a1.359,1.359,0,0,1,.486-1.1,1.8,1.8,0,0,1,1.062-.441,4.139,4.139,0,0,1,2,.513l-.288.09a3.329,3.329,0,0,1,2.007-1.431,4.571,4.571,0,0,1,2.285,0,11.7,11.7,0,0,1,3.518,1.755l-.243.207a.837.837,0,0,1,.09-.81,1.5,1.5,0,0,1,.585-.441,2.339,2.339,0,0,1,1.242-.189,6.927,6.927,0,0,1,1.863.567,5.993,5.993,0,0,1,1.053.621,1.323,1.323,0,0,1,.315.279c0,.045-.486-.333-1.449-.729a6.667,6.667,0,0,0-1.8-.468,2.151,2.151,0,0,0-1.089.2c-.36.153-.657.495-.486.837l.252.513-.5-.3a11.7,11.7,0,0,0-3.428-1.647,4.319,4.319,0,0,0-2.087,0,2.9,2.9,0,0,0-1.746,1.233l-.108.171-.18-.081a3.788,3.788,0,0,0-1.8-.468c-.558,0-1.17.5-1.116,1.044l.072.819-.495-.666a1.8,1.8,0,0,0-.711-.54,1.6,1.6,0,0,0-1.548.189,1.665,1.665,0,0,0-.684,1.359v.5l-.387-.324a2.7,2.7,0,0,0-4.373,2.312v.387l-.324-.2c-.5-.3-1.107.117-1.5.531a9.313,9.313,0,0,0-1.026,1.4,11.759,11.759,0,0,0-1.314,2.519,6.064,6.064,0,0,0-.252,2.465Z" transform="translate(-72.322 -157.104)" fill="#455a64"/>
    <path id="Path_633" data-name="Path 633" d="M125.871,216.759a2.242,2.242,0,0,1-.234-.3,9,9,0,0,1-.549-.9,3.446,3.446,0,0,1-.369-1.71,2.636,2.636,0,0,1,.351-1.071A1.8,1.8,0,0,1,126.1,212l-.09.252a2.186,2.186,0,0,1,2.33-3.347l-.216.333a1.746,1.746,0,0,1,.063-2.079,2.582,2.582,0,0,1,2-.9,8.045,8.045,0,0,0,1.044,0,.9.9,0,0,0,.648-.558,3.781,3.781,0,0,1,.6-1.008,1.989,1.989,0,0,1,1.1-.6,11.7,11.7,0,0,1,2.492-.063,2.7,2.7,0,0,0,2.016-.585,10.017,10.017,0,0,0,.639-.9,2.393,2.393,0,0,1,.945-.729,2.483,2.483,0,0,1,2.186.117l-.27.288a1.863,1.863,0,0,1,.252-2.15,2.618,2.618,0,0,1,1.746-.9,8.341,8.341,0,0,1,3.059.378,9.5,9.5,0,0,1,1.8.738,2.167,2.167,0,0,1,.594.369,22.959,22.959,0,0,0-2.483-.9,8.53,8.53,0,0,0-2.951-.279,2.294,2.294,0,0,0-1.5.774,1.458,1.458,0,0,0-.2,1.683l.495.738-.774-.45a2.078,2.078,0,0,0-1.8-.072,1.9,1.9,0,0,0-.756.6q-.315.466-.675.9a2.421,2.421,0,0,1-1.107.621,6.426,6.426,0,0,1-1.233.117,11.7,11.7,0,0,0-2.384.045,1.548,1.548,0,0,0-.9.477,3.464,3.464,0,0,0-.54.9,1.35,1.35,0,0,1-.972.792,8.993,8.993,0,0,1-1.107,0,2.178,2.178,0,0,0-1.665.738,1.359,1.359,0,0,0-.09,1.566l.369.477-.585-.153a1.854,1.854,0,0,0-1.988.819,1.881,1.881,0,0,0,0,1.935l.126.2-.225.054a1.8,1.8,0,0,0-1.2,1.566,3.176,3.176,0,0,0,.279,1.611C125.61,216.291,125.871,216.732,125.871,216.759Z" transform="translate(-72.501 -158.138)" fill="#455a64"/>
    <path id="Path_634" data-name="Path 634" d="M126.567,247.922a1.188,1.188,0,0,1-.45-.153,3.131,3.131,0,0,1-1.071-.837,3.32,3.32,0,0,1-.783-1.98,3.6,3.6,0,0,1,.954-2.609v.252a6.568,6.568,0,0,1-1.215-2.33,2.582,2.582,0,0,1,.108-1.494,1.917,1.917,0,0,1,1.107-1.152v.4a2.7,2.7,0,0,1-1.17-2.438,3.041,3.041,0,0,1,.486-1.521,2.537,2.537,0,0,1,1.206-.963.886.886,0,0,0,.666-.9,3.788,3.788,0,0,1,.315-1.368,4.679,4.679,0,0,1,1.746-1.863c.63-.45,1.206-.9,1.755-1.26a8.017,8.017,0,0,1,2.852-1.341,3.6,3.6,0,0,1,.9-.063c.2,0,.3,0,.3.045s-.414,0-1.116.2a8.548,8.548,0,0,0-2.7,1.431l-1.71,1.3a4.319,4.319,0,0,0-1.584,1.728,3.212,3.212,0,0,0-.261,1.233,1.3,1.3,0,0,1-.261.765,1.853,1.853,0,0,1-.657.468,2.258,2.258,0,0,0-1.422,2.1,2.285,2.285,0,0,0,.9,2.024l.4.252-.45.162a1.872,1.872,0,0,0-.945,2.132,6.37,6.37,0,0,0,1.116,2.186l.09.135-.117.108a3.284,3.284,0,0,0-.9,2.33,3.149,3.149,0,0,0,.648,1.8,4.67,4.67,0,0,0,1.26,1.215Z" transform="translate(-72.423 -162.213)" fill="#455a64"/>
    <path id="Path_635" data-name="Path 635" d="M142.608,234.6a1.908,1.908,0,0,1-.639-.135,6.19,6.19,0,0,1-3.5-3.041,2.439,2.439,0,0,1-.315-1.8,1.2,1.2,0,0,1,.711-.8,1.008,1.008,0,0,1,1.143.189l-.351.216a3.158,3.158,0,0,1-.324-1.8,1.557,1.557,0,0,1,.558-.9,1.278,1.278,0,0,1,1.071-.153,1.953,1.953,0,0,0,.81.117c.171-.054.207-.27.189-.621a2.816,2.816,0,0,1,.792-1.98,3.086,3.086,0,0,1,3.176-.9l-.306.279a2.7,2.7,0,0,1,.486-2.582,1.638,1.638,0,0,1,1.269-.4,1.206,1.206,0,0,1,1.044.765l-.4.081a6.3,6.3,0,0,1,.792-3.41,6.649,6.649,0,0,1,1.746-2.051,5.822,5.822,0,0,1,1.512-.846,1.728,1.728,0,0,1,.594-.153,9,9,0,0,0-1.952,1.188,6.577,6.577,0,0,0-1.6,2.024,6.064,6.064,0,0,0-.684,3.221l.108,1.692-.5-1.611c-.18-.558-1.152-.648-1.62-.18a2.231,2.231,0,0,0-.342,2.141l.108.414-.4-.135a2.6,2.6,0,0,0-2.7.792,2.384,2.384,0,0,0-.675,1.647,1.8,1.8,0,0,1,0,.558.756.756,0,0,1-.45.5,2.087,2.087,0,0,1-1.071-.1.765.765,0,0,0-.711.072,1.053,1.053,0,0,0-.387.612,2.7,2.7,0,0,0,.279,1.548l.432,1.143-.783-.9c-.315-.369-1.08,0-1.179.441a2.186,2.186,0,0,0,.261,1.53,6.145,6.145,0,0,0,1.7,2.141A9.393,9.393,0,0,0,142.608,234.6Z" transform="translate(-73.842 -160.824)" fill="#455a64"/>
    <path id="Path_636" data-name="Path 636" d="M168.695,203.934a3.455,3.455,0,0,1-1.386-.549,3.968,3.968,0,0,1-1.26-1.1,2.573,2.573,0,0,1-.45-2.024,1.656,1.656,0,0,1,.189-.486l.1.315a2.24,2.24,0,0,1-1.152-1.539,2.06,2.06,0,0,1,.3-1.521c.513-.747,1.116-.819,1.116-.774a2.862,2.862,0,0,0-.837.9,1.745,1.745,0,0,0-.162,1.269,1.8,1.8,0,0,0,.945,1.215l.207.108-.108.216a1.656,1.656,0,0,0-.144.369,2.285,2.285,0,0,0,.36,1.683,4.247,4.247,0,0,0,1.08,1.053,7.991,7.991,0,0,1,1.206.864Z" transform="translate(-76.508 -157.847)" fill="#455a64"/>
    <path id="Path_637" data-name="Path 637" d="M179.868,198.393a2.808,2.808,0,0,0,.324-1.71,1.944,1.944,0,0,0-1.1-1.467,2.088,2.088,0,0,0-2.231.351l-.3.279-.072-.4a3.806,3.806,0,0,0-.531-1.377,1.8,1.8,0,0,0-1.17-.828c-.747-.108-1.584.585-1.377,1.206l-.441.09a3.545,3.545,0,0,0-1.287-2.33,3.437,3.437,0,0,0-2-.765,5.3,5.3,0,0,0-1.961.351,1.606,1.606,0,0,1,.459-.315,3.536,3.536,0,0,1,1.512-.324,3.6,3.6,0,0,1,2.231.747,3.914,3.914,0,0,1,1.494,2.582l-.441.09a1.3,1.3,0,0,1,.459-1.359,1.862,1.862,0,0,1,1.4-.441,2.231,2.231,0,0,1,1.5,1.044,4.2,4.2,0,0,1,.576,1.557l-.369-.126a2.465,2.465,0,0,1,2.7-.36,2.186,2.186,0,0,1,1.206,1.8,2.213,2.213,0,0,1-.27,1.368C180.021,198.3,179.877,198.4,179.868,198.393Z" transform="translate(-76.812 -157.336)" fill="#455a64"/>
    <path id="Path_638" data-name="Path 638" d="M219.828,368.713l13.641-5.633a183.5,183.5,0,0,0-8.17-33.6c-4.9-13.551-12.948-19.642-15.476-21.28v-.162l-4.112-2.483-17.519-11.247c3.086,14-21.981,28.37-43.3-1.7L109.66,306.862l9.214,99.785-8.737,44.143,88.178-.261v.855l18.76-.18-4.013-19.588c1.746-18.841,7.351-41.714,6.7-56.83C219.846,372.888,219.864,370.845,219.828,368.713Z" transform="translate(-70.992 -172.933)" fill="#ff725e"/>
    <path id="Path_639" data-name="Path 639" d="M227.691,412.772a4.322,4.322,0,0,0,.261-.72l.513-2.061c.225-.9.486-1.988.738-3.275s.585-2.7.846-4.364.585-3.4.828-5.327.495-3.977.729-6.145c.387-4.337.657-9.124.657-14.153s-.351-9.817-.711-14.162c-.243-2.168-.45-4.229-.747-6.145s-.558-3.7-.9-5.318-.594-3.077-.9-4.364-.513-2.375-.747-3.266-.387-1.548-.522-2.061a4.321,4.321,0,0,0-.216-.711,5.2,5.2,0,0,0,.126.738l.432,2.069c.207.9.441,2,.675,3.284s.549,2.7.792,4.364.558,3.4.792,5.318.477,3.977.7,6.136c.378,4.328.648,9.1.675,14.117s-.261,9.79-.621,14.117c-.225,2.159-.4,4.22-.684,6.136s-.5,3.7-.774,5.318-.54,3.086-.774,4.373-.459,2.384-.657,3.284-.324,1.557-.423,2.069a5.2,5.2,0,0,0-.09.747Z" transform="translate(-82.805 -176.638)" fill="#263238"/>
    <path id="Path_640" data-name="Path 640" d="M227.661,420a1.413,1.413,0,0,1-.054.45c-.063.351-.135.774-.225,1.287-.225,1.107-.513,2.7-.855,4.706a95.974,95.974,0,0,0-1.44,15.674,73.461,73.461,0,0,0,.522,8.647,69.79,69.79,0,0,0,1.278,6.964c.216.99.486,1.863.684,2.636s.4,1.431.576,1.97.27.9.369,1.251a1.528,1.528,0,0,1,.1.441,2.985,2.985,0,0,1-.189-.414l-.45-1.215c-.2-.54-.432-1.188-.657-1.962s-.522-1.638-.747-2.627a60.743,60.743,0,0,1-1.386-6.991,66.881,66.881,0,0,1-.567-8.7,87.283,87.283,0,0,1,1.575-15.728c.387-1.988.729-3.6,1.008-4.688.126-.513.225-.9.315-1.269A1.7,1.7,0,0,1,227.661,420Z" transform="translate(-82.514 -185.701)" fill="#263238"/>
    <path id="Path_641" data-name="Path 641" d="M70.64,378.322,88.716,326.6s4.742-15.242,19.138-19l10.239,51.728-4.751,28.3Z" transform="translate(-67.081 -172.696)" fill="#ff725e"/>
    <path id="Path_642" data-name="Path 642" d="M126.339,350a1.665,1.665,0,0,1,0,.441c0,.333-.072.747-.126,1.233-.117,1.08-.324,2.627-.621,4.5-.594,3.824-1.665,9.061-2.96,14.8s-2.465,10.959-3.248,14.738c-.378,1.8-.684,3.347-.9,4.5l-.27,1.215a1.386,1.386,0,0,1-.126.423,1.629,1.629,0,0,1,0-.441c.045-.333.108-.738.18-1.224.162-1.071.432-2.609.774-4.5.7-3.806,1.8-9,3.113-14.774s2.411-10.959,3.086-14.756c.351-1.9.6-3.437.774-4.5.081-.495.153-.9.207-1.233A1.441,1.441,0,0,1,126.339,350Z" transform="translate(-71.835 -177.219)" fill="#263238"/>
    <path id="Path_643" data-name="Path 643" d="M195.373,297.707a4.345,4.345,0,0,1,0,.684,3.625,3.625,0,0,1-.072.828c-.072.324-.117.711-.189,1.125a12.868,12.868,0,0,1-.378,1.377,15.569,15.569,0,0,1-.657,1.575,13.747,13.747,0,0,1-2.33,3.419,24.06,24.06,0,0,1-9,5.831,25.67,25.67,0,0,1-12.993,1.5,31.222,31.222,0,0,1-12.372-4.454,44.78,44.78,0,0,1-8.233-6.892,69.12,69.12,0,0,1-4.715-5.48c-.522-.675-.9-1.206-1.17-1.575a4.792,4.792,0,0,1-.387-.567,3.105,3.105,0,0,1,.459.513l1.242,1.512c1.089,1.314,2.7,3.2,4.814,5.4a45.545,45.545,0,0,0,8.215,6.748,31.231,31.231,0,0,0,12.174,4.346,25.419,25.419,0,0,0,12.795-1.494,23.952,23.952,0,0,0,8.89-5.651,13.865,13.865,0,0,0,2.339-3.311,13.492,13.492,0,0,0,.675-1.53c.162-.486.3-.9.414-1.35s.162-.774.234-1.1.081-.6.117-.819a3.022,3.022,0,0,1,.126-.639Z" transform="translate(-74.322 -170.363)" fill="#fafafa"/>
    <g id="Group_71" data-name="Group 71" transform="translate(45.146 184.236)" opacity="0.3">
      <path id="Path_644" data-name="Path 644" d="M117.49,421.055c5.345-6.3,5.858-15.3,6.109-23.6.324-10.491.1-22.6.423-33.094-1.944,9.3-4.877,23.574-6.3,28.955,0,0,.7,5.48.738,7.63,0,1.962-.135,4.1.054,6.056.468,5.039,1.26,10.608-1.656,14.756" transform="translate(-116.86 -364.36)"/>
    </g>
    <path id="Path_645" data-name="Path 645" d="M219.135,352.57a.764.764,0,0,1-.225.1l-.684.216-2.618.81c-1.143.36-2.537.774-4.184,1.2s-3.491.972-5.579,1.431-4.346,1.026-6.811,1.485-5.1.945-7.891,1.413c-5.579.846-11.742,1.557-18.247,1.935s-12.714.333-18.355.108c-2.816-.153-5.5-.279-7.99-.531s-4.823-.477-6.937-.747-4.031-.567-5.7-.81-3.113-.513-4.283-.747l-2.7-.531-.7-.153-.234-.063h.243l.711.108,2.7.441c1.17.207,2.609.45,4.292.666s3.6.54,5.7.747,4.436.5,6.928.684,5.174.342,7.981.486c5.624.2,11.823.2,18.31-.144s12.6-1.08,18.211-1.9c2.78-.45,5.4-.9,7.873-1.359s4.742-.963,6.82-1.431,3.941-.954,5.588-1.359,3.05-.792,4.193-1.116l2.645-.729.693-.18Z" transform="translate(-72.629 -177.047)" fill="#fafafa"/>
    <path id="Path_646" data-name="Path 646" d="M239.283,340.15a36.379,36.379,0,0,1-4.8,3.239,36.7,36.7,0,0,1-5.048,2.843A70.843,70.843,0,0,1,239.283,340.15Z" transform="translate(-82.996 -175.549)" fill="#fafafa"/>
    <path id="Path_647" data-name="Path 647" d="M122.11,354.443a9,9,0,0,1-1.512-.081c-.963-.081-2.357-.234-4.076-.468a113.923,113.923,0,0,1-26.093-6.865c-1.611-.639-2.9-1.188-3.779-1.593a8.622,8.622,0,0,1-1.35-.666,11.008,11.008,0,0,1,1.422.495c.9.36,2.2.855,3.824,1.458,3.239,1.2,7.774,2.7,12.867,4.067a131.936,131.936,0,0,0,13.209,2.771c1.71.279,3.086.486,4.049.621a8.678,8.678,0,0,1,1.44.261Z" transform="translate(-68.551 -176.137)" fill="#fafafa"/>
    <path id="Path_648" data-name="Path 648" d="M154.007,433.448l13.713.288s20.551-7.423,24.78-6.721c3.806.648,17.735,9.9,20.47,11.7a1.7,1.7,0,0,1,.657.846h0a2.987,2.987,0,0,1-1.656,3.8l-.288.117.117.414a4.867,4.867,0,0,1,.216,1.665,2.006,2.006,0,0,1-3.734.9l.522.9a2.321,2.321,0,0,1,.3,1.251l-.054.846a2.258,2.258,0,0,1-1.575,2.042h0a2.286,2.286,0,0,1-2.393-.621c-1.8-1.944-5.579-5.84-8.161-6.3a60.211,60.211,0,0,0-8.44-.423,2.87,2.87,0,0,0-2.7,1.8h0c1.539.108,12.219,5.678,16,7.675a4.031,4.031,0,0,1,2.2,3.041c.135,1.179-.459,2.42-2.8,1.872-5.021-1.17-14.063-5.327-14.063-5.327s-4.661-1.332-7.675.8c-4.247,3-6.2,4.094-9.844,2.888a31.055,31.055,0,0,1-6.3-2.951l-13.182.774S143.263,442.869,154.007,433.448Z" transform="translate(-74.831 -186.399)" fill="#b78876"/>
    <path id="Path_649" data-name="Path 649" d="M190,438.25a37.146,37.146,0,0,1,3.86-.54,19.948,19.948,0,0,1,16.61,7.09c1.557,1.845,2.213,3.2,2.285,3.158A4.6,4.6,0,0,0,212.3,447a17.339,17.339,0,0,0-1.611-2.375,19.3,19.3,0,0,0-16.844-7.2,17.62,17.62,0,0,0-2.843.477,4.339,4.339,0,0,0-1,.342Z" transform="translate(-79.044 -187.44)" fill="#aa6550"/>
    <path id="Path_650" data-name="Path 650" d="M192.38,432.693a16.582,16.582,0,0,1,4.013-.7,17.519,17.519,0,0,1,9.349,2.681,38.059,38.059,0,0,1,7.54,6.37l2.06,2.2a5.238,5.238,0,0,0,.792.783,6.5,6.5,0,0,0-.675-.9c-.459-.549-1.125-1.332-1.98-2.276a34.7,34.7,0,0,0-7.531-6.523,17.1,17.1,0,0,0-9.565-2.582,11.193,11.193,0,0,0-2.978.54,8.088,8.088,0,0,0-.774.3C192.461,432.63,192.371,432.684,192.38,432.693Z" transform="translate(-79.283 -186.877)" fill="#aa6550"/>
    <path id="Path_651" data-name="Path 651" d="M75.489,387.47c0-.09-7.135,32.059-8.1,37.71-1.089,6.613-2.888,22.683,11.841,25.814s75.887-.9,75.887-.9l4.418-20.3-56.029-7.954,6.118-26.9Z" transform="translate(-66.685 -182.441)" fill="#b78876"/>
  </g>
  <g id="freepik--Device--inject-142" transform="translate(108.369 198.252)">
    <path id="Path_723" data-name="Path 723" d="M335.623,458.591H210.15l16.2-88.052a6.577,6.577,0,0,1,6.469-5.4H345.557a6.577,6.577,0,0,1,6.46,7.819Z" transform="translate(-162.561 -365.056)" fill="#455a64"/>
    <path id="Path_724" data-name="Path 724" d="M204.849,468.3H157.26l.2-.144a25.653,25.653,0,0,1,14.675-5.129L206.163,462Z" transform="translate(-157.26 -374.764)" fill="#455a64"/>
    <path id="Path_725" data-name="Path 725" d="M240.8,365.212a6.934,6.934,0,0,0-1.017-.072,6.3,6.3,0,0,0-2.789.693,8.5,8.5,0,0,0-3.338,3.041,16.2,16.2,0,0,0-2.051,5.7c-.414,2.222-.774,4.7-1.215,7.333s-.9,5.462-1.494,8.413c-1.089,5.921-2.384,12.408-3.8,19.21-2.834,13.6-5.453,25.9-7.2,34.83-.9,4.5-1.53,8.1-1.98,10.59-.225,1.224-.4,2.2-.522,2.888l-.153.747a1.342,1.342,0,0,1-.063.252,1.144,1.144,0,0,1,0-.261c0-.2.063-.45.1-.756l.441-2.9c.4-2.519,1.017-6.145,1.8-10.626,1.629-8.953,4.2-21.271,7.036-34.866,1.413-6.793,2.7-13.281,3.833-19.192.567-2.951,1.062-5.768,1.53-8.395s.837-5.093,1.278-7.342a16.2,16.2,0,0,1,2.15-5.768,8.691,8.691,0,0,1,3.482-3.059,6.118,6.118,0,0,1,2.87-.621A3.824,3.824,0,0,1,240.8,365.212Z" transform="translate(-163.064 -365.047)" fill="#263238"/>
    <path id="Path_726" data-name="Path 726" d="M301.187,414.145a6.073,6.073,0,1,1-6.064-6.064,6.073,6.073,0,0,1,6.064,6.064Z" transform="translate(-170.468 -369.36)" fill="#f5f5f5"/>
  </g>
  <g id="freepik--Desk--inject-142" transform="translate(0 291.552)">
    <path id="Path_727" data-name="Path 727" d="M407.681,468.974c0,.135-86.19.234-192.492.234s-192.509-.144-192.509-.234,86.173-.234,192.509-.234S407.681,468.8,407.681,468.974Z" transform="translate(-22.68 -468.74)" fill="#263238"/>
  </g>
  <g id="freepik--Plant--inject-142" transform="translate(275.049 190.696)">
    <path id="Path_728" data-name="Path 728" d="M461.785,395.761a.419.419,0,0,0-.081-.2l-.3-.549c-.279-.486-.7-1.179-1.3-2.034a21.837,21.837,0,0,0-6.424-6.073,15.773,15.773,0,0,0-5.768-2.124,14.307,14.307,0,0,0-7.009.738,11.4,11.4,0,0,0-5.992,4.841c-1.377,2.411-1.8,5.237-2.627,7.927a14.466,14.466,0,0,1-1.674,3.779,11.392,11.392,0,0,1-2.843,2.807c-1.08.792-2.2,1.5-3.212,2.339a13.567,13.567,0,0,0-2.609,2.825,17.329,17.329,0,0,0-2.7,6.523,23.34,23.34,0,0,0-.351,6.127,46.309,46.309,0,0,0,1.566,8.719c.261,1.017.486,1.8.639,2.321a5.5,5.5,0,0,0,.27.8,7.347,7.347,0,0,0-.171-.828c-.135-.576-.324-1.35-.558-2.339a50.708,50.708,0,0,1-1.4-8.692,23.072,23.072,0,0,1,.4-6.029,17.149,17.149,0,0,1,2.645-6.352,13.144,13.144,0,0,1,2.537-2.7c.99-.81,2.105-1.512,3.194-2.312a12.012,12.012,0,0,0,2.969-2.915,15.3,15.3,0,0,0,1.764-3.905c.81-2.744,1.26-5.525,2.573-7.828a10.9,10.9,0,0,1,5.741-4.724,13.848,13.848,0,0,1,6.784-.756,15.494,15.494,0,0,1,5.651,2.015,22.405,22.405,0,0,1,6.451,5.885c.621.837,1.071,1.512,1.368,1.97A7.19,7.19,0,0,0,461.785,395.761Z" transform="translate(-361.505 -359.455)" fill="#e0e0e0"/>
    <path id="Path_729" data-name="Path 729" d="M427.268,407.96c.738-.684,1.1-.207,2.1,0a6.128,6.128,0,0,1,2.7,1.35,11.355,11.355,0,0,1,3.68,11.922,8.872,8.872,0,0,1-8.1-13.317" transform="translate(-362.269 -361.757)" fill="#e0e0e0"/>
    <path id="Path_730" data-name="Path 730" d="M461.28,392.392c.378-.945.9-.666,1.889-.9a6.111,6.111,0,0,1,3.014.054,11.346,11.346,0,0,1,8.449,9.178A8.872,8.872,0,0,1,461.55,392.2" transform="translate(-365.76 -360.126)" fill="#e0e0e0"/>
    <path id="Path_731" data-name="Path 731" d="M419.807,428.456a10.239,10.239,0,0,1,16.1.783,12.651,12.651,0,0,1-8.35,3.293,12.93,12.93,0,0,1-8.4-3.4" transform="translate(-361.537 -363.492)" fill="#e0e0e0"/>
    <path id="Path_732" data-name="Path 732" d="M421.478,411.836a10.365,10.365,0,0,1-10.5-12.372,9.3,9.3,0,0,1,10.8,12.273" transform="translate(-360.699 -360.918)" fill="#e0e0e0"/>
    <path id="Path_733" data-name="Path 733" d="M433.052,393.827a10.365,10.365,0,0,1-13.991-8.2,9.313,9.313,0,0,1,14.279,7.981" transform="translate(-361.528 -359.411)" fill="#e0e0e0"/>
    <path id="Path_734" data-name="Path 734" d="M438.578,388.833a10.374,10.374,0,0,1,13.991,8.188,9.3,9.3,0,0,1-14.279-7.981" transform="translate(-363.456 -359.806)" fill="#e0e0e0"/>
    <path id="Path_735" data-name="Path 735" d="M442.6,383.982a10.365,10.365,0,0,1-5.516-15.242,9.313,9.313,0,0,1,5.876,15.3" transform="translate(-363.181 -357.862)" fill="#e0e0e0"/>
    <path id="Path_736" data-name="Path 736" d="M455.541,384.73a10.374,10.374,0,0,1,8.449-13.83,9.3,9.3,0,0,1-8.26,14.117" transform="translate(-365.122 -358.078)" fill="#e0e0e0"/>
    <path id="Path_737" data-name="Path 737" d="M405.668,464.822,399.81,428.03l44.917.549L440.3,464.336" transform="translate(-359.599 -363.804)" fill="#263238"/>
    <path id="Path_738" data-name="Path 738" d="M427.765,419.8a7.657,7.657,0,0,0,7.459.63,8.1,8.1,0,0,0,4.076-6.442,8.62,8.62,0,0,0-12.39,5.156" transform="translate(-362.315 -362.291)" fill="#ff725e"/>
    <path id="Path_739" data-name="Path 739" d="M450.585,428.606a7.684,7.684,0,0,0,7.459.63,8.1,8.1,0,0,0,4.076-6.442,8.611,8.611,0,0,0-12.39,5.156" transform="translate(-364.602 -363.174)" fill="#ff725e"/>
    <path id="Path_740" data-name="Path 740" d="M437.829,409.361a7.639,7.639,0,0,0,5.885,4.625,8.044,8.044,0,0,0,6.946-3.14,9.151,9.151,0,0,0-6-4.409,9.043,9.043,0,0,0-7.2,1.908" transform="translate(-363.373 -361.628)" fill="#ff725e"/>
    <path id="Path_741" data-name="Path 741" d="M445.339,419.889a7.657,7.657,0,0,0-6.7,3.32,8.1,8.1,0,0,0-.153,7.621,8.62,8.62,0,0,0,7.936-10.8" transform="translate(-363.387 -362.987)" fill="#ff725e"/>
    <path id="Path_742" data-name="Path 742" d="M454.141,435.954a7.684,7.684,0,0,0,.18,7.486,8.1,8.1,0,0,0,6.847,3.356,9.169,9.169,0,0,0-.423-7.441c-1.179-2.142-3.311-3.2-5.975-3.815" transform="translate(-364.956 -364.557)" fill="#ff725e"/>
    <path id="Path_743" data-name="Path 743" d="M464.444,433.648a5.4,5.4,0,0,0-1.8-1.134,7.567,7.567,0,0,0-2.438-.423,28.481,28.481,0,0,0-3.311.189,9.691,9.691,0,0,1-4.085-.351,6.226,6.226,0,0,1-3.365-3.257,18.581,18.581,0,0,1-1.458-4.967,14.074,14.074,0,0,0-1.728-5.093,18,18,0,0,0-3.8-3.869,18.075,18.075,0,0,1-3.6-3.689,12.156,12.156,0,0,1-1.8-8.449,11.813,11.813,0,0,1,2.2-5.4,8.51,8.51,0,0,1,1.08-1.188c.261-.252.414-.378.423-.36a3.061,3.061,0,0,1-.36.432,11.906,11.906,0,0,0-.99,1.224,12.03,12.03,0,0,0-2.016,5.4,11.9,11.9,0,0,0,1.8,8.152,18.178,18.178,0,0,0,3.6,3.6,18.338,18.338,0,0,1,3.905,3.959,14.659,14.659,0,0,1,1.8,5.273,18.732,18.732,0,0,0,1.386,4.859,5.839,5.839,0,0,0,3.113,3.077,9.413,9.413,0,0,0,3.914.387,27.644,27.644,0,0,1,3.347-.126,7.684,7.684,0,0,1,2.5.522,4.336,4.336,0,0,1,1.35.9,2.453,2.453,0,0,1,.279.306C464.426,433.6,464.453,433.639,464.444,433.648Z" transform="translate(-363.319 -360.56)" fill="#ff725e"/>
    <path id="Path_744" data-name="Path 744" d="M464.444,433.648a5.4,5.4,0,0,0-1.8-1.134,7.567,7.567,0,0,0-2.438-.423,28.481,28.481,0,0,0-3.311.189,9.691,9.691,0,0,1-4.085-.351,6.226,6.226,0,0,1-3.365-3.257,18.581,18.581,0,0,1-1.458-4.967,14.074,14.074,0,0,0-1.728-5.093,18,18,0,0,0-3.8-3.869,18.075,18.075,0,0,1-3.6-3.689,12.156,12.156,0,0,1-1.8-8.449,11.813,11.813,0,0,1,2.2-5.4,8.51,8.51,0,0,1,1.08-1.188c.261-.252.414-.378.423-.36a3.061,3.061,0,0,1-.36.432,11.906,11.906,0,0,0-.99,1.224,12.03,12.03,0,0,0-2.016,5.4,11.9,11.9,0,0,0,1.8,8.152,18.178,18.178,0,0,0,3.6,3.6,18.338,18.338,0,0,1,3.905,3.959,14.659,14.659,0,0,1,1.8,5.273,18.732,18.732,0,0,0,1.386,4.859,5.839,5.839,0,0,0,3.113,3.077,9.413,9.413,0,0,0,3.914.387,27.644,27.644,0,0,1,3.347-.126,7.684,7.684,0,0,1,2.5.522,4.336,4.336,0,0,1,1.35.9,2.453,2.453,0,0,1,.279.306C464.426,433.6,464.453,433.639,464.444,433.648Z" transform="translate(-363.319 -360.56)" fill="#ff725e"/>
    <path id="Path_745" data-name="Path 745" d="M370.5,440.741a11.355,11.355,0,0,0-15.377-11.193A18.958,18.958,0,0,0,370.1,440.6" transform="translate(-355.12 -363.882)" fill="#ff725e"/>
    <path id="Path_746" data-name="Path 746" d="M368.735,443.712c-2.2,2.411-2.06,6.3-.486,9.151s4.274,4.895,6.982,6.7a14.765,14.765,0,0,0-6.352-16.736" transform="translate(-356.318 -365.288)" fill="#ff725e"/>
    <path id="Path_747" data-name="Path 747" d="M380.725,431.22a13.119,13.119,0,0,0,14.909,11.7c-.855-3.536-2.276-7.09-5-9.484s-7.027-3.293-10.041-1.278" transform="translate(-357.673 -364.106)" fill="#ff725e"/>
    <path id="Path_748" data-name="Path 748" d="M378.884,426.574c-.558-3.212-3.725-5.543-6.973-5.849s-6.451,1.089-9.061,3.05a11.769,11.769,0,0,0,16.061,1.584" transform="translate(-355.895 -363.068)" fill="#ff725e"/>
    <path id="Path_749" data-name="Path 749" d="M361.717,457.5c-3.086,2.636-3.86,7.324-2.573,11.175s4.283,6.919,7.657,9.169a24.415,24.415,0,0,0,1.422-11.877c-.684-3.968-3.077-7.8-6.766-9.421" transform="translate(-355.464 -366.663)" fill="#ff725e"/>
    <path id="Path_750" data-name="Path 750" d="M380.11,416.746a9.484,9.484,0,0,1,15.008-.9,8.188,8.188,0,0,1-14.774.387" transform="translate(-357.625 -362.256)" fill="#ff725e"/>
    <path id="Path_751" data-name="Path 751" d="M382.56,405.815a12.318,12.318,0,0,1-15.71-9.637,28.47,28.47,0,0,1,7.423.108,12.165,12.165,0,0,1,6.568,3.239,6.532,6.532,0,0,1,1.719,6.3" transform="translate(-356.296 -360.593)" fill="#ff725e"/>
    <path id="Path_752" data-name="Path 752" d="M391.818,402.518a10.077,10.077,0,0,1-.063-15.548,21,21,0,0,1,4.4,9.394,7.891,7.891,0,0,1,0,3.887,3.6,3.6,0,0,1-2.7,2.546" transform="translate(-358.428 -359.689)" fill="#ff725e"/>
    <g id="Group_72" data-name="Group 72" transform="translate(0 64.924)" opacity="0.4">
      <path id="Path_753" data-name="Path 753" d="M370.5,440.741a11.355,11.355,0,0,0-15.377-11.193A18.958,18.958,0,0,0,370.1,440.6" transform="translate(-355.12 -428.806)"/>
    </g>
    <g id="Group_73" data-name="Group 73" transform="translate(10.757 77.543)" opacity="0.4">
      <path id="Path_754" data-name="Path 754" d="M368.735,443.712c-2.2,2.411-2.06,6.3-.486,9.151s4.274,4.895,6.982,6.7a14.765,14.765,0,0,0-6.352-16.736" transform="translate(-367.075 -442.83)"/>
    </g>
    <g id="Group_74" data-name="Group 74" transform="translate(22.917 66.937)" opacity="0.4">
      <path id="Path_755" data-name="Path 755" d="M380.725,431.22a13.119,13.119,0,0,0,14.909,11.7c-.855-3.536-2.276-7.09-5-9.484s-7.027-3.293-10.041-1.278" transform="translate(-380.59 -431.043)"/>
    </g>
    <g id="Group_75" data-name="Group 75" transform="translate(6.955 57.615)" opacity="0.4">
      <path id="Path_756" data-name="Path 756" d="M378.884,426.574c-.558-3.212-3.725-5.543-6.973-5.849s-6.451,1.089-9.061,3.05a11.769,11.769,0,0,0,16.061,1.584" transform="translate(-362.85 -420.683)"/>
    </g>
    <g id="Group_76" data-name="Group 76" transform="translate(3.085 89.887)" opacity="0.4">
      <path id="Path_757" data-name="Path 757" d="M361.717,457.5c-3.086,2.636-3.86,7.324-2.573,11.175s4.283,6.919,7.657,9.169a24.415,24.415,0,0,0,1.422-11.877c-.684-3.968-3.077-7.8-6.766-9.421" transform="translate(-358.549 -456.55)"/>
    </g>
    <g id="Group_77" data-name="Group 77" transform="translate(22.485 50.328)" opacity="0.4">
      <path id="Path_758" data-name="Path 758" d="M380.11,416.746a9.484,9.484,0,0,1,15.008-.9,8.188,8.188,0,0,1-14.774.387" transform="translate(-380.11 -412.584)"/>
    </g>
    <g id="Group_78" data-name="Group 78" transform="translate(10.554 35.394)" opacity="0.4">
      <path id="Path_759" data-name="Path 759" d="M382.56,405.815a12.318,12.318,0,0,1-15.71-9.637,28.47,28.47,0,0,1,7.423.108,12.165,12.165,0,0,1,6.568,3.239,6.532,6.532,0,0,1,1.719,6.3" transform="translate(-366.85 -395.987)"/>
    </g>
    <g id="Group_79" data-name="Group 79" transform="translate(29.694 27.281)" opacity="0.4">
      <path id="Path_760" data-name="Path 760" d="M391.818,402.518a10.077,10.077,0,0,1-.063-15.548,21,21,0,0,1,4.4,9.394,7.891,7.891,0,0,1,0,3.887,3.6,3.6,0,0,1-2.7,2.546" transform="translate(-388.122 -386.97)"/>
    </g>
    <path id="Path_761" data-name="Path 761" d="M401.459,426.787a.988.988,0,0,1,0-.261,4.761,4.761,0,0,1,.045-.738c0-.648.108-1.611.126-2.843a25.481,25.481,0,0,0-1.665-10.2,15.7,15.7,0,0,0-4.112-5.777,10.905,10.905,0,0,0-7.468-2.744,9.348,9.348,0,0,0-4.211,1.053,8.422,8.422,0,0,0-3.257,3.1,16.765,16.765,0,0,0-1.89,9.385c.144,3.32.594,6.658.225,9.9a15.135,15.135,0,0,1-1.233,4.58,9.582,9.582,0,0,1-2.762,3.6,13.9,13.9,0,0,1-3.842,1.971,19.742,19.742,0,0,0-3.6,1.647,13.173,13.173,0,0,0-4.76,5.192,12.6,12.6,0,0,0-1.377,5.678,13.388,13.388,0,0,0,.72,4.391,16.446,16.446,0,0,0,1.7,3.41,2.312,2.312,0,0,1-.162-.189,7.066,7.066,0,0,1-.432-.6,11.994,11.994,0,0,1-1.287-2.555,13.217,13.217,0,0,1-.81-4.454,12.731,12.731,0,0,1,1.341-5.831,13.317,13.317,0,0,1,4.859-5.4c2.222-1.485,5.147-1.844,7.405-3.6s3.455-4.814,3.8-7.9-.108-6.415-.234-9.808.261-6.838,1.97-9.646a8.791,8.791,0,0,1,3.446-3.275,9.681,9.681,0,0,1,4.418-1.089,11.355,11.355,0,0,1,7.72,2.9,15.9,15.9,0,0,1,4.157,5.948,21.3,21.3,0,0,1,1.413,5.831,32.124,32.124,0,0,1,.126,4.5c-.054,1.242-.144,2.2-.216,2.843a4.708,4.708,0,0,1-.09.738A1.063,1.063,0,0,1,401.459,426.787Z" transform="translate(-355.75 -361.374)" fill="#ff725e"/>
    <g id="Group_80" data-name="Group 80" transform="translate(5.659 42.405)" opacity="0.4">
      <path id="Path_762" data-name="Path 762" d="M401.459,426.787a.988.988,0,0,1,0-.261,4.761,4.761,0,0,1,.045-.738c0-.648.108-1.611.126-2.843a25.481,25.481,0,0,0-1.665-10.2,15.7,15.7,0,0,0-4.112-5.777,10.905,10.905,0,0,0-7.468-2.744,9.348,9.348,0,0,0-4.211,1.053,8.422,8.422,0,0,0-3.257,3.1,16.765,16.765,0,0,0-1.89,9.385c.144,3.32.594,6.658.225,9.9a15.135,15.135,0,0,1-1.233,4.58,9.582,9.582,0,0,1-2.762,3.6,13.9,13.9,0,0,1-3.842,1.971,19.742,19.742,0,0,0-3.6,1.647,13.173,13.173,0,0,0-4.76,5.192,12.6,12.6,0,0,0-1.377,5.678,13.388,13.388,0,0,0,.72,4.391,16.446,16.446,0,0,0,1.7,3.41,2.312,2.312,0,0,1-.162-.189,7.066,7.066,0,0,1-.432-.6,11.994,11.994,0,0,1-1.287-2.555,13.217,13.217,0,0,1-.81-4.454,12.731,12.731,0,0,1,1.341-5.831,13.317,13.317,0,0,1,4.859-5.4c2.222-1.485,5.147-1.844,7.405-3.6s3.455-4.814,3.8-7.9-.108-6.415-.234-9.808.261-6.838,1.97-9.646a8.791,8.791,0,0,1,3.446-3.275,9.681,9.681,0,0,1,4.418-1.089,11.355,11.355,0,0,1,7.72,2.9,15.9,15.9,0,0,1,4.157,5.948,21.3,21.3,0,0,1,1.413,5.831,32.124,32.124,0,0,1,.126,4.5c-.054,1.242-.144,2.2-.216,2.843a4.708,4.708,0,0,1-.09.738A1.063,1.063,0,0,1,401.459,426.787Z" transform="translate(-361.409 -403.779)"/>
    </g>
    <path id="Path_763" data-name="Path 763" d="M473.334,417.923a9.655,9.655,0,0,0,.675-3.293,8.278,8.278,0,0,0-.9-3.8,7.927,7.927,0,0,0-3.671-3.536,8.1,8.1,0,0,0-2.879-.783,9.386,9.386,0,0,0-3.23.387c-2.2.576-4.382,1.8-6.982,2.339a8.143,8.143,0,0,1-4.049-.1A6.083,6.083,0,0,1,449,406.514c-1.575-2.438-2.015-5.489-3.9-7.729a7.738,7.738,0,0,0-3.554-2.321,9.9,9.9,0,0,0-4.148-.423,10.662,10.662,0,0,0-6.892,3.6,16.2,16.2,0,0,0-3.419,6.3,19.11,19.11,0,0,0-.765,6.3,69.121,69.121,0,0,0,1.161,9.178q.27,1.566.432,2.483a3.531,3.531,0,0,0,.1.648.844.844,0,0,1,0,.225.674.674,0,0,1-.072-.216l-.144-.639-.513-2.474a61.24,61.24,0,0,1-1.287-9.2,19.055,19.055,0,0,1,.72-6.4,16.519,16.519,0,0,1,3.473-6.523,12.6,12.6,0,0,1,3.149-2.519,10.8,10.8,0,0,1,8.377-.8,8.224,8.224,0,0,1,3.77,2.456c2.007,2.4,2.429,5.48,3.932,7.792a5.632,5.632,0,0,0,3.041,2.447,7.756,7.756,0,0,0,3.824.1c2.5-.477,4.7-1.71,6.955-2.294a9.628,9.628,0,0,1,3.365-.36,8.172,8.172,0,0,1,7.585,8.494,7.827,7.827,0,0,1-.486,2.483,3.6,3.6,0,0,1-.369.8Z" transform="translate(-362.22 -360.544)" fill="#ff725e"/>
    <path id="Path_764" data-name="Path 764" d="M449.386,401.534a8.737,8.737,0,0,0,8.008.522,8.1,8.1,0,0,0,4.076-6.442,8.62,8.62,0,0,0-12.39,5.156" transform="translate(-364.537 -360.45)" fill="#ff725e"/>
    <path id="Path_765" data-name="Path 765" d="M458.88,410.784a8.728,8.728,0,0,0,3.707,7.117,8.1,8.1,0,0,0,7.63.126,8.629,8.629,0,0,0-10.851-7.9" transform="translate(-365.52 -361.98)" fill="#ff725e"/>
    <path id="Path_766" data-name="Path 766" d="M475.261,408.126a8.71,8.71,0,0,0,8.017-.333,8.1,8.1,0,0,0,3.41-6.865,8.629,8.629,0,0,0-11.778,6.442" transform="translate(-367.126 -361.023)" fill="#ff725e"/>
    <path id="Path_767" data-name="Path 767" d="M435.267,395.132c-2.159-1.854-3.6-5.111-3.185-7.558a8.1,8.1,0,0,1,4.949-5.8,8.62,8.62,0,0,1-1.26,13.362" transform="translate(-362.827 -359.168)" fill="#ff725e"/>
    <path id="Path_768" data-name="Path 768" d="M371.52,383.627a.394.394,0,0,1,.09-.2l.342-.585a21.462,21.462,0,0,1,1.3-2.033,21.721,21.721,0,0,1,6.424-6.073,15.711,15.711,0,0,1,5.768-2.123,14.4,14.4,0,0,1,7,.738,11.391,11.391,0,0,1,5.956,4.994c1.377,2.4,1.8,5.228,2.627,7.918a13.954,13.954,0,0,0,1.674,3.788,11.356,11.356,0,0,0,2.843,2.8c1.071.792,2.2,1.5,3.212,2.339a13.5,13.5,0,0,1,2.6,2.825,17.329,17.329,0,0,1,2.7,6.523,22.982,22.982,0,0,1,.36,6.127,46.57,46.57,0,0,1-1.566,8.728c-.27,1.008-.495,1.8-.648,2.312a5,5,0,0,1-.261.8,5.47,5.47,0,0,1,.171-.819c.135-.576.315-1.359.549-2.348a49.7,49.7,0,0,0,1.413-8.692,23.1,23.1,0,0,0-.414-6.029,17.007,17.007,0,0,0-2.645-6.352,13.1,13.1,0,0,0-2.528-2.7c-.99-.81-2.105-1.512-3.194-2.312a11.7,11.7,0,0,1-2.969-2.915,14.558,14.558,0,0,1-1.737-3.914c-.819-2.744-1.26-5.525-2.573-7.828a11,11,0,0,0-5.741-4.724,13.884,13.884,0,0,0-6.793-.756,15.611,15.611,0,0,0-5.651,2.015,22.358,22.358,0,0,0-6.442,5.884c-.63.837-1.08,1.512-1.377,1.971A4.554,4.554,0,0,1,371.52,383.627Z" transform="translate(-356.764 -358.236)" fill="#ff725e"/>
    <path id="Path_769" data-name="Path 769" d="M409.745,395.82c-.747-.684-1.107-.207-2.105,0a6.379,6.379,0,0,0-2.7,1.35,11.373,11.373,0,0,0-3.68,11.922,8.863,8.863,0,0,0,8.143-13.317" transform="translate(-359.7 -360.54)" fill="#ff725e"/>
    <path id="Path_770" data-name="Path 770" d="M375.332,380.3c-.378-.945-.9-.666-1.889-.9a6.109,6.109,0,0,0-3.014.054,11.373,11.373,0,0,0-8.458,9.178,8.863,8.863,0,0,0,13.083-8.521" transform="translate(-355.807 -358.914)" fill="#ff725e"/>
    <path id="Path_771" data-name="Path 771" d="M416.418,416.367a10.239,10.239,0,0,0-16.088.783,12.6,12.6,0,0,0,8.341,3.293,12.912,12.912,0,0,0,8.4-3.4" transform="translate(-359.651 -362.281)" fill="#ff725e"/>
    <path id="Path_772" data-name="Path 772" d="M415.325,399.754A10.374,10.374,0,0,0,425.8,387.373a9.313,9.313,0,0,0-10.86,12.237" transform="translate(-361.06 -359.705)" fill="#ff725e"/>
    <path id="Path_773" data-name="Path 773" d="M403.453,381.737a10.374,10.374,0,0,0,13.956-8.2,9.322,9.322,0,0,0-14.288,7.981" transform="translate(-359.931 -358.199)" fill="#ff725e"/>
    <path id="Path_774" data-name="Path 774" d="M397.921,376.743a10.374,10.374,0,0,0-13.991,8.188,9.3,9.3,0,0,0,14.279-7.981" transform="translate(-358.008 -358.594)" fill="#ff725e"/>
    <path id="Path_775" data-name="Path 775" d="M394.42,371.892a10.365,10.365,0,0,0,5.525-15.242,9.313,9.313,0,0,0-5.885,15.3" transform="translate(-358.798 -356.65)" fill="#ff725e"/>
    <path id="Path_776" data-name="Path 776" d="M381.388,372.64a10.365,10.365,0,0,0-8.467-13.83,9.313,9.313,0,0,0,8.269,14.117" transform="translate(-356.77 -356.866)" fill="#ff725e"/>
    <path id="Path_777" data-name="Path 777" d="M399.17,464.18l3.437,4.265h42.271l2.879-4.265Z" transform="translate(-359.535 -367.427)" fill="#263238"/>
    <path id="Path_778" data-name="Path 778" d="M446.971,464.113c0,.135-10.383.243-23.2.243s-23.205-.108-23.205-.243,10.383-.243,23.205-.243S446.971,463.987,446.971,464.113Z" transform="translate(-359.675 -367.396)" fill="#455a64"/>
    <path id="Path_779" data-name="Path 779" d="M442.508,446.235a1.917,1.917,0,0,1-.261.342,10.087,10.087,0,0,1-.9.9,15.872,15.872,0,0,1-3.779,2.618,16.5,16.5,0,0,1-6.6,1.692,15.649,15.649,0,0,1-4.04-.333,23.954,23.954,0,0,1-4.112-1.368c-2.7-1.161-5.2-2.483-7.612-3.248a13.109,13.109,0,0,0-6.577-.63,8.458,8.458,0,0,0-4.04,1.872c-.8.7-1.107,1.224-1.152,1.2a1.847,1.847,0,0,1,.216-.387,7.035,7.035,0,0,1,.81-.954,8.413,8.413,0,0,1,4.094-2.069,13.182,13.182,0,0,1,6.784.549c2.465.756,4.976,2.078,7.666,3.221a23.835,23.835,0,0,0,4.031,1.35,15.907,15.907,0,0,0,3.914.36,16.932,16.932,0,0,0,6.469-1.557A20.152,20.152,0,0,0,442.508,446.235Z" transform="translate(-359.963 -365.57)" fill="#455a64"/>
    <path id="Path_780" data-name="Path 780" d="M442.885,442.6a1.568,1.568,0,0,1-.3.324,9.539,9.539,0,0,1-.9.846,17.464,17.464,0,0,1-3.914,2.429,18.293,18.293,0,0,1-6.649,1.584,17.417,17.417,0,0,1-4.049-.27,26.176,26.176,0,0,1-4.175-1.179c-2.789-1.017-5.4-2.177-7.8-2.861a15.449,15.449,0,0,0-6.631-.6,9.977,9.977,0,0,0-4.184,1.6c-.9.612-1.26,1.089-1.3,1.053s.072-.135.261-.351a7.2,7.2,0,0,1,.9-.855,9.61,9.61,0,0,1,4.238-1.8,15.539,15.539,0,0,1,6.811.513c2.492.675,5.075,1.8,7.837,2.834a28.236,28.236,0,0,0,4.1,1.17,18.04,18.04,0,0,0,3.941.3,18.653,18.653,0,0,0,6.523-1.458A23.225,23.225,0,0,0,442.885,442.6Z" transform="translate(-359.917 -365.24)" fill="#455a64"/>
  </g>
</svg>
