<svg xmlns="http://www.w3.org/2000/svg" width="57.5" height="57.5" viewBox="0 0 57.5 57.5">
  <g id="icons8-health" transform="translate(-20.48 -20.429)">
    <g id="Group_13" data-name="Group 13" transform="translate(20.48 20.429)">
      <path id="Path_10" data-name="Path 10" d="M64.29,20.429H34.17a13.706,13.706,0,0,0-13.69,13.69V64.238a13.706,13.706,0,0,0,13.69,13.69H64.29a13.706,13.706,0,0,0,13.69-13.69V34.119a13.706,13.706,0,0,0-13.69-13.69ZM56.066,53.139a1.5,1.5,0,0,1-1.349,0c-7.864-4.026-12.332-10.362-12.332-16.056,0-6.552,7.2-9.03,12.008-4.582a1.461,1.461,0,0,0,1.995,0C61.2,28.053,68.4,30.531,68.4,37.083,68.4,42.777,63.928,49.113,56.066,53.139Z" transform="translate(-20.48 -20.429)" fill="#0cb657"/>
    </g>
  </g>
</svg>
